<svg id="Layer_1" data-name="Layer 1" xmlns="http://www.w3.org/2000/svg" viewBox="0 0 1016 508"><defs><style>.cls-1{fill:#4747ff;}.cls-2{fill:#fff;}</style></defs><title>upchannel-icon-construction-outline</title><rect class="cls-1" width="1016" height="508"/><path class="cls-2" d="M558,134h0A130,130,0,0,0,388,304h0A130,130,0,1,0,558,134ZM398,254A110,110,0,0,1,536.63,147.79,70,70,0,0,1,468,204a10,10,0,0,0-10,10,70,70,0,0,1-56.21,68.63A109.76,109.76,0,0,1,398,254Zm46.83,90a110.73,110.73,0,0,1-36-42.43A90.07,90.07,0,0,0,477.5,223.5a90.07,90.07,0,0,0,78.07-68.67,110.73,110.73,0,0,1,42.43,36V194a70,70,0,0,1-70,70,10,10,0,0,0-10,10,70,70,0,0,1-70,70h-3.17ZM508,364a109.65,109.65,0,0,1-31.51-4.61,90.08,90.08,0,0,0,61-75.89,90.08,90.08,0,0,0,75.89-61A110,110,0,0,1,508,364Z"/></svg>