<?xml version="1.0" encoding="UTF-8" standalone="no"?>
<svg width="1016px" height="484px" viewBox="0 0 1016 484" version="1.1" xmlns="http://www.w3.org/2000/svg" xmlns:xlink="http://www.w3.org/1999/xlink" xmlns:sketch="http://www.bohemiancoding.com/sketch/ns">
    <!-- Generator: Sketch 3.5.2 (25235) - http://www.bohemiancoding.com/sketch -->
    <title>upchannel-logotype</title>
    <desc>Created with Sketch.</desc>
    <defs>
        <path id="path-1" d="M0,0 L663.947279,0 L663.947279,99.7424893 L0,99.7424893 L0,0 Z"></path>
    </defs>
    <g id="Page-1" stroke="none" stroke-width="1" fill="none" fill-rule="evenodd" sketch:type="MSPage">
        <g id="Project---UpChannel" sketch:type="MSArtboardGroup" transform="translate(-212.000000, -1708.000000)">
            <g id="upchannel-logotype" sketch:type="MSLayerGroup" transform="translate(212.000000, 1708.000000)">
                <rect id="Rectangle-175" fill="#FFFFFF" sketch:type="MSShapeGroup" x="0" y="0" width="1016" height="484"></rect>
                <g id="Page-1" transform="translate(176.000000, 202.000000)">
                    <mask id="mask-2" sketch:name="Clip 2" fill="white">
                        <use xlink:href="#path-1"></use>
                    </mask>
                    <g id="Clip-2"></g>
                    <path d="M39.920079,72.4925562 C37.3752206,72.4925562 34.8973322,72.1990283 32.5191863,71.6433202 C41.5430318,67.8630798 48.1702077,59.467612 49.4212635,49.4206936 C59.4667571,48.1710627 67.8622249,41.5424618 71.6438901,32.5200412 C72.1981734,34.8981871 72.4931262,37.3760755 72.4931262,39.919509 C72.4931262,57.8802815 57.8808515,72.4925562 39.920079,72.4925562 L39.920079,72.4925562 Z M10.9064137,54.7155948 C15.9377099,53.3662215 20.5158901,50.6218781 24.116594,46.7290712 C28.0948944,42.4273202 30.5827571,37.0440755 31.2980532,31.2974833 C37.0446455,30.583612 42.4278901,28.0957494 46.7296412,24.1174489 C50.6224481,20.5153202 53.3653665,15.9385648 54.7147399,10.9058438 C59.3841133,13.2968137 63.4037356,16.7821013 66.4330575,21.0197322 C66.4444567,21.2890369 66.4515811,21.5469425 66.4515811,21.7977236 C66.4515811,33.0956979 57.2595983,42.2876807 45.961624,42.2876807 C43.9325768,42.2876807 42.2868258,43.9320069 42.2868258,45.9610541 C42.2868258,57.2590283 33.0948429,66.4510112 21.7968687,66.4510112 C21.5475124,66.4510112 21.288182,66.4453116 21.0203021,66.4339124 C16.7812464,63.4031657 13.2973837,59.3849682 10.9064137,54.7155948 L10.9064137,54.7155948 Z M39.920079,7.3478867 C42.6344996,7.3478867 45.2705511,7.68416137 47.7926112,8.31253906 C46.8735554,12.2851399 44.7832378,15.9086421 41.739667,18.7228052 C37.9466026,22.2323159 33.0093494,24.1644704 27.8384137,24.1644704 C25.8093665,24.1644704 24.1636155,25.8087966 24.1636155,27.8378438 C24.1636155,33.0087794 22.2314609,37.9460326 18.7233751,41.739097 C15.9077871,44.7826678 12.284285,46.8744103 8.31168412,47.7920412 C7.68330644,45.2699811 7.34703176,42.6339296 7.34703176,39.919509 C7.34703176,21.9601614 21.9593064,7.3478867 39.920079,7.3478867 L39.920079,7.3478867 Z M39.920079,-0.000284978541 C17.9083365,-0.000284978541 0.000284978541,17.9077665 0.000284978541,39.919509 C0.000284978541,61.9326764 17.9083365,79.8407279 39.920079,79.8407279 C61.9318215,79.8407279 79.839873,61.9326764 79.839873,39.919509 C79.839873,17.9077665 61.9318215,-0.000284978541 39.920079,-0.000284978541 L39.920079,-0.000284978541 Z M649.252645,1.2735691 L663.947564,1.2735691 L663.947564,78.4528824 L649.252645,78.4528824 L649.252645,1.2735691 Z M612.514637,33.2082644 C603.37395,33.2082644 599.438397,39.5732601 598.861315,45.1274918 L626.400216,45.1274918 C625.937126,39.8040927 622.23383,33.2082644 612.514637,33.2082644 L612.514637,33.2082644 Z M583.586465,50.4494661 C583.586465,34.2498609 595.621109,21.1750455 612.514637,21.1750455 C629.292748,21.1750455 640.516628,33.6713545 640.516628,51.8387365 L640.516628,55.3097751 L598.976731,55.3097751 C600.018328,62.1364361 605.571135,67.8060841 615.059495,67.8060841 C619.804388,67.8060841 626.283375,65.8397322 629.871255,62.3672687 L636.467083,72.0878867 C630.912852,77.1790283 622.118414,79.8407279 613.440817,79.8407279 C596.430448,79.8407279 583.586465,68.3845906 583.586465,50.4494661 L583.586465,50.4494661 Z M560.08571,78.4514575 L560.08571,44.6644017 C560.08571,36.9115605 556.036165,34.2498609 549.78801,34.2498609 C544.001521,34.2498609 539.604302,37.490067 537.059444,40.730273 L537.059444,78.4514575 L522.364525,78.4514575 L522.364525,22.5643159 L537.059444,22.5643159 L537.059444,29.7372258 C540.645899,25.5722644 547.589401,21.1750455 556.614671,21.1750455 C568.995564,21.1750455 574.89747,28.1185476 574.89747,38.9947536 L574.89747,78.4514575 L560.08571,78.4514575 Z M495.461126,78.4514575 L495.461126,44.6644017 C495.461126,36.9115605 491.411581,34.2498609 485.163427,34.2498609 C479.376937,34.2498609 474.979718,37.490067 472.43486,40.730273 L472.43486,78.4514575 L457.739942,78.4514575 L457.739942,22.5643159 L472.43486,22.5643159 L472.43486,29.7372258 C476.021315,25.5722644 482.964817,21.1750455 491.990088,21.1750455 C504.37098,21.1750455 510.271461,28.1185476 510.271461,38.9947536 L510.271461,78.4514575 L495.461126,78.4514575 Z M430.882139,65.0289682 L430.882139,58.086891 C428.452697,54.846685 423.824645,53.1111657 419.079753,53.1111657 C413.294688,53.1111657 408.551221,56.2359554 408.551221,61.5579296 C408.551221,66.8799039 413.294688,69.8892773 419.079753,69.8892773 C423.824645,69.8892773 428.452697,68.2691742 430.882139,65.0289682 L430.882139,65.0289682 Z M430.882139,78.4514575 L430.882139,72.5509768 C427.064852,77.1790283 420.469023,79.8407279 413.179272,79.8407279 C404.269418,79.8407279 393.854877,73.823406 393.854877,61.327097 C393.854877,48.1354403 404.269418,43.2751313 413.179272,43.2751313 C420.699856,43.2751313 427.180268,45.7059983 430.882139,50.1032172 L430.882139,43.0442987 C430.882139,37.3746506 426.023255,33.6713545 418.616663,33.6713545 C412.716182,33.6713545 407.16195,35.9868052 402.533899,40.2671828 L396.747409,29.9694833 C403.575495,23.8367451 412.368508,21.1750455 421.162946,21.1750455 C434.006929,21.1750455 445.693899,26.2661871 445.693899,42.350376 L445.693899,78.4514575 L430.882139,78.4514575 Z M370.366946,78.4514575 L370.366946,44.4321442 C370.366946,36.6807279 366.317401,34.2498609 360.067821,34.2498609 C354.282757,34.2498609 349.770122,37.490067 347.34068,40.730273 L347.34068,78.4514575 L332.52892,78.4514575 L332.52892,1.2735691 L347.34068,1.2735691 L347.34068,29.7372258 C350.927135,25.5722644 357.753796,21.1750455 366.895907,21.1750455 C379.159959,21.1750455 385.061864,27.8862901 385.061864,38.7624961 L385.061864,78.4514575 L370.366946,78.4514575 Z M252.504096,39.919509 C252.504096,16.0839039 270.439221,-0.000284978541 293.696319,-0.000284978541 C310.589847,-0.000284978541 320.425882,9.14182661 325.863272,18.8610197 L311.748285,25.803097 C308.508079,19.5549425 301.564577,14.5792172 293.696319,14.5792172 C279.579907,14.5792172 269.397624,25.3400069 269.397624,39.919509 C269.397624,54.4990112 279.579907,65.2612258 293.696319,65.2612258 C301.564577,65.2612258 308.508079,60.2855004 311.748285,54.0373459 L325.863272,60.8640069 C320.425882,70.4677837 310.589847,79.8407279 293.696319,79.8407279 C270.439221,79.8407279 252.504096,63.6411227 252.504096,39.919509 L252.504096,39.919509 Z M230.877075,50.4494661 C230.877075,40.8456893 225.09201,34.2498609 216.645246,34.2498609 C211.901779,34.2498609 206.578379,36.9115605 204.033521,40.6148567 L204.033521,60.2855004 C206.462963,63.8719554 211.901779,66.7644876 216.645246,66.7644876 C225.09201,66.7644876 230.877075,60.1700841 230.877075,50.4494661 L230.877075,50.4494661 Z M204.033521,71.2771227 L204.033521,99.7422043 L189.337178,99.7422043 L189.337178,22.5643159 L204.033521,22.5643159 L204.033521,29.6218094 C208.313899,24.182994 214.446637,21.1750455 221.273298,21.1750455 C235.621967,21.1750455 246.035083,31.8204189 246.035083,50.4494661 C246.035083,69.0785133 235.621967,79.8407279 221.273298,79.8407279 C214.67747,79.8407279 208.661573,77.063612 204.033521,71.2771227 L204.033521,71.2771227 Z M109.231135,47.5569339 L109.231135,1.2735691 L125.89383,1.2735691 L125.89383,47.0938438 C125.89383,57.8546335 132.141985,65.2612258 144.059787,65.2612258 C155.97759,65.2612258 162.110328,57.8546335 162.110328,47.0938438 L162.110328,1.2735691 L178.888439,1.2735691 L178.888439,47.5569339 C178.888439,66.6490712 167.549143,79.8407279 144.059787,79.8407279 C120.570431,79.8407279 109.231135,66.6490712 109.231135,47.5569339 L109.231135,47.5569339 Z" id="Fill-1" fill="#4747FF" sketch:type="MSShapeGroup" mask="url(#mask-2)"></path>
                </g>
            </g>
        </g>
    </g>
</svg>