<svg id="Layer_1" data-name="Layer 1" xmlns="http://www.w3.org/2000/svg" viewBox="0 0 1016.17 508"><defs><style>.cls-1{fill:#4747ff;}.cls-2{fill:#4343f4;}.cls-3{opacity:0.25;}.cls-4{fill:#fff;}.cls-5{fill:#f2ebe6;}</style></defs><title>upchannel-icon-construction-alt-outline</title><rect class="cls-1" width="1016" height="508"/><rect class="cls-2" x="107.5" width="1" height="508"/><rect class="cls-2" x="117.5" width="1" height="508"/><rect class="cls-2" x="127.5" width="1" height="508"/><rect class="cls-2" x="137.5" width="1" height="508"/><rect class="cls-2" x="147.5" width="1" height="508"/><rect class="cls-2" x="157.5" width="1" height="508"/><rect class="cls-2" x="167.5" width="1" height="508"/><rect class="cls-2" x="177.5" width="1" height="508"/><rect class="cls-2" x="187.5" width="1" height="508"/><rect class="cls-2" x="197.5" width="1" height="508"/><rect class="cls-2" x="207.5" width="1" height="508"/><rect class="cls-2" x="217.5" width="1" height="508"/><rect class="cls-2" x="227.5" width="1" height="508"/><rect class="cls-2" x="237.5" width="1" height="508"/><rect class="cls-2" x="247.5" width="1" height="508"/><rect class="cls-2" x="257.5" width="1" height="508"/><rect class="cls-2" x="267.5" width="1" height="508"/><rect class="cls-2" x="277.5" width="1" height="508"/><rect class="cls-2" x="287.5" width="1" height="508"/><rect class="cls-2" x="297.5" width="1" height="508"/><rect class="cls-2" x="307.5" width="1" height="508"/><rect class="cls-2" x="317.5" width="1" height="508"/><rect class="cls-2" x="327.5" width="1" height="508"/><rect class="cls-2" x="337.5" width="1" height="508"/><rect class="cls-2" x="347.5" width="1" height="508"/><rect class="cls-2" x="357.5" width="1" height="508"/><rect class="cls-2" x="367.5" width="1" height="508"/><rect class="cls-2" x="377.5" width="1" height="508"/><rect class="cls-2" x="387.5" width="1" height="508"/><rect class="cls-2" x="397.5" width="1" height="508"/><rect class="cls-2" x="407.5" width="1" height="508"/><rect class="cls-2" x="417.5" width="1" height="508"/><rect class="cls-2" x="427.5" width="1" height="508"/><rect class="cls-2" x="437.5" width="1" height="508"/><rect class="cls-2" x="447.5" width="1" height="508"/><rect class="cls-2" x="457.5" width="1" height="508"/><rect class="cls-2" x="467.5" width="1" height="508"/><rect class="cls-2" x="477.5" width="1" height="508"/><rect class="cls-2" x="487.5" width="1" height="508"/><rect class="cls-2" x="497.5" width="1" height="508"/><rect class="cls-2" x="507.5" width="1" height="508"/><rect class="cls-2" x="517.5" width="1" height="508"/><rect class="cls-2" x="527.5" width="1" height="508"/><rect class="cls-2" x="537.5" width="1" height="508"/><rect class="cls-2" x="547.5" width="1" height="508"/><rect class="cls-2" x="557.5" width="1" height="508"/><rect class="cls-2" x="567.5" width="1" height="508"/><rect class="cls-2" x="577.5" width="1" height="508"/><rect class="cls-2" x="587.5" width="1" height="508"/><rect class="cls-2" x="597.5" width="1" height="508"/><rect class="cls-2" x="607.5" width="1" height="508"/><rect class="cls-2" x="617.5" width="1" height="508"/><rect class="cls-2" x="627.5" width="1" height="508"/><rect class="cls-2" x="637.5" width="1" height="508"/><rect class="cls-2" x="647.5" width="1" height="508"/><rect class="cls-2" x="657.5" width="1" height="508"/><rect class="cls-2" x="667.5" width="1" height="508"/><rect class="cls-2" x="677.5" width="1" height="508"/><rect class="cls-2" x="687.5" width="1" height="508"/><rect class="cls-2" x="697.5" width="1" height="508"/><rect class="cls-2" x="707.5" width="1" height="508"/><rect class="cls-2" x="717.5" width="1" height="508"/><rect class="cls-2" x="727.5" width="1" height="508"/><rect class="cls-2" x="737.5" width="1" height="508"/><rect class="cls-2" x="747.5" width="1" height="508"/><rect class="cls-2" x="757.5" width="1" height="508"/><rect class="cls-2" x="767.5" width="1" height="508"/><rect class="cls-2" x="777.5" width="1" height="508"/><rect class="cls-2" x="787.5" width="1" height="508"/><rect class="cls-2" x="797.5" width="1" height="508"/><rect class="cls-2" x="807.5" width="1" height="508"/><rect class="cls-2" x="817.5" width="1" height="508"/><rect class="cls-2" x="827.5" width="1" height="508"/><rect class="cls-2" x="837.5" width="1" height="508"/><rect class="cls-2" x="847.5" width="1" height="508"/><rect class="cls-2" x="857.5" width="1" height="508"/><rect class="cls-2" x="867.5" width="1" height="508"/><rect class="cls-2" x="877.5" width="1" height="508"/><rect class="cls-2" x="887.5" width="1" height="508"/><rect class="cls-2" x="897.5" width="1" height="508"/><rect class="cls-2" x="907.5" width="1" height="508"/><rect class="cls-2" x="917.5" width="1" height="508"/><rect class="cls-2" x="927.5" width="1" height="508"/><rect class="cls-2" x="937.5" width="1" height="508"/><rect class="cls-2" x="947.5" width="1" height="508"/><rect class="cls-2" x="957.5" width="1" height="508"/><rect class="cls-2" x="967.5" width="1" height="508"/><rect class="cls-2" x="977.5" width="1" height="508"/><rect class="cls-2" x="987.5" width="1" height="508"/><rect class="cls-2" x="997.5" width="1" height="508"/><rect class="cls-2" x="1007.5" width="1" height="508"/><rect class="cls-2" x="7.83" width="1" height="508"/><rect class="cls-2" x="17.83" width="1" height="508"/><rect class="cls-2" x="27.83" width="1" height="508"/><rect class="cls-2" x="37.83" width="1" height="508"/><rect class="cls-2" x="47.83" width="1" height="508"/><rect class="cls-2" x="57.83" width="1" height="508"/><rect class="cls-2" x="67.83" width="1" height="508"/><rect class="cls-2" x="77.83" width="1" height="508"/><rect class="cls-2" x="87.83" width="1" height="508"/><rect class="cls-2" x="97.83" width="1" height="508"/><rect class="cls-2" x="0.17" y="503.67" width="1016" height="1"/><rect class="cls-2" x="0.17" y="493.67" width="1016" height="1"/><rect class="cls-2" x="0.17" y="483.67" width="1016" height="1"/><rect class="cls-2" x="0.17" y="473.67" width="1016" height="1"/><rect class="cls-2" x="0.17" y="463.67" width="1016" height="1"/><rect class="cls-2" x="0.17" y="453.67" width="1016" height="1"/><rect class="cls-2" x="0.17" y="443.67" width="1016" height="1"/><rect class="cls-2" x="0.17" y="433.67" width="1016" height="1"/><rect class="cls-2" x="0.17" y="423.67" width="1016" height="1"/><rect class="cls-2" x="0.17" y="413.67" width="1016" height="1"/><rect class="cls-2" x="0.17" y="403.67" width="1016" height="1"/><rect class="cls-2" x="0.17" y="393.67" width="1016" height="1"/><rect class="cls-2" x="0.17" y="383.67" width="1016" height="1"/><rect class="cls-2" x="0.17" y="373.67" width="1016" height="1"/><rect class="cls-2" x="0.17" y="363.67" width="1016" height="1"/><rect class="cls-2" x="0.17" y="353.67" width="1016" height="1"/><rect class="cls-2" x="0.17" y="343.67" width="1016" height="1"/><rect class="cls-2" x="0.17" y="333.67" width="1016" height="1"/><rect class="cls-2" x="0.17" y="323.67" width="1016" height="1"/><rect class="cls-2" x="0.17" y="313.67" width="1016" height="1"/><rect class="cls-2" x="0.17" y="303.67" width="1016" height="1"/><rect class="cls-2" x="0.17" y="293.67" width="1016" height="1"/><rect class="cls-2" x="0.17" y="283.67" width="1016" height="1"/><rect class="cls-2" x="0.17" y="273.67" width="1016" height="1"/><rect class="cls-2" x="0.17" y="263.67" width="1016" height="1"/><rect class="cls-2" x="0.17" y="253.67" width="1016" height="1"/><rect class="cls-2" x="0.17" y="243.67" width="1016" height="1"/><rect class="cls-2" x="0.17" y="233.67" width="1016" height="1"/><rect class="cls-2" x="0.17" y="223.67" width="1016" height="1"/><rect class="cls-2" x="0.17" y="213.67" width="1016" height="1"/><rect class="cls-2" x="0.17" y="203.67" width="1016" height="1"/><rect class="cls-2" x="0.17" y="193.67" width="1016" height="1"/><rect class="cls-2" x="0.17" y="183.67" width="1016" height="1"/><rect class="cls-2" x="0.17" y="173.67" width="1016" height="1"/><rect class="cls-2" x="0.17" y="163.67" width="1016" height="1"/><rect class="cls-2" x="0.17" y="153.67" width="1016" height="1"/><rect class="cls-2" x="0.17" y="143.67" width="1016" height="1"/><rect class="cls-2" x="0.17" y="133.67" width="1016" height="1"/><rect class="cls-2" x="0.17" y="123.67" width="1016" height="1"/><rect class="cls-2" x="0.17" y="113.67" width="1016" height="1"/><rect class="cls-2" x="0.17" y="103.67" width="1016" height="1"/><rect class="cls-2" x="0.17" y="93.67" width="1016" height="1"/><rect class="cls-2" x="0.17" y="83.67" width="1016" height="1"/><rect class="cls-2" x="0.17" y="73.67" width="1016" height="1"/><rect class="cls-2" x="0.17" y="63.67" width="1016" height="1"/><rect class="cls-2" x="0.17" y="53.67" width="1016" height="1"/><rect class="cls-2" x="0.17" y="43.67" width="1016" height="1"/><rect class="cls-2" x="0.17" y="33.67" width="1016" height="1"/><rect class="cls-2" x="0.17" y="23.67" width="1016" height="1"/><rect class="cls-2" x="0.17" y="13.67" width="1016" height="1"/><rect class="cls-2" x="0.17" y="3.67" width="1016" height="1"/><g class="cls-3"><path class="cls-4" d="M558,134h0A130,130,0,0,0,388,304h0A130,130,0,1,0,558,134ZM398,254A110,110,0,0,1,536.63,147.79,70,70,0,0,1,468,204a10,10,0,0,0-10,10,70,70,0,0,1-56.21,68.63A109.76,109.76,0,0,1,398,254Zm46.83,90a110.73,110.73,0,0,1-36-42.43A90.07,90.07,0,0,0,477.5,223.5a90.07,90.07,0,0,0,78.07-68.67,110.73,110.73,0,0,1,42.43,36V194a70,70,0,0,1-70,70,10,10,0,0,0-10,10,70,70,0,0,1-70,70h-3.17ZM508,364a109.65,109.65,0,0,1-31.51-4.61,90.08,90.08,0,0,0,61-75.89,90.08,90.08,0,0,0,75.89-61A110,110,0,0,1,508,364Z"/></g><path class="cls-5" d="M508,384.5A130.5,130.5,0,1,1,638.5,254,130.65,130.65,0,0,1,508,384.5Zm0-260A129.5,129.5,0,1,0,637.5,254,129.65,129.65,0,0,0,508,124.5Z"/><path class="cls-5" d="M508,364.5A110.5,110.5,0,1,1,618.5,254,110.63,110.63,0,0,1,508,364.5Zm0-220A109.5,109.5,0,1,0,617.5,254,109.62,109.62,0,0,0,508,144.5Z"/><path class="cls-5" d="M528,284.5A90.5,90.5,0,1,1,618.5,194,90.6,90.6,0,0,1,528,284.5Zm0-180A89.5,89.5,0,1,0,617.5,194,89.6,89.6,0,0,0,528,104.5Z"/><path class="cls-5" d="M448,364.5A90.5,90.5,0,1,1,538.5,274,90.6,90.6,0,0,1,448,364.5Zm0-180A89.5,89.5,0,1,0,537.5,274,89.6,89.6,0,0,0,448,184.5Z"/><path class="cls-5" d="M448,344.5A70.5,70.5,0,1,1,518.5,274,70.58,70.58,0,0,1,448,344.5Zm0-140A69.5,69.5,0,1,0,517.5,274,69.58,69.58,0,0,0,448,204.5Z"/><path class="cls-5" d="M528,264.5A70.5,70.5,0,1,1,598.5,194,70.58,70.58,0,0,1,528,264.5Zm0-140A69.5,69.5,0,1,0,597.5,194,69.58,69.58,0,0,0,528,124.5Z"/><path class="cls-5" d="M528,284.5A10.5,10.5,0,1,1,538.5,274,10.51,10.51,0,0,1,528,284.5Zm0-20a9.5,9.5,0,1,0,9.5,9.5A9.51,9.51,0,0,0,528,264.5Z"/><path class="cls-5" d="M468,224.5A90.5,90.5,0,1,1,558.5,134,90.6,90.6,0,0,1,468,224.5Zm0-180A89.5,89.5,0,1,0,557.5,134,89.6,89.6,0,0,0,468,44.5Z"/><path class="cls-5" d="M388,304.5A90.5,90.5,0,1,1,478.5,214,90.6,90.6,0,0,1,388,304.5Zm0-180A89.5,89.5,0,1,0,477.5,214,89.6,89.6,0,0,0,388,124.5Z"/><path class="cls-5" d="M388,284.5A70.5,70.5,0,1,1,458.5,214,70.58,70.58,0,0,1,388,284.5Zm0-140A69.5,69.5,0,1,0,457.5,214,69.58,69.58,0,0,0,388,144.5Z"/><path class="cls-5" d="M468,204.5A70.5,70.5,0,1,1,538.5,134,70.58,70.58,0,0,1,468,204.5Zm0-140A69.5,69.5,0,1,0,537.5,134,69.58,69.58,0,0,0,468,64.5Z"/><path class="cls-5" d="M468,224.5A10.5,10.5,0,1,1,478.5,214,10.51,10.51,0,0,1,468,224.5Zm0-20a9.5,9.5,0,1,0,9.5,9.5A9.51,9.51,0,0,0,468,204.5Z"/></svg>