<?xml version="1.0" encoding="UTF-8" standalone="no"?>
<svg width="840px" height="106px" viewBox="0 0 840 106" version="1.1" xmlns="http://www.w3.org/2000/svg" xmlns:xlink="http://www.w3.org/1999/xlink">
    <!-- Generator: Sketch 40.3 (33839) - http://www.bohemiancoding.com/sketch -->
    <title>Page 1</title>
    <desc>Created with Sketch.</desc>
    <defs>
        <polygon id="path-1" points="0 0 0 7.35430917 7.09702094 7.35430917 7.09702094 0"></polygon>
        <polygon id="path-3" points="0 0 0 7.35430917 7.09702094 7.35430917 7.09702094 0"></polygon>
    </defs>
    <g id="Page-1" stroke="none" stroke-width="1" fill="none" fill-rule="evenodd">
        <g id="Project---KPCB" transform="translate(-300.000000, -1772.000000)">
            <g id="Page-1" transform="translate(300.000000, 1772.000000)">
                <path d="M223.95551,53.9316005 C223.721633,53.9316005 223.486531,53.8654118 223.277143,53.7256799 L149.807755,4.69695212 C149.245714,4.32188235 149.093878,3.56071135 149.468571,2.99688098 C149.843265,2.43427633 150.603673,2.28228728 151.166939,2.65735705 L224.636327,51.6860848 C225.198367,52.0611546 225.350204,52.8223256 224.97551,53.386156 C224.739184,53.7403885 224.35102,53.9316005 223.95551,53.9316005" id="Fill-1" fill="#82DCBF"></path>
                <path d="M150.486367,102.960328 C150.230449,102.960328 149.973306,102.880657 149.752898,102.715185 C149.211673,102.309472 149.101469,101.540947 149.508,100.999179 L222.977388,2.94172367 C223.382694,2.40118194 224.150449,2.29086731 224.691673,2.69658003 C225.231673,3.10229275 225.341878,3.87081806 224.936571,4.4125855 L151.467184,102.470041 C151.225959,102.791179 150.858612,102.960328 150.486367,102.960328" id="Fill-3" fill="#82DCBF"></path>
                <path d="M223.957592,102.960328 C223.585347,102.960328 223.218,102.791179 222.976776,102.470041 L149.507388,4.4125855 C149.102082,3.87081806 149.212286,3.10229275 149.752286,2.69658003 C150.29351,2.29086731 151.061265,2.40118194 151.466571,2.94172367 L224.935959,100.999179 C225.34249,101.540947 225.232286,102.309472 224.691061,102.715185 C224.470653,102.880657 224.21351,102.960328 223.957592,102.960328" id="Fill-5" fill="#82DCBF"></path>
                <path d="M150.488449,102.960328 C150.092939,102.960328 149.704776,102.769116 149.468449,102.414884 C149.093755,101.851053 149.245592,101.091108 149.807633,100.714813 L223.27702,51.6860848 C223.840286,51.3085636 224.600694,51.4617784 224.975388,52.0256088 C225.350082,52.5894391 225.198245,53.3506101 224.636204,53.7256799 L151.166816,102.754408 C150.957429,102.892914 150.721102,102.960328 150.488449,102.960328" id="Fill-7" fill="#82DCBF"></path>
                <path d="M223.956612,53.9316005 L150.487224,53.9316005 C149.811306,53.9316005 149.262735,53.3824788 149.262735,52.7058824 C149.262735,52.0292859 149.811306,51.4801642 150.487224,51.4801642 L223.956612,51.4801642 C224.632531,51.4801642 225.181102,52.0292859 225.181102,52.7058824 C225.181102,53.3824788 224.632531,53.9316005 223.956612,53.9316005" id="Fill-9" fill="#82DCBF"></path>
                <path d="M223.956612,53.9316005 L150.487224,53.9316005 C149.811306,53.9316005 149.262735,53.3824788 149.262735,52.7058824 C149.262735,52.0292859 149.811306,51.4801642 150.487224,51.4801642 L223.956612,51.4801642 C224.632531,51.4801642 225.181102,52.0292859 225.181102,52.7058824 C225.181102,53.3824788 224.632531,53.9316005 223.956612,53.9316005" id="Fill-11" fill="#82DCBF"></path>
                <path d="M223.956612,102.960328 L150.487224,102.960328 C149.811306,102.960328 149.262735,102.412432 149.262735,101.73461 L149.262735,3.67715458 C149.262735,3.00055814 149.811306,2.45143639 150.487224,2.45143639 L223.956612,2.45143639 C224.632531,2.45143639 225.181102,3.00055814 225.181102,3.67715458 C225.181102,4.35375103 224.632531,4.90287278 223.956612,4.90287278 L151.711714,4.90287278 L151.711714,100.508892 L223.956612,100.508892 C224.632531,100.508892 225.181102,101.056788 225.181102,101.73461 C225.181102,102.412432 224.632531,102.960328 223.956612,102.960328" id="Fill-13" fill="#FFFFFF"></path>
                <path d="M223.956612,53.9316005 L150.487224,53.9316005 C149.811306,53.9316005 149.262735,53.3824788 149.262735,52.7058824 C149.262735,52.0292859 149.811306,51.4801642 150.487224,51.4801642 L223.956612,51.4801642 C224.632531,51.4801642 225.181102,52.0292859 225.181102,52.7058824 C225.181102,53.3824788 224.632531,53.9316005 223.956612,53.9316005" id="Fill-15" fill="#FFFFFF"></path>
                <path d="M150.487224,7.35430917 C155.21498,7.35430917 155.222327,0 150.487224,0 C145.759469,0 145.752122,7.35430917 150.487224,7.35430917" id="Fill-17" fill="#FFFFFF"></path>
                <path d="M223.956612,7.35430917 C228.684367,7.35430917 228.691714,0 223.956612,0 C219.228857,0 219.22151,7.35430917 223.956612,7.35430917" id="Fill-19" fill="#FFFFFF"></path>
                <path d="M223.956612,56.3830369 C228.684367,56.3830369 228.691714,49.0287278 223.956612,49.0287278 C219.228857,49.0287278 219.22151,56.3830369 223.956612,56.3830369" id="Fill-21" fill="#FFFFFF"></path>
                <path d="M150.487224,56.3830369 C155.21498,56.3830369 155.222327,49.0287278 150.487224,49.0287278 C145.759469,49.0287278 145.752122,56.3830369 150.487224,56.3830369" id="Fill-23" fill="#FFFFFF"></path>
                <path d="M150.487224,105.411765 C155.21498,105.411765 155.222327,98.0574555 150.487224,98.0574555 C145.759469,98.0574555 145.752122,105.411765 150.487224,105.411765" id="Fill-25" fill="#FFFFFF"></path>
                <path d="M223.956612,105.411765 C228.684367,105.411765 228.691714,98.0574555 223.956612,98.0574555 C219.228857,98.0574555 219.22151,105.411765 223.956612,105.411765" id="Fill-27" fill="#FFFFFF"></path>
                <path d="M3.54832653,29.4178495 C3.03526531,29.4178495 2.55771429,29.0930342 2.38628571,28.5794583 C2.17322449,27.9371819 2.5197551,27.2434254 3.16138776,27.0289248 L76.6307755,2.51456088 C77.2724082,2.29883447 77.9654694,2.64693844 78.1797551,3.28921477 C78.3928163,3.93149111 78.0462857,4.62524761 77.4046531,4.83974829 L3.93526531,29.3541122 C3.80669388,29.3970123 3.67689796,29.4178495 3.54832653,29.4178495" id="Fill-29" fill="#82DCBF"></path>
                <path d="M77.0180816,102.960328 C76.8895102,102.960328 76.7597143,102.939491 76.6311429,102.896591 L3.1617551,78.3834528 C2.52012245,78.1689521 2.17359184,77.4751956 2.38665306,76.8329193 C2.60093878,76.190643 3.294,75.8437647 3.93563265,76.0570397 L77.4050204,100.572629 C78.0466531,100.785904 78.3931837,101.479661 78.1801224,102.121937 C78.0086939,102.635513 77.5311429,102.960328 77.0180816,102.960328" id="Fill-31" fill="#82DCBF"></path>
                <path d="M77.0178367,102.960328 C76.7043673,102.960328 76.390898,102.840208 76.1521224,102.601193 L2.68273469,29.0581012 C2.20395918,28.5788454 2.20395918,27.8041915 2.68273469,27.3249357 C3.16028571,26.8456799 3.93661224,26.8456799 4.41416327,27.3249357 L77.883551,100.868027 C78.3623265,101.347283 78.3623265,102.121937 77.883551,102.601193 C77.6447755,102.840208 77.3313061,102.960328 77.0178367,102.960328" id="Fill-33" fill="#82DCBF"></path>
                <path d="M3.54844898,78.4459644 C3.23497959,78.4459644 2.9215102,78.325844 2.68273469,78.086829 C2.20395918,77.6075732 2.20395918,76.8329193 2.68273469,76.3536635 L76.1521224,2.81057182 C76.6296735,2.33131601 77.406,2.33131601 77.883551,2.81057182 C78.3623265,3.28982763 78.3623265,4.06448153 77.883551,4.54373735 L4.41416327,78.086829 C4.17538776,78.325844 3.86191837,78.4459644 3.54844898,78.4459644" id="Fill-35" fill="#82DCBF"></path>
                <path d="M101.507878,29.4178495 C101.379306,29.4178495 101.24951,29.3970123 101.120939,29.3541122 L27.651551,4.83974829 C27.0099184,4.62524761 26.6633878,3.93149111 26.876449,3.28921477 C27.0907347,2.64816416 27.7837959,2.29883447 28.4254286,2.51456088 L101.894816,27.0289248 C102.536449,27.2434254 102.88298,27.9371819 102.669918,28.5794583 C102.49849,29.0930342 102.020939,29.4178495 101.507878,29.4178495" id="Fill-37" fill="#82DCBF"></path>
                <path d="M28.0381224,102.960328 C27.5250612,102.960328 27.0475102,102.635513 26.8760816,102.121937 C26.6630204,101.479661 27.009551,100.785904 27.6511837,100.572629 L101.120571,76.0570397 C101.762204,75.8400876 102.455265,76.190643 102.669551,76.8329193 C102.882612,77.4751956 102.536082,78.1689521 101.894449,78.3834528 L28.4250612,102.896591 C28.2964898,102.939491 28.1666939,102.960328 28.0381224,102.960328" id="Fill-39" fill="#82DCBF"></path>
                <path d="M77.0178367,102.960328 L28.0382449,102.960328 C27.7137551,102.960328 27.4015102,102.831628 27.1725306,102.601193 L2.68273469,78.086829 C2.45253061,77.8576197 2.32395918,77.5450616 2.32395918,77.2202462 L2.32395918,28.1915185 C2.32395918,27.8667031 2.45253061,27.554145 2.68273469,27.3249357 L27.1725306,2.81057182 C27.4015102,2.5801368 27.7137551,2.45143639 28.0382449,2.45143639 L77.0178367,2.45143639 C77.3423265,2.45143639 77.6545714,2.5801368 77.883551,2.81057182 L102.373347,27.3249357 C102.852122,27.8041915 102.852122,28.5788454 102.373347,29.0581012 C101.895796,29.537357 101.119469,29.537357 100.641918,29.0581012 L76.510898,4.90287278 L28.5451837,4.90287278 L4.77293878,28.6989658 L4.77293878,76.7127989 L28.5451837,100.508892 L76.510898,100.508892 L100.641918,76.3536635 C101.119469,75.8744077 101.895796,75.8744077 102.373347,76.3536635 C102.852122,76.8329193 102.852122,77.6075732 102.373347,78.086829 L77.883551,102.601193 C77.6545714,102.831628 77.3423265,102.960328 77.0178367,102.960328" id="Fill-41" fill="#FFFFFF"></path>
                <path d="M28.0382449,7.35430917 C32.766,7.35430917 32.7733469,0 28.0382449,0 C23.3104898,0 23.3031429,7.35430917 28.0382449,7.35430917" id="Fill-43" fill="#FFFFFF"></path>
                <path d="M77.0178367,7.35430917 C81.7455918,7.35430917 81.7529388,0 77.0178367,0 C72.2900816,0 72.2827347,7.35430917 77.0178367,7.35430917" id="Fill-45" fill="#FFFFFF"></path>
                <g id="Group-49" transform="translate(0.000000, 24.514364)">
                    <mask id="mask-2" fill="white">
                        <use xlink:href="#path-1"></use>
                    </mask>
                    <g id="Clip-48"></g>
                    <path d="M3.54844898,7.35430917 C8.27620408,7.35430917 8.28355102,0 3.54844898,0 C-1.17930612,0 -1.18665306,7.35430917 3.54844898,7.35430917" id="Fill-47" fill="#FFFFFF" mask="url(#mask-2)"></path>
                </g>
                <g id="Group-52" transform="translate(0.000000, 73.543092)">
                    <mask id="mask-4" fill="white">
                        <use xlink:href="#path-3"></use>
                    </mask>
                    <g id="Clip-51"></g>
                    <path d="M3.54844898,7.35430917 C8.27620408,7.35430917 8.28355102,0 3.54844898,0 C-1.17930612,0 -1.18665306,7.35430917 3.54844898,7.35430917" id="Fill-50" fill="#FFFFFF" mask="url(#mask-4)"></path>
                </g>
                <path d="M28.0382449,105.411765 C32.766,105.411765 32.7733469,98.0574555 28.0382449,98.0574555 C23.3104898,98.0574555 23.3031429,105.411765 28.0382449,105.411765" id="Fill-53" fill="#FFFFFF"></path>
                <path d="M77.0178367,105.411765 C81.7455918,105.411765 81.7529388,98.0574555 77.0178367,98.0574555 C72.2900816,98.0574555 72.2827347,105.411765 77.0178367,105.411765" id="Fill-55" fill="#FFFFFF"></path>
                <path d="M101.507633,31.8686731 C106.235388,31.8686731 106.242735,24.5143639 101.507633,24.5143639 C96.7798776,24.5143639 96.7725306,31.8686731 101.507633,31.8686731" id="Fill-57" fill="#FFFFFF"></path>
                <path d="M101.507633,80.8974008 C106.235388,80.8974008 106.242735,73.5430917 101.507633,73.5430917 C96.7798776,73.5430917 96.7725306,80.8974008 101.507633,80.8974008" id="Fill-59" fill="#FFFFFF"></path>
                <path d="M272.935959,29.4178495 C272.422898,29.4178495 271.945347,29.0930342 271.775143,28.5794583 C271.560857,27.9371819 271.907388,27.2434254 272.54902,27.0289248 L346.018408,2.51456088 C346.658816,2.30128591 347.353102,2.64693844 347.567388,3.28921477 C347.781673,3.93149111 347.433918,4.62524761 346.792286,4.83974829 L273.322898,29.3541122 C273.195551,29.3970123 273.064531,29.4178495 272.935959,29.4178495" id="Fill-61" fill="#82DCBF"></path>
                <path d="M346.405959,102.960328 C346.277388,102.960328 346.146367,102.939491 346.01902,102.896591 L272.549633,78.3834528 C271.908,78.1689521 271.560245,77.4751956 271.774531,76.8329193 C271.988816,76.190643 272.684327,75.8449904 273.32351,76.0570397 L346.792898,100.572629 C347.434531,100.785904 347.781061,101.479661 347.566776,102.121937 C347.396571,102.635513 346.917796,102.960328 346.405959,102.960328" id="Fill-63" fill="#82DCBF"></path>
                <path d="M370.895755,29.4178495 C370.767184,29.4178495 370.636163,29.3970123 370.508816,29.3541122 L297.039429,4.83974829 C296.397796,4.62524761 296.050041,3.93149111 296.264327,3.28921477 C296.478612,2.64693844 297.174122,2.30128591 297.813306,2.51456088 L371.282694,27.0289248 C371.924327,27.2434254 372.270857,27.9371819 372.056571,28.5794583 C371.886367,29.0930342 371.407592,29.4178495 370.895755,29.4178495" id="Fill-65" fill="#82DCBF"></path>
                <path d="M297.425755,102.960328 C296.912694,102.960328 296.435143,102.635513 296.264939,102.121937 C296.050653,101.479661 296.397184,100.785904 297.038816,100.572629 L370.508204,76.0570397 C371.147388,75.842539 371.842898,76.190643 372.057184,76.8329193 C372.271469,77.4751956 371.923714,78.1689521 371.282082,78.3834528 L297.812694,102.896591 C297.685347,102.939491 297.554327,102.960328 297.425755,102.960328" id="Fill-67" fill="#82DCBF"></path>
                <path d="M272.936571,78.4459644 C272.808,78.4459644 272.67698,78.4263529 272.549633,78.3834528 C271.908,78.1689521 271.560245,77.4751956 271.774531,76.8329193 L296.264327,3.28982763 C296.478612,2.6475513 297.174122,2.30189877 297.813306,2.51394802 C298.454939,2.7284487 298.801469,3.4222052 298.587184,4.06448153 L274.097388,77.6075732 C273.927184,78.1211491 273.448408,78.4459644 272.936571,78.4459644" id="Fill-69" fill="#82DCBF"></path>
                <path d="M297.425755,102.960328 C296.912694,102.960328 296.435143,102.635513 296.264939,102.121937 L271.775143,28.5788454 C271.560857,27.9365691 271.907388,27.2428126 272.54902,27.0283119 C273.189429,26.8150369 273.883714,27.1619152 274.098,27.8041915 L298.587796,101.347283 C298.802082,101.98956 298.454327,102.683316 297.812694,102.896591 C297.685347,102.939491 297.554327,102.960328 297.425755,102.960328" id="Fill-71" fill="#82DCBF"></path>
                <path d="M370.895143,78.4459644 C370.382082,78.4459644 369.904531,78.1211491 369.734327,77.6075732 L345.244531,4.06448153 C345.030245,3.4222052 345.376776,2.7284487 346.018408,2.51394802 C346.658816,2.30067305 347.353102,2.6475513 347.567388,3.28982763 L372.057184,76.8329193 C372.271469,77.4751956 371.923714,78.1689521 371.282082,78.3834528 C371.154735,78.4263529 371.023714,78.4459644 370.895143,78.4459644" id="Fill-73" fill="#82DCBF"></path>
                <path d="M346.405959,102.960328 C346.277388,102.960328 346.146367,102.939491 346.01902,102.896591 C345.377388,102.683316 345.029633,101.98956 345.243918,101.347283 L369.733714,27.8041915 C369.948,27.1619152 370.64351,26.8162627 371.282694,27.0283119 C371.924327,27.2428126 372.270857,27.9365691 372.056571,28.5788454 L347.566776,102.121937 C347.396571,102.635513 346.917796,102.960328 346.405959,102.960328" id="Fill-75" fill="#82DCBF"></path>
                <path d="M297.933306,100.508892 L345.897796,100.508892 L369.671265,76.7127989 L369.671265,28.6989658 L345.897796,4.90287278 L297.933306,4.90287278 L274.161061,28.6989658 L274.161061,76.7127989 L297.933306,100.508892 Z M346.405959,102.960328 L297.426367,102.960328 C297.101878,102.960328 296.789633,102.831628 296.560653,102.601193 L272.070857,78.086829 C271.840653,77.8576197 271.712082,77.5450616 271.712082,77.2202462 L271.712082,28.1915185 C271.712082,27.8667031 271.840653,27.554145 272.070857,27.3249357 L296.560653,2.81057182 C296.789633,2.5801368 297.101878,2.45143639 297.426367,2.45143639 L346.405959,2.45143639 C346.730449,2.45143639 347.041469,2.5801368 347.271673,2.81057182 L371.761469,27.3249357 C371.990449,27.554145 372.120245,27.8667031 372.120245,28.1915185 L372.120245,77.2202462 C372.120245,77.5450616 371.990449,77.8576197 371.761469,78.086829 L347.271673,102.601193 C347.041469,102.831628 346.730449,102.960328 346.405959,102.960328 L346.405959,102.960328 Z" id="Fill-77" fill="#FFFFFF"></path>
                <path d="M297.426,7.35430917 C302.153755,7.35430917 302.161102,0 297.426,0 C292.698245,0 292.690898,7.35430917 297.426,7.35430917" id="Fill-79" fill="#FFFFFF"></path>
                <path d="M346.405592,7.35430917 C351.133347,7.35430917 351.140694,0 346.405592,0 C341.677837,0 341.67049,7.35430917 346.405592,7.35430917" id="Fill-81" fill="#FFFFFF"></path>
                <path d="M272.936204,31.8686731 C277.663959,31.8686731 277.671306,24.5143639 272.936204,24.5143639 C268.208449,24.5143639 268.201102,31.8686731 272.936204,31.8686731" id="Fill-83" fill="#FFFFFF"></path>
                <path d="M272.936204,80.8974008 C277.663959,80.8974008 277.671306,73.5430917 272.936204,73.5430917 C268.208449,73.5430917 268.201102,80.8974008 272.936204,80.8974008" id="Fill-85" fill="#FFFFFF"></path>
                <path d="M297.426,105.411765 C302.153755,105.411765 302.161102,98.0574555 297.426,98.0574555 C292.698245,98.0574555 292.690898,105.411765 297.426,105.411765" id="Fill-87" fill="#FFFFFF"></path>
                <path d="M346.405592,105.411765 C351.133347,105.411765 351.140694,98.0574555 346.405592,98.0574555 C341.677837,98.0574555 341.67049,105.411765 346.405592,105.411765" id="Fill-89" fill="#FFFFFF"></path>
                <path d="M370.895388,31.8686731 C375.623143,31.8686731 375.63049,24.5143639 370.895388,24.5143639 C366.167633,24.5143639 366.160286,31.8686731 370.895388,31.8686731" id="Fill-91" fill="#FFFFFF"></path>
                <path d="M370.895388,80.8974008 C375.623143,80.8974008 375.63049,73.5430917 370.895388,73.5430917 C366.167633,73.5430917 366.160286,80.8974008 370.895388,80.8974008" id="Fill-93" fill="#FFFFFF"></path>
                <polygon id="Fill-95" fill="#FFFFFF" points="462.657429 77.2202462 450.902327 35.0825062 439.148449 77.2202462 434.446408 77.2202462 420.413755 28.1682298 425.115796 28.1682298 436.944367 71.3367989 448.993347 28.1682298 452.812531 28.1682298 464.788041 71.3367989 476.615388 28.1682298 481.317429 28.1682298 467.359469 77.2202462"></polygon>
                <path d="M531.644939,52.7316224 C531.644939,40.3028399 524.004122,31.1834966 512.24902,31.1834966 C500.421673,31.1834966 492.854327,40.3028399 492.854327,52.7316224 C492.854327,65.0868618 500.421673,74.2785226 512.24902,74.2785226 C524.004122,74.2785226 531.644939,65.0868618 531.644939,52.7316224 M488.446163,52.7316224 C488.446163,38.3907196 497.84902,27.3604815 512.24902,27.3604815 C526.574327,27.3604815 536.053102,38.3907196 536.053102,52.7316224 C536.053102,67.0712996 526.574327,78.1027633 512.24902,78.1027633 C497.84902,78.1027633 488.446163,67.0712996 488.446163,52.7316224" id="Fill-97" fill="#FFFFFF"></path>
                <path d="M578.151673,42.5093778 C578.151673,36.3317581 573.81698,31.9927157 567.278204,31.9927157 L553.539429,31.9927157 L553.539429,53.099583 L567.278204,53.099583 C573.81698,53.099583 578.151673,48.6869975 578.151673,42.5093778 L578.151673,42.5093778 Z M578.07698,77.2204914 L564.340653,56.9225981 L553.539429,56.9225981 L553.539429,77.2204914 L549.351673,77.2204914 L549.351673,28.168475 L567.645551,28.168475 C576.094531,28.168475 582.559837,33.5371207 582.559837,42.5093778 C582.559837,51.4080919 576.314939,56.3354791 568.968,56.6296514 L583.147592,77.2204914 L578.07698,77.2204914 Z" id="Fill-99" fill="#FFFFFF"></path>
                <polygon id="Fill-101" fill="#FFFFFF" points="625.75849 77.2202462 605.555633 54.1289412 600.118898 60.0859316 600.118898 77.2202462 595.931143 77.2202462 595.931143 28.1682298 600.118898 28.1682298 600.118898 55.0114583 623.774816 28.1682298 629.138082 28.1682298 608.274 51.554933 631.121755 77.2202462"></polygon>
                <path d="M639.205224,70.3076859 L641.923592,67.145333 C645.082776,70.7489445 650.225633,74.2790129 657.278694,74.2790129 C667.269306,74.2790129 670.134612,68.6897379 670.134612,64.4977817 C670.134612,50.0833357 640.748082,57.5847311 640.748082,40.4504164 C640.748082,32.4342194 647.948082,27.3597461 656.836653,27.3597461 C664.110122,27.3597461 669.693796,29.9337543 673.440735,34.2727967 L670.648898,37.3616066 C667.122367,33.0961073 662.127673,31.1839869 656.617469,31.1839869 C650.078694,31.1839869 645.156245,34.9346845 645.156245,40.2297871 C645.156245,52.8056558 674.542776,45.8926052 674.542776,64.2036093 C674.542776,70.5283152 670.35502,78.1020279 657.131755,78.1020279 C649.050122,78.1020279 642.952163,74.7938145 639.205224,70.3076859" id="Fill-103" fill="#FFFFFF"></path>
                <polygon id="Fill-105" fill="#FFFFFF" points="722.810082 77.2202462 722.810082 53.9083119 691.733755 53.9083119 691.733755 77.2202462 687.546 77.2202462 687.546 28.1682298 691.733755 28.1682298 691.733755 50.0840711 722.810082 50.0840711 722.810082 28.1682298 726.997837 28.1682298 726.997837 77.2202462"></polygon>
                <path d="M783.496531,52.7316224 C783.496531,40.3028399 775.855714,31.1834966 764.100612,31.1834966 C752.273265,31.1834966 744.705918,40.3028399 744.705918,52.7316224 C744.705918,65.0868618 752.273265,74.2785226 764.100612,74.2785226 C775.855714,74.2785226 783.496531,65.0868618 783.496531,52.7316224 M740.297755,52.7316224 C740.297755,38.3907196 749.700612,27.3604815 764.100612,27.3604815 C778.425918,27.3604815 787.904694,38.3907196 787.904694,52.7316224 C787.904694,67.0712996 778.425918,78.1027633 764.100612,78.1027633 C749.700612,78.1027633 740.297755,67.0712996 740.297755,52.7316224" id="Fill-107" fill="#FFFFFF"></path>
                <path d="M829.927837,42.5093778 C829.927837,36.3317581 825.667837,31.9927157 819.129061,31.9927157 L805.390286,31.9927157 L805.390286,53.0260399 L819.129061,53.0260399 C825.667837,53.0260399 829.927837,48.6134544 829.927837,42.5093778 L829.927837,42.5093778 Z M801.202531,77.2204914 L801.202531,28.168475 L819.569878,28.168475 C828.973959,28.168475 834.337224,34.7873532 834.337224,42.5093778 C834.337224,50.2314025 828.899265,56.8502807 819.569878,56.8502807 L805.390286,56.8502807 L805.390286,77.2204914 L801.202531,77.2204914 Z" id="Fill-109" fill="#FFFFFF"></path>
                <path d="M419.87498,105.411765 C424.602735,105.411765 424.610082,98.0574555 419.87498,98.0574555 C415.147224,98.0574555 415.139878,105.411765 419.87498,105.411765" id="Fill-111" fill="#FFFFFF"></path>
                <path d="M836.20151,105.411765 C840.929265,105.411765 840.936612,98.0574555 836.20151,98.0574555 C831.473755,98.0574555 831.466408,105.411765 836.20151,105.411765" id="Fill-113" fill="#FFFFFF"></path>
                <path d="M836.20151,102.960328 L419.87498,102.960328 C419.199061,102.960328 418.65049,102.412432 418.65049,101.73461 C418.65049,101.056788 419.199061,100.508892 419.87498,100.508892 L836.20151,100.508892 C836.877429,100.508892 837.426,101.056788 837.426,101.73461 C837.426,102.412432 836.877429,102.960328 836.20151,102.960328" id="Fill-115" fill="#FFFFFF"></path>
                <path d="M419.87498,105.411765 C424.602735,105.411765 424.610082,98.0574555 419.87498,98.0574555 C415.147224,98.0574555 415.139878,105.411765 419.87498,105.411765" id="Fill-117" fill="#FFFFFF"></path>
                <path d="M836.20151,105.411765 C840.929265,105.411765 840.936612,98.0574555 836.20151,98.0574555 C831.473755,98.0574555 831.466408,105.411765 836.20151,105.411765" id="Fill-119" fill="#FFFFFF"></path>
                <path d="M419.87498,7.35430917 C424.602735,7.35430917 424.610082,0 419.87498,0 C415.147224,0 415.139878,7.35430917 419.87498,7.35430917" id="Fill-121" fill="#FFFFFF"></path>
                <path d="M836.20151,7.35430917 C840.929265,7.35430917 840.936612,0 836.20151,0 C831.473755,0 831.466408,7.35430917 836.20151,7.35430917" id="Fill-123" fill="#FFFFFF"></path>
                <path d="M836.20151,4.90287278 L419.87498,4.90287278 C419.199061,4.90287278 418.65049,4.35375103 418.65049,3.67715458 C418.65049,3.00055814 419.199061,2.45143639 419.87498,2.45143639 L836.20151,2.45143639 C836.877429,2.45143639 837.426,3.00055814 837.426,3.67715458 C837.426,4.35375103 836.877429,4.90287278 836.20151,4.90287278" id="Fill-125" fill="#FFFFFF"></path>
                <path d="M419.87498,7.35430917 C424.602735,7.35430917 424.610082,0 419.87498,0 C415.147224,0 415.139878,7.35430917 419.87498,7.35430917" id="Fill-127" fill="#FFFFFF"></path>
                <path d="M836.20151,7.35430917 C840.929265,7.35430917 840.936612,0 836.20151,0 C831.473755,0 831.466408,7.35430917 836.20151,7.35430917" id="Fill-129" fill="#FFFFFF"></path>
            </g>
        </g>
    </g>
</svg>