<?xml version="1.0" encoding="UTF-8" standalone="no"?>
<svg width="743px" height="67px" viewBox="0 0 743 67" version="1.1" xmlns="http://www.w3.org/2000/svg" xmlns:xlink="http://www.w3.org/1999/xlink">
    <!-- Generator: Sketch 40.3 (33839) - http://www.bohemiancoding.com/sketch -->
    <title>text-upchannel-proximabold</title>
    <desc>Created with Sketch.</desc>
    <defs></defs>
    <g id="Page-1" stroke="none" stroke-width="1" fill="none" fill-rule="evenodd">
        <g id="Project---Redspread" transform="translate(-394.000000, -3718.000000)" fill="#666666">
            <path d="M402.436002,3733.99999 L424.684006,3766.868 C426.232006,3769.172 427.384006,3770.288 429.220007,3770.288 C430.408007,3770.288 431.380007,3769.856 432.172007,3769.064 C433.036007,3768.2 433.288007,3767.048 433.288007,3765.356 L433.288007,3723.73999 C433.288007,3721.83199 433.252007,3721.21999 432.712007,3720.21199 C432.136007,3719.16799 430.948007,3718.44799 429.400007,3718.44799 C427.852007,3718.44799 426.664006,3719.16799 426.088006,3720.21199 C425.548006,3721.21999 425.512006,3721.83199 425.512006,3723.73999 L425.512006,3754.736 L403.264003,3721.86799 C401.716002,3719.56399 400.564002,3718.44799 398.728002,3718.44799 C397.540002,3718.44799 396.568001,3718.87999 395.776001,3719.67199 C394.912001,3720.53599 394.660001,3721.72399 394.660001,3723.41599 L394.660001,3764.996 C394.660001,3766.904 394.696001,3767.516 395.236001,3768.524 C395.812001,3769.568 397.000001,3770.288 398.548002,3770.288 C400.096002,3770.288 401.284002,3769.568 401.860002,3768.524 C402.400002,3767.516 402.436002,3766.904 402.436002,3764.996 L402.436002,3733.99999 Z M443.908001,3751.748 C443.908001,3765.644 451.252002,3770.432 460.360003,3770.432 C464.284004,3770.432 467.596005,3769.604 469.900005,3768.092 C471.700005,3766.94 473.572006,3765.356 473.572006,3763.664 C473.572006,3761.972 472.024005,3760.532 470.548005,3760.532 C469.612005,3760.532 468.676005,3760.964 467.560005,3761.864 C465.580004,3763.448 463.096004,3764.168 460.540003,3764.168 C454.456002,3764.168 451.180002,3760.1 451.180002,3753.872 L470.584005,3753.872 C471.664005,3753.872 472.888005,3753.872 473.824006,3752.936 C474.724006,3752.036 474.868006,3750.74 474.832006,3749.66 C474.616006,3740.012 468.928005,3733.06399 459.388003,3733.06399 C450.064002,3733.06399 443.908001,3739.724 443.908001,3751.748 L443.908001,3751.748 Z M467.596005,3748.76 L451.180002,3748.76 C451.252002,3746.528 451.396002,3745.376 452.116002,3743.792 C453.340002,3741.056 455.860003,3739.18399 459.388003,3739.18399 C462.844004,3739.18399 465.364004,3741.056 466.588004,3743.792 C467.308004,3745.376 467.452005,3746.528 467.596005,3748.76 L467.596005,3748.76 Z M481.636,3759.272 C481.636,3762.368 482.680001,3765.176 484.552001,3767.084 C486.748001,3769.352 489.808002,3770.396 494.380003,3770.396 C498.844003,3770.396 501.292004,3769.424 504.172004,3766.616 C504.244004,3768.164 504.568004,3768.74 505.000004,3769.244 C505.576004,3769.856 506.476005,3770.288 507.664005,3770.288 C509.068005,3770.288 510.256005,3769.604 510.796005,3768.596 C511.264005,3767.768 511.336005,3767.084 511.336005,3765.284 L511.336005,3745.628 C511.336005,3737.34799 506.188005,3733.06399 496.396003,3733.06399 C492.616002,3733.06399 489.664002,3733.78399 487.108001,3735.25999 C485.236001,3736.33999 483.688001,3737.81599 483.688001,3739.47199 C483.688001,3740.444 483.940001,3741.056 484.552001,3741.74 C485.092001,3742.388 485.920001,3742.712 486.676001,3742.712 C487.360001,3742.712 488.404002,3742.46 489.340002,3741.74 C491.464002,3740.12 493.408002,3739.29199 496.324003,3739.29199 C501.688004,3739.29199 503.956004,3741.632 503.956004,3746.42 L503.956004,3748.688 L494.272003,3748.688 C485.992001,3748.688 481.636,3753.152 481.636,3759.272 L481.636,3759.272 Z M488.800002,3759.164 C488.800002,3755.78 490.996002,3753.908 495.316003,3753.908 L503.956004,3753.908 L503.956004,3756.788 C503.956004,3759.488 503.488004,3761.144 502.336004,3762.224 C500.464004,3764.024 498.304003,3764.312 495.676003,3764.312 C491.032002,3764.312 488.800002,3762.476 488.800002,3759.164 L488.800002,3759.164 Z M524.152001,3759.884 C524.152001,3765.248 527.176002,3770 534.052003,3770 L534.772003,3770 C536.248003,3770 537.220003,3769.784 537.868003,3769.424 C538.732004,3768.956 539.344004,3768.092 539.344004,3766.868 C539.344004,3765.644 538.732004,3764.744 537.868003,3764.276 C537.220003,3763.916 536.392003,3763.808 535.204003,3763.772 C532.504003,3763.7 531.496002,3762.08 531.496002,3759.56 L531.496002,3739.11199 L535.456003,3739.11199 C536.824003,3739.11199 537.364003,3739.03999 538.012003,3738.67999 C538.840004,3738.21199 539.308004,3737.38399 539.308004,3736.30399 C539.308004,3735.22399 538.840004,3734.39599 538.012003,3733.92799 C537.364003,3733.56799 536.824003,3733.49599 535.456003,3733.49599 L531.496002,3733.49599 L531.496002,3727.77199 C531.496002,3726.00799 531.388002,3725.35999 530.956002,3724.49599 C530.452002,3723.52399 529.408002,3722.76799 527.824002,3722.76799 C526.240002,3722.76799 525.196001,3723.52399 524.692001,3724.49599 C524.260001,3725.35999 524.152001,3726.00799 524.152001,3727.77199 L524.152001,3733.49599 L522.460001,3733.49599 C521.092001,3733.49599 520.552001,3733.56799 519.904001,3733.92799 C519.076,3734.39599 518.608,3735.22399 518.608,3736.30399 C518.608,3737.38399 519.076,3738.21199 519.904001,3738.67999 C520.552001,3739.03999 521.092001,3739.11199 522.460001,3739.11199 L524.152001,3739.11199 L524.152001,3759.884 Z M562.384,3759.272 C562.384,3762.368 563.428001,3765.176 565.300001,3767.084 C567.496001,3769.352 570.556002,3770.396 575.128003,3770.396 C579.592003,3770.396 582.040004,3769.424 584.920004,3766.616 C584.992004,3768.164 585.316004,3768.74 585.748004,3769.244 C586.324004,3769.856 587.224005,3770.288 588.412005,3770.288 C589.816005,3770.288 591.004005,3769.604 591.544005,3768.596 C592.012005,3767.768 592.084005,3767.084 592.084005,3765.284 L592.084005,3745.628 C592.084005,3737.34799 586.936005,3733.06399 577.144003,3733.06399 C573.364002,3733.06399 570.412002,3733.78399 567.856001,3735.25999 C565.984001,3736.33999 564.436001,3737.81599 564.436001,3739.47199 C564.436001,3740.444 564.688001,3741.056 565.300001,3741.74 C565.840001,3742.388 566.668001,3742.712 567.424001,3742.712 C568.108001,3742.712 569.152002,3742.46 570.088002,3741.74 C572.212002,3740.12 574.156002,3739.29199 577.072003,3739.29199 C582.436004,3739.29199 584.704004,3741.632 584.704004,3746.42 L584.704004,3748.688 L575.020003,3748.688 C566.740001,3748.688 562.384,3753.152 562.384,3759.272 L562.384,3759.272 Z M569.548002,3759.164 C569.548002,3755.78 571.744002,3753.908 576.064003,3753.908 L584.704004,3753.908 L584.704004,3756.788 C584.704004,3759.488 584.236004,3761.144 583.084004,3762.224 C581.212004,3764.024 579.052003,3764.312 576.424003,3764.312 C571.780002,3764.312 569.548002,3762.476 569.548002,3759.164 L569.548002,3759.164 Z M610.732002,3747.752 C610.732002,3742.136 614.188003,3739.688 618.292003,3739.688 C622.396004,3739.688 625.636005,3742.064 625.636005,3747.752 L625.636005,3765.284 C625.636005,3767.048 625.744005,3767.696 626.176005,3768.56 C626.680005,3769.532 627.724005,3770.288 629.308005,3770.288 C630.892005,3770.288 631.936006,3769.532 632.440006,3768.56 C632.872006,3767.696 632.980006,3767.048 632.980006,3765.284 L632.980006,3746.672 C632.980006,3742.568 632.116006,3739.11199 629.308005,3736.37599 C627.148005,3734.28799 624.052004,3733.06399 620.308004,3733.06399 C616.672003,3733.06399 613.216003,3734.39599 610.696002,3737.05999 C610.624002,3735.72799 610.408002,3735.18799 610.048002,3734.64799 C609.364002,3733.67599 608.248002,3733.20799 607.060002,3733.20799 C605.836001,3733.20799 604.648001,3733.78399 604.036001,3734.75599 C603.532001,3735.58399 603.388001,3736.23199 603.388001,3738.24799 L603.388001,3765.284 C603.388001,3767.048 603.496001,3767.696 603.928001,3768.56 C604.432001,3769.532 605.476001,3770.288 607.060002,3770.288 C608.644002,3770.288 609.688002,3769.532 610.192002,3768.56 C610.624002,3767.696 610.732002,3767.048 610.732002,3765.284 L610.732002,3747.752 Z M672.400006,3723.45199 C672.400006,3721.68799 672.292006,3721.03999 671.860005,3720.17599 C671.356005,3719.20399 670.312005,3718.44799 668.728005,3718.44799 C667.144005,3718.44799 666.100005,3719.20399 665.596004,3720.17599 C665.164004,3721.03999 665.056004,3721.68799 665.056004,3723.45199 L665.056004,3737.16799 C662.392004,3733.99999 659.368003,3733.06399 655.480003,3733.06399 C651.808002,3733.06399 648.640002,3734.28799 646.624001,3736.30399 C643.096001,3739.904 642.592001,3745.736 642.592001,3751.712 C642.592001,3757.76 643.096001,3763.592 646.624001,3767.192 C648.640002,3769.208 651.880002,3770.432 655.552003,3770.432 C659.368003,3770.432 662.392004,3769.46 665.092004,3766.256 C665.164004,3767.768 665.344004,3768.308 665.740004,3768.848 C666.424005,3769.82 667.540005,3770.288 668.728005,3770.288 C669.952005,3770.288 671.140005,3769.712 671.752005,3768.74 C672.256006,3767.912 672.400006,3767.264 672.400006,3765.248 L672.400006,3723.45199 Z M649.936002,3751.748 C649.936002,3745.268 650.872002,3739.688 657.496003,3739.688 C664.156004,3739.688 665.092004,3745.268 665.092004,3751.748 C665.092004,3758.228 664.156004,3763.808 657.496003,3763.808 C650.872002,3763.808 649.936002,3758.228 649.936002,3751.748 L649.936002,3751.748 Z M726.148005,3753.08 L709.732002,3753.08 L717.940004,3730.65199 L726.148005,3753.08 Z M728.560005,3759.704 L731.116006,3766.58 C731.764006,3768.308 732.088006,3768.956 732.808006,3769.532 C733.384006,3770 734.104006,3770.288 734.932006,3770.288 C736.012007,3770.288 737.092007,3769.856 737.776007,3769.136 C739.252007,3767.624 738.784007,3766.004 738.028007,3763.988 L722.332004,3722.19199 C721.792004,3720.71599 721.396004,3720.10399 720.784004,3719.52799 C720.028004,3718.80799 719.164004,3718.44799 717.940004,3718.44799 C716.716003,3718.44799 715.852003,3718.80799 715.096003,3719.52799 C714.484003,3720.10399 714.088003,3720.71599 713.548003,3722.19199 L697.852,3763.988 C697.096,3766.004 696.628,3767.624 698.104,3769.136 C698.788001,3769.856 699.868001,3770.288 700.948001,3770.288 C701.776001,3770.288 702.496001,3770 703.072001,3769.532 C703.792001,3768.956 704.116001,3768.308 704.764002,3766.58 L707.320002,3759.704 L728.560005,3759.704 Z M746.740001,3783.284 C747.244001,3784.256 748.288001,3785.012 749.872002,3785.012 C751.456002,3785.012 752.500002,3784.256 753.004002,3783.284 C753.436002,3782.42 753.544002,3781.772 753.544002,3780.008 L753.544002,3766.292 C756.208003,3769.46 759.232003,3770.432 763.120004,3770.432 C766.792004,3770.432 769.960005,3769.172 771.976005,3767.156 C775.504006,3763.556 776.008006,3757.724 776.008006,3751.748 C776.008006,3745.7 775.504006,3739.868 771.976005,3736.26799 C769.960005,3734.25199 766.720004,3733.02799 763.048004,3733.02799 C759.196003,3733.02799 756.208003,3733.99999 753.508002,3737.20399 C753.436002,3735.72799 753.256002,3735.18799 752.860002,3734.61199 C752.176002,3733.63999 751.060002,3733.17199 749.872002,3733.17199 C748.648001,3733.17199 747.460001,3733.74799 746.848001,3734.71999 C746.344001,3735.54799 746.200001,3736.19599 746.200001,3738.21199 L746.200001,3780.008 C746.200001,3781.772 746.308001,3782.42 746.740001,3783.284 L746.740001,3783.284 Z M768.664005,3751.712 C768.664005,3758.192 767.728004,3763.808 761.104003,3763.808 C754.444002,3763.808 753.508002,3758.192 753.508002,3751.712 C753.508002,3745.232 754.444002,3739.652 761.104003,3739.652 C767.728004,3739.652 768.664005,3745.232 768.664005,3751.712 L768.664005,3751.712 Z M786.520001,3783.284 C787.024001,3784.256 788.068001,3785.012 789.652002,3785.012 C791.236002,3785.012 792.280002,3784.256 792.784002,3783.284 C793.216002,3782.42 793.324002,3781.772 793.324002,3780.008 L793.324002,3766.292 C795.988003,3769.46 799.012003,3770.432 802.900004,3770.432 C806.572004,3770.432 809.740005,3769.172 811.756005,3767.156 C815.284006,3763.556 815.788006,3757.724 815.788006,3751.748 C815.788006,3745.7 815.284006,3739.868 811.756005,3736.26799 C809.740005,3734.25199 806.500004,3733.02799 802.828004,3733.02799 C798.976003,3733.02799 795.988003,3733.99999 793.288002,3737.20399 C793.216002,3735.72799 793.036002,3735.18799 792.640002,3734.61199 C791.956002,3733.63999 790.840002,3733.17199 789.652002,3733.17199 C788.428001,3733.17199 787.240001,3733.74799 786.628001,3734.71999 C786.124001,3735.54799 785.980001,3736.19599 785.980001,3738.21199 L785.980001,3780.008 C785.980001,3781.772 786.088001,3782.42 786.520001,3783.284 L786.520001,3783.284 Z M808.444005,3751.712 C808.444005,3758.192 807.508004,3763.808 800.884003,3763.808 C794.224002,3763.808 793.288002,3758.192 793.288002,3751.712 C793.288002,3745.232 794.224002,3739.652 800.884003,3739.652 C807.508004,3739.652 808.444005,3745.232 808.444005,3751.712 L808.444005,3751.712 Z M833.068002,3737.31199 C832.996002,3735.76399 832.816002,3735.22399 832.420002,3734.64799 C831.736002,3733.67599 830.620002,3733.20799 829.432002,3733.20799 C828.208001,3733.20799 827.020001,3733.78399 826.408001,3734.75599 C825.904001,3735.58399 825.760001,3736.23199 825.760001,3738.24799 L825.760001,3765.284 C825.760001,3767.048 825.868001,3767.696 826.300001,3768.56 C826.804001,3769.532 827.848001,3770.288 829.432002,3770.288 C831.016002,3770.288 832.060002,3769.532 832.564002,3768.56 C832.996002,3767.696 833.104002,3767.048 833.104002,3765.284 L833.104002,3747.86 C833.104002,3742.784 836.380003,3739.688 840.556003,3739.688 C841.996004,3739.688 843.292004,3740.084 844.516004,3740.768 C845.776004,3741.488 846.604004,3741.74 847.360004,3741.74 C848.296005,3741.74 849.268005,3741.344 849.880005,3740.732 C850.528005,3740.084 850.960005,3739.11199 850.960005,3738.06799 C850.960005,3736.66399 850.024005,3735.58399 848.764005,3734.75599 C847.000004,3733.56799 845.056004,3733.06399 842.356004,3733.06399 C838.540003,3733.06399 835.120002,3734.75599 833.068002,3737.31199 L833.068002,3737.31199 Z M861.220002,3751.748 C861.220002,3747.752 861.544002,3744.008 863.740002,3741.776 C865.108003,3740.372 866.836003,3739.688 869.068003,3739.688 C871.300004,3739.688 873.028004,3740.372 874.396004,3741.776 C876.592004,3744.008 876.916004,3747.752 876.916004,3751.748 C876.916004,3755.744 876.592004,3759.524 874.396004,3761.72 C873.028004,3763.124 871.300004,3763.808 869.068003,3763.808 C866.836003,3763.808 865.108003,3763.124 863.740002,3761.72 C861.544002,3759.524 861.220002,3755.744 861.220002,3751.748 L861.220002,3751.748 Z M853.876001,3751.748 C853.876001,3757.904 854.596001,3762.44 858.160001,3766.112 C860.536002,3768.56 864.100002,3770.432 869.068003,3770.432 C874.036004,3770.432 877.600005,3768.56 879.976005,3766.112 C883.504006,3762.44 884.260006,3757.904 884.260006,3751.748 C884.260006,3745.592 883.504006,3741.056 879.976005,3737.38399 C877.600005,3734.93599 874.036004,3733.06399 869.068003,3733.06399 C864.100002,3733.06399 860.536002,3734.93599 858.160001,3737.38399 C854.596001,3741.056 853.876001,3745.592 853.876001,3751.748 L853.876001,3751.748 Z M891.388,3759.272 C891.388,3762.368 892.432001,3765.176 894.304001,3767.084 C896.500001,3769.352 899.560002,3770.396 904.132003,3770.396 C908.596003,3770.396 911.044004,3769.424 913.924004,3766.616 C913.996004,3768.164 914.320004,3768.74 914.752004,3769.244 C915.328004,3769.856 916.228005,3770.288 917.416005,3770.288 C918.820005,3770.288 920.008005,3769.604 920.548005,3768.596 C921.016005,3767.768 921.088005,3767.084 921.088005,3765.284 L921.088005,3745.628 C921.088005,3737.34799 915.940005,3733.06399 906.148003,3733.06399 C902.368002,3733.06399 899.416002,3733.78399 896.860001,3735.25999 C894.988001,3736.33999 893.440001,3737.81599 893.440001,3739.47199 C893.440001,3740.444 893.692001,3741.056 894.304001,3741.74 C894.844001,3742.388 895.672001,3742.712 896.428001,3742.712 C897.112001,3742.712 898.156002,3742.46 899.092002,3741.74 C901.216002,3740.12 903.160002,3739.29199 906.076003,3739.29199 C911.440004,3739.29199 913.708004,3741.632 913.708004,3746.42 L913.708004,3748.688 L904.024003,3748.688 C895.744001,3748.688 891.388,3753.152 891.388,3759.272 L891.388,3759.272 Z M898.552002,3759.164 C898.552002,3755.78 900.748002,3753.908 905.068003,3753.908 L913.708004,3753.908 L913.708004,3756.788 C913.708004,3759.488 913.240004,3761.144 912.088004,3762.224 C910.216004,3764.024 908.056003,3764.312 905.428003,3764.312 C900.784002,3764.312 898.552002,3762.476 898.552002,3759.164 L898.552002,3759.164 Z M930.520001,3751.748 C930.520001,3765.428 938.440002,3770.432 946.720003,3770.432 C950.068004,3770.432 952.408004,3769.604 954.712005,3768.128 C956.548005,3766.94 958.276005,3765.572 958.276005,3763.736 C958.276005,3762.8 957.880005,3762.008 957.232005,3761.324 C956.692005,3760.784 955.828005,3760.352 954.964005,3760.352 C953.992004,3760.352 953.272004,3760.784 952.048004,3761.756 C950.212004,3763.196 948.736004,3763.808 946.720003,3763.808 C943.840003,3763.808 941.644002,3762.764 940.060002,3760.64 C938.476002,3758.588 937.864002,3755.96 937.864002,3751.748 C937.864002,3747.5 938.476002,3744.908 940.060002,3742.82 C941.644002,3740.732 943.840003,3739.688 946.720003,3739.688 C948.736004,3739.688 950.212004,3740.228 952.048004,3741.704 C953.272004,3742.712 953.992004,3743.108 954.964005,3743.108 C955.828005,3743.108 956.692005,3742.712 957.232005,3742.172 C957.880005,3741.488 958.276005,3740.66 958.276005,3739.76 C958.276005,3737.88799 956.620005,3736.59199 954.712005,3735.36799 C952.264004,3733.78399 949.996004,3733.06399 946.720003,3733.06399 C938.440002,3733.06399 930.520001,3738.06799 930.520001,3751.748 L930.520001,3751.748 Z M974.620002,3747.752 C974.620002,3742.1 978.004003,3739.688 982.144003,3739.688 C986.320004,3739.688 989.560005,3742.064 989.560005,3747.752 L989.560005,3765.284 C989.560005,3767.048 989.668005,3767.696 990.100005,3768.56 C990.604005,3769.532 991.648005,3770.288 993.232005,3770.288 C994.816005,3770.288 995.860006,3769.532 996.364006,3768.56 C996.796006,3767.696 996.904006,3767.048 996.904006,3765.284 L996.904006,3746.672 C996.904006,3742.604 996.004006,3739.11199 993.196005,3736.37599 C991.036005,3734.25199 987.976004,3733.06399 984.196004,3733.06399 C980.560003,3733.06399 977.212003,3734.28799 974.620002,3737.16799 L974.620002,3723.45199 C974.620002,3721.68799 974.512002,3721.03999 974.080002,3720.17599 C973.576002,3719.20399 972.532002,3718.44799 970.948002,3718.44799 C969.364001,3718.44799 968.320001,3719.20399 967.816001,3720.17599 C967.384001,3721.03999 967.276001,3721.68799 967.276001,3723.45199 L967.276001,3765.284 C967.276001,3767.048 967.384001,3767.696 967.816001,3768.56 C968.320001,3769.532 969.364001,3770.288 970.948002,3770.288 C972.532002,3770.288 973.576002,3769.532 974.080002,3768.56 C974.512002,3767.696 974.620002,3767.048 974.620002,3765.284 L974.620002,3747.752 Z M1005.364,3759.272 C1005.364,3762.368 1006.408,3765.176 1008.28,3767.084 C1010.476,3769.352 1013.536,3770.396 1018.108,3770.396 C1022.572,3770.396 1025.02,3769.424 1027.9,3766.616 C1027.972,3768.164 1028.296,3768.74 1028.728,3769.244 C1029.304,3769.856 1030.204,3770.288 1031.392,3770.288 C1032.796,3770.288 1033.98401,3769.604 1034.52401,3768.596 C1034.99201,3767.768 1035.06401,3767.084 1035.06401,3765.284 L1035.06401,3745.628 C1035.06401,3737.34799 1029.916,3733.06399 1020.124,3733.06399 C1016.344,3733.06399 1013.392,3733.78399 1010.836,3735.25999 C1008.964,3736.33999 1007.416,3737.81599 1007.416,3739.47199 C1007.416,3740.444 1007.668,3741.056 1008.28,3741.74 C1008.82,3742.388 1009.648,3742.712 1010.404,3742.712 C1011.088,3742.712 1012.132,3742.46 1013.068,3741.74 C1015.192,3740.12 1017.136,3739.29199 1020.052,3739.29199 C1025.416,3739.29199 1027.684,3741.632 1027.684,3746.42 L1027.684,3748.688 L1018,3748.688 C1009.72,3748.688 1005.364,3753.152 1005.364,3759.272 L1005.364,3759.272 Z M1012.528,3759.164 C1012.528,3755.78 1014.724,3753.908 1019.044,3753.908 L1027.684,3753.908 L1027.684,3756.788 C1027.684,3759.488 1027.216,3761.144 1026.064,3762.224 C1024.192,3764.024 1022.032,3764.312 1019.404,3764.312 C1014.76,3764.312 1012.528,3762.476 1012.528,3759.164 L1012.528,3759.164 Z M1046.368,3765.248 C1046.368,3767.264 1046.512,3767.912 1047.016,3768.74 C1047.628,3769.712 1048.816,3770.288 1050.04,3770.288 C1051.228,3770.288 1052.344,3769.82 1053.028,3768.848 C1053.424,3768.308 1053.604,3767.768 1053.676,3766.256 C1056.376,3769.46 1059.4,3770.432 1063.216,3770.432 C1066.888,3770.432 1070.128,3769.208 1072.14401,3767.192 C1075.67201,3763.592 1076.17601,3757.76 1076.17601,3751.712 C1076.17601,3745.736 1075.67201,3739.904 1072.14401,3736.30399 C1070.128,3734.28799 1066.96,3733.06399 1063.288,3733.06399 C1059.4,3733.06399 1056.376,3733.99999 1053.712,3737.16799 L1053.712,3723.45199 C1053.712,3721.68799 1053.604,3721.03999 1053.172,3720.17599 C1052.668,3719.20399 1051.624,3718.44799 1050.04,3718.44799 C1048.456,3718.44799 1047.412,3719.20399 1046.908,3720.17599 C1046.476,3721.03999 1046.368,3721.68799 1046.368,3723.45199 L1046.368,3765.248 Z M1068.832,3751.748 C1068.832,3758.228 1067.896,3763.808 1061.272,3763.808 C1054.612,3763.808 1053.676,3758.228 1053.676,3751.748 C1053.676,3745.268 1054.612,3739.688 1061.272,3739.688 C1067.896,3739.688 1068.832,3745.268 1068.832,3751.748 L1068.832,3751.748 Z M1085.968,3759.884 C1085.968,3765.248 1088.992,3770 1095.868,3770 L1096.588,3770 C1098.064,3770 1099.036,3769.784 1099.684,3769.424 C1100.548,3768.956 1101.16,3768.092 1101.16,3766.868 C1101.16,3765.644 1100.548,3764.744 1099.684,3764.276 C1099.036,3763.916 1098.208,3763.808 1097.02,3763.772 C1094.32,3763.7 1093.312,3762.08 1093.312,3759.56 L1093.312,3723.37999 C1093.312,3721.61599 1093.204,3720.96799 1092.772,3720.10399 C1092.268,3719.13199 1091.224,3718.37599 1089.64,3718.37599 C1088.056,3718.37599 1087.012,3719.13199 1086.508,3720.10399 C1086.076,3720.96799 1085.968,3721.61599 1085.968,3723.37999 L1085.968,3759.884 Z M1105.624,3751.748 C1105.624,3765.644 1112.968,3770.432 1122.076,3770.432 C1126,3770.432 1129.312,3769.604 1131.616,3768.092 C1133.41601,3766.94 1135.28801,3765.356 1135.28801,3763.664 C1135.28801,3761.972 1133.74001,3760.532 1132.26401,3760.532 C1131.328,3760.532 1130.392,3760.964 1129.276,3761.864 C1127.296,3763.448 1124.812,3764.168 1122.256,3764.168 C1116.172,3764.168 1112.896,3760.1 1112.896,3753.872 L1132.30001,3753.872 C1133.38001,3753.872 1134.60401,3753.872 1135.54001,3752.936 C1136.44001,3752.036 1136.58401,3750.74 1136.54801,3749.66 C1136.33201,3740.012 1130.644,3733.06399 1121.104,3733.06399 C1111.78,3733.06399 1105.624,3739.724 1105.624,3751.748 L1105.624,3751.748 Z M1129.312,3748.76 L1112.896,3748.76 C1112.968,3746.528 1113.112,3745.376 1113.832,3743.792 C1115.056,3741.056 1117.576,3739.18399 1121.104,3739.18399 C1124.56,3739.18399 1127.08,3741.056 1128.304,3743.792 C1129.024,3745.376 1129.168,3746.528 1129.312,3748.76 L1129.312,3748.76 Z" id="text-upchannel-proximabold"></path>
        </g>
    </g>
</svg>