<?xml version="1.0" encoding="UTF-8" standalone="no"?>
<svg width="354px" height="46px" viewBox="0 0 354 46" version="1.1" xmlns="http://www.w3.org/2000/svg" xmlns:xlink="http://www.w3.org/1999/xlink">
    <!-- Generator: Sketch 40.3 (33839) - http://www.bohemiancoding.com/sketch -->
    <title>text-upchannel-proximaregular</title>
    <desc>Created with Sketch.</desc>
    <defs></defs>
    <g id="Page-1" stroke="none" stroke-width="1" fill="none" fill-rule="evenodd">
        <g id="Project---Redspread" transform="translate(-390.000000, -3875.000000)" fill="#666666">
            <path d="M394.432,3894.112 C394.432,3886.288 398.128,3881.44 403.744,3881.44 C409.36,3881.44 413.056,3886.288 413.056,3894.112 C413.056,3901.984 409.36,3907.072 403.744,3907.072 C398.128,3907.072 394.432,3901.984 394.432,3894.112 L394.432,3894.112 Z M417.136,3914.032 C416.272,3914.272 415.216,3914.512 413.824,3914.512 C410.416,3914.512 407.536,3913.168 406.096,3910.384 C412.768,3909.232 417.232,3903.184 417.232,3894.112 C417.232,3884.08 411.664,3877.936 403.744,3877.936 C395.824,3877.936 390.304,3884.032 390.304,3894.112 C390.304,3903.376 394.912,3909.472 401.776,3910.432 C403.6,3914.752 407.584,3917.872 413.392,3917.872 C415.264,3917.872 416.944,3917.488 417.904,3917.152 L417.136,3914.032 Z M423.232,3901.456 C423.232,3907.408 425.44,3910.576 430.384,3910.576 C433.6,3910.576 435.904,3908.896 438.064,3906.352 L438.208,3906.352 L438.544,3910 L441.808,3910 L441.808,3886.672 L437.872,3886.672 L437.872,3903.232 C435.664,3905.968 433.984,3907.168 431.584,3907.168 C428.512,3907.168 427.216,3905.296 427.216,3900.928 L427.216,3886.672 L423.232,3886.672 L423.232,3901.456 Z M451.696,3881.872 C453.232,3881.872 454.432,3880.816 454.432,3879.328 C454.432,3877.792 453.232,3876.784 451.696,3876.784 C450.16,3876.784 448.96,3877.792 448.96,3879.328 C448.96,3880.816 450.16,3881.872 451.696,3881.872 L451.696,3881.872 Z M449.68,3910 L453.616,3910 L453.616,3886.672 L449.68,3886.672 L449.68,3910 Z M459.76,3898.384 C459.76,3906.112 464.512,3910.576 470.704,3910.576 C473.488,3910.576 476.176,3909.424 478.288,3907.552 L476.512,3904.96 C475.12,3906.208 473.248,3907.312 471.04,3907.312 C466.768,3907.312 463.84,3903.712 463.84,3898.384 C463.84,3893.008 466.912,3889.36 471.136,3889.36 C473.008,3889.36 474.448,3890.224 475.84,3891.424 L477.808,3888.88 C476.224,3887.392 474.064,3886.096 470.992,3886.096 C464.992,3886.096 459.76,3890.56 459.76,3898.384 L459.76,3898.384 Z M483.376,3910 L487.264,3910 L487.264,3903.856 L491.632,3898.768 L498.448,3910 L502.768,3910 L493.888,3896.032 L501.712,3886.672 L497.344,3886.672 L487.408,3898.96 L487.264,3898.96 L487.264,3875.824 L483.376,3875.824 L483.376,3910 Z M515.68,3903.952 C515.68,3908.128 518.608,3910.576 522.544,3910.576 C525.424,3910.576 528.016,3909.04 530.272,3907.216 L530.368,3907.216 L530.704,3910 L533.968,3910 L533.968,3895.696 C533.968,3889.888 531.568,3886.096 525.856,3886.096 C522.112,3886.096 518.848,3887.728 516.688,3889.12 L518.272,3891.856 C520.096,3890.608 522.496,3889.36 525.232,3889.36 C529.024,3889.36 530.032,3892.24 530.032,3895.216 C520.096,3896.32 515.68,3898.864 515.68,3903.952 L515.68,3903.952 Z M519.568,3903.664 C519.568,3900.688 522.208,3898.768 530.032,3897.808 L530.032,3904.288 C527.776,3906.304 525.904,3907.408 523.648,3907.408 C521.344,3907.408 519.568,3906.304 519.568,3903.664 L519.568,3903.664 Z M541.408,3910 L545.344,3910 L545.344,3893.104 C547.696,3890.752 549.328,3889.504 551.728,3889.504 C554.8,3889.504 556.144,3891.376 556.144,3895.744 L556.144,3910 L560.08,3910 L560.08,3895.216 C560.08,3889.264 557.872,3886.096 552.976,3886.096 C549.76,3886.096 547.36,3887.824 545.152,3890.032 L545.008,3890.032 L544.672,3886.672 L541.408,3886.672 L541.408,3910 Z M565.984,3898.384 C565.984,3906.16 569.776,3910.576 575.632,3910.576 C578.368,3910.576 580.864,3909.04 582.688,3907.264 L582.832,3907.264 L583.168,3910 L586.432,3910 L586.432,3875.824 L582.448,3875.824 L582.448,3884.8 L582.64,3888.784 C580.576,3887.104 578.8,3886.096 576.112,3886.096 C570.784,3886.096 565.984,3890.8 565.984,3898.384 L565.984,3898.384 Z M570.064,3898.336 C570.064,3893.008 573.04,3889.408 576.784,3889.408 C578.704,3889.408 580.48,3890.08 582.448,3891.856 L582.448,3904.048 C580.528,3906.208 578.656,3907.264 576.496,3907.264 C572.416,3907.264 570.064,3903.904 570.064,3898.336 L570.064,3898.336 Z M604.24,3910 L622,3910 L622,3906.592 L608.272,3906.592 L608.272,3878.512 L604.24,3878.512 L604.24,3910 Z M625.36,3898.384 C625.36,3906.016 630.304,3910.576 636.544,3910.576 C639.712,3910.576 642.208,3909.472 644.224,3908.176 L642.832,3905.584 C641.104,3906.688 639.232,3907.408 637.024,3907.408 C632.56,3907.408 629.536,3904.24 629.248,3899.2 L644.992,3899.2 C645.088,3898.624 645.136,3897.856 645.136,3897.04 C645.136,3890.368 641.776,3886.096 635.824,3886.096 C630.496,3886.096 625.36,3890.752 625.36,3898.384 L625.36,3898.384 Z M629.2,3896.608 C629.68,3891.904 632.656,3889.216 635.92,3889.216 C639.568,3889.216 641.68,3891.856 641.68,3896.608 L629.2,3896.608 Z M652.576,3913.936 C652.576,3912.592 653.296,3911.2 654.976,3910 C655.984,3910.288 657.088,3910.384 658,3910.384 L662.032,3910.384 C665.056,3910.384 666.736,3911.104 666.736,3913.264 C666.736,3915.712 663.808,3918.016 659.344,3918.016 C655.12,3918.016 652.576,3916.432 652.576,3913.936 L652.576,3913.936 Z M649.12,3914.464 C649.12,3918.496 653.056,3920.752 658.768,3920.752 C666.016,3920.752 670.576,3917.008 670.576,3912.688 C670.576,3908.8 667.84,3907.12 662.416,3907.12 L657.904,3907.12 C654.736,3907.12 653.776,3906.064 653.776,3904.576 C653.776,3903.28 654.448,3902.512 655.264,3901.792 C656.32,3902.32 657.616,3902.608 658.768,3902.608 C663.52,3902.608 667.312,3899.488 667.312,3894.496 C667.312,3892.528 666.496,3890.752 665.392,3889.696 L670.192,3889.696 L670.192,3886.672 L662.08,3886.672 C661.216,3886.336 660.064,3886.096 658.768,3886.096 C654.016,3886.096 649.984,3889.312 649.984,3894.4 C649.984,3897.184 651.472,3899.44 653.008,3900.688 L653.008,3900.88 C651.808,3901.696 650.464,3903.232 650.464,3905.2 C650.464,3907.024 651.376,3908.272 652.528,3908.992 L652.528,3909.184 C650.416,3910.624 649.12,3912.496 649.12,3914.464 L649.12,3914.464 Z M658.768,3899.968 C656.08,3899.968 653.824,3897.808 653.824,3894.4 C653.824,3890.992 656.032,3888.976 658.768,3888.976 C661.504,3888.976 663.712,3890.992 663.712,3894.4 C663.712,3897.808 661.456,3899.968 658.768,3899.968 L658.768,3899.968 Z M677.104,3881.872 C678.64,3881.872 679.84,3880.816 679.84,3879.328 C679.84,3877.792 678.64,3876.784 677.104,3876.784 C675.568,3876.784 674.368,3877.792 674.368,3879.328 C674.368,3880.816 675.568,3881.872 677.104,3881.872 L677.104,3881.872 Z M675.088,3910 L679.024,3910 L679.024,3886.672 L675.088,3886.672 L675.088,3910 Z M686.896,3910 L690.064,3910 L690.4,3907.696 L690.544,3907.696 C692.608,3909.52 695.056,3910.576 697.216,3910.576 C702.544,3910.576 707.296,3905.92 707.296,3897.952 C707.296,3890.752 704.08,3886.096 698.032,3886.096 C695.44,3886.096 692.848,3887.488 690.736,3889.36 L690.832,3885.136 L690.832,3875.824 L686.896,3875.824 L686.896,3910 Z M690.832,3904.816 L690.832,3892.576 C693.04,3890.512 695.104,3889.408 697.072,3889.408 C701.488,3889.408 703.216,3892.864 703.216,3898 C703.216,3903.76 700.384,3907.264 696.544,3907.264 C695.008,3907.264 692.896,3906.592 690.832,3904.816 L690.832,3904.816 Z M713.536,3905.296 C713.536,3908.704 714.736,3910.576 717.712,3910.576 C718.768,3910.576 719.44,3910.432 719.968,3910.192 L719.44,3907.216 C719.008,3907.312 718.816,3907.312 718.576,3907.312 C718,3907.312 717.472,3906.832 717.472,3905.584 L717.472,3875.824 L713.536,3875.824 L713.536,3905.296 Z M724.048,3898.384 C724.048,3906.016 728.992,3910.576 735.232,3910.576 C738.4,3910.576 740.896,3909.472 742.912,3908.176 L741.52,3905.584 C739.792,3906.688 737.92,3907.408 735.712,3907.408 C731.248,3907.408 728.224,3904.24 727.936,3899.2 L743.68,3899.2 C743.776,3898.624 743.824,3897.856 743.824,3897.04 C743.824,3890.368 740.464,3886.096 734.512,3886.096 C729.184,3886.096 724.048,3890.752 724.048,3898.384 L724.048,3898.384 Z M727.888,3896.608 C728.368,3891.904 731.344,3889.216 734.608,3889.216 C738.256,3889.216 740.368,3891.856 740.368,3896.608 L727.888,3896.608 Z" id="text-upchannel-proximaregular"></path>
        </g>
    </g>
</svg>