<?xml version="1.0" encoding="iso-8859-1"?>
<!-- Generator: Adobe Illustrator 19.2.0, SVG Export Plug-In . SVG Version: 6.00 Build 0)  -->
<!DOCTYPE svg PUBLIC "-//W3C//DTD SVG 1.1//EN" "http://www.w3.org/Graphics/SVG/1.1/DTD/svg11.dtd">
<svg version="1.1" xmlns="http://www.w3.org/2000/svg" xmlns:xlink="http://www.w3.org/1999/xlink" x="0px" y="0px"
	 viewBox="0 0 224 112" style="enable-background:new 0 0 224 112;" xml:space="preserve">
<g id="_x39_9pi">
	<path d="M72.713,64.182c0-2.015,0-3.867,0-5.763c0.843,0,1.643,0,2.473,0c0,3.103,0,6.186,0,9.326
		c-0.804,0-1.581,0.017-2.356-0.016c-0.137-0.006-0.289-0.198-0.394-0.335c-1.261-1.65-2.514-3.307-3.771-4.961
		c-0.097-0.128-0.204-0.248-0.389-0.473c0,1.987,0,3.852,0,5.756c-0.856,0-1.656,0-2.482,0c0-3.106,0-6.176,0-9.333
		c0.781,0,1.571-0.014,2.359,0.014c0.123,0.004,0.261,0.184,0.357,0.309c1.266,1.647,2.526,3.299,3.787,4.949
		C72.402,63.792,72.511,63.926,72.713,64.182z"/>
	<path d="M164.1,67.717c0-3.105,0-6.175,0-9.293c2.521,0,5.051,0,7.619,0c0,0.673,0,1.359,0,2.106c-1.623,0-3.241,0-4.888,0
		c0,0.499,0,0.938,0,1.429c1.335,0,2.641,0,3.978,0c0,0.704,0,1.357,0,2.055c-1.316,0-2.622,0-3.969,0c0,0.532,0,1.02,0,1.555
		c1.712,0,3.416,0,5.159,0c0,0.733,0,1.421,0,2.148C169.384,67.717,166.756,67.717,164.1,67.717z"/>
	<path d="M116.139,59.373c-0.324,0.645-0.629,1.25-0.951,1.891c-0.315-0.137-0.59-0.306-0.888-0.376
		c-0.769-0.179-1.544-0.347-2.325-0.449c-0.27-0.035-0.6,0.079-0.845,0.223c-0.449,0.264-0.392,0.901,0.104,1.044
		c0.65,0.188,1.334,0.252,1.994,0.411c0.562,0.135,1.139,0.265,1.657,0.508c1.749,0.822,1.995,3.049,0.494,4.274
		c-0.778,0.635-1.701,0.889-2.683,0.937c-1.76,0.087-3.385-0.32-4.886-1.39c0.35-0.594,0.683-1.159,1.043-1.772
		c0.207,0.106,0.393,0.201,0.578,0.298c0.927,0.486,1.901,0.788,2.96,0.734c0.197-0.01,0.43-0.002,0.579-0.102
		c0.21-0.141,0.437-0.349,0.513-0.576c0.11-0.327-0.163-0.529-0.451-0.603c-0.722-0.185-1.459-0.315-2.177-0.514
		c-0.556-0.154-1.127-0.315-1.63-0.585c-1.315-0.708-1.631-2.489-0.674-3.644c0.969-1.169,2.31-1.44,3.727-1.433
		C113.647,58.255,114.935,58.602,116.139,59.373z"/>
	<path d="M89.603,58.375c-0.353,0.849-0.67,1.612-0.987,2.375c-0.905,2.176-1.82,4.349-2.708,6.532
		c-0.15,0.368-0.339,0.502-0.734,0.481c-0.663-0.035-1.331,0.007-1.995-0.022c-0.156-0.007-0.39-0.135-0.445-0.267
		c-1.23-2.976-2.44-5.961-3.653-8.944c-0.011-0.027-0.001-0.062-0.001-0.152c0.912,0,1.821-0.013,2.728,0.017
		c0.107,0.004,0.249,0.226,0.303,0.374c0.675,1.856,1.337,3.717,2.003,5.576c0.039,0.109,0.086,0.215,0.164,0.408
		c0.094-0.225,0.166-0.381,0.225-0.541c0.667-1.805,1.341-3.608,1.989-5.421c0.115-0.322,0.26-0.436,0.602-0.425
		C87.902,58.392,88.712,58.375,89.603,58.375z"/>
	<path d="M152.855,65.597c1.781,0,3.471,0,5.195,0c0,0.721,0,1.407,0,2.125c-2.622,0-5.223,0-7.87,0c0-3.097,0-6.19,0-9.316
		c0.88,0,1.751,0,2.675,0C152.855,60.797,152.855,63.163,152.855,65.597z"/>
	<path d="M57.677,67.721c-0.884,0-1.755,0-2.657,0c0-3.109,0-6.188,0-9.308c0.874,0,1.744,0,2.657,0
		C57.677,61.505,57.677,64.597,57.677,67.721z"/>
	<path d="M124.674,58.395c0.886,0,1.745,0,2.638,0c0,3.116,0,6.209,0,9.331c-0.883,0-1.741,0-2.638,0
		C124.674,64.625,124.674,61.53,124.674,58.395z"/>
	<path d="M96.916,58.395c0.891,0,1.749,0,2.638,0c0,3.116,0,6.21,0,9.332c-0.88,0-1.738,0-2.638,0
		C96.916,64.63,96.916,61.538,96.916,58.395z"/>
	<path d="M143.336,63.06c-0.12-0.055-0.236-0.118-0.399-0.199c0.894-0.453,1.382-1.067,1.311-2.052
		c-0.069-0.968-0.576-1.62-1.425-1.993c-0.448-0.197-0.946-0.369-1.427-0.384c-1.776-0.056-3.555-0.042-5.333-0.051
		c-0.044,0-0.088,0.036-0.138,0.058c0,3.089,0,6.173,0,9.278c0.122,0.014,0.218,0.034,0.314,0.034
		c1.712,0.002,3.426,0.035,5.136-0.016c0.617-0.018,1.255-0.166,1.836-0.381c0.841-0.31,1.32-0.947,1.39-1.885
		C144.684,64.386,144.381,63.536,143.336,63.06z M138.615,60.438c0.8,0,1.576-0.027,2.349,0.011
		c0.432,0.021,0.621,0.348,0.613,0.766c-0.008,0.416-0.139,0.792-0.622,0.811c-0.773,0.032-1.549,0.009-2.34,0.009
		C138.615,61.477,138.615,60.951,138.615,60.438z M140.948,65.75c-0.76,0.022-1.52,0.005-2.336,0.005c0-0.639,0-1.213,0-1.819
		c0.828,0,1.637-0.045,2.44,0.014c0.63,0.046,0.863,0.381,0.83,0.954C141.847,65.497,141.613,65.73,140.948,65.75z"/>
	<path d="M80.09,53.612c0.744-1.12,1.422-2.142,2.1-3.163c1.259-1.897,2.524-3.789,3.769-5.694c0.205-0.314,0.427-0.463,0.808-0.439
		c0.479,0.031,0.961,0.007,1.525,0.007c-0.552,0.847-1.071,1.646-1.592,2.444c-1.4,2.141-2.808,4.278-4.195,6.427
		c-0.206,0.319-0.426,0.453-0.806,0.426C81.206,53.586,80.707,53.612,80.09,53.612z"/>
	<path d="M60.641,47.422c0-1.449-0.511-2.232-1.866-2.789c-1.333-0.548-2.707-0.597-4.103-0.267
		c-1.959,0.463-2.718,1.416-2.669,3.39c0.026,1.042,0.551,1.797,1.446,2.283c0.948,0.514,1.983,0.665,3.042,0.522
		c0.596-0.081,1.178-0.27,1.764-0.41c0.112,0.789-0.14,1.198-0.921,1.396c-0.271,0.069-0.561,0.134-0.834,0.109
		c-1.096-0.102-2.189-0.24-3.379-0.376c-0.197,0.393-0.463,0.923-0.751,1.497c1.382,0.799,2.818,1.036,4.321,0.971
		c0.994-0.043,1.942-0.256,2.78-0.822c0.762-0.514,1.213-1.187,1.179-2.162C60.611,49.651,60.641,48.536,60.641,47.422z
		 M57.125,48.57c-0.252,0.071-0.519,0.088-0.838,0.14c-0.277-0.061-0.608-0.102-0.915-0.21c-0.601-0.212-0.74-0.487-0.73-1.188
		c0.007-0.555,0.361-0.847,0.814-0.919c0.542-0.086,1.118-0.097,1.66-0.013c0.606,0.094,0.865,0.482,0.871,1.035
		C57.995,48.059,57.756,48.393,57.125,48.57z"/>
	<path d="M73.265,44.767c-1.523-0.735-3.105-0.776-4.707-0.309c-1.725,0.502-2.337,1.358-2.34,3.144
		c-0.002,1.199,0.561,2.027,1.615,2.528c0.906,0.43,1.875,0.58,2.866,0.428c0.608-0.093,1.202-0.277,1.802-0.419
		c0.084,0.799-0.191,1.243-0.972,1.41c-1.266,0.27-2.508,0.098-3.732-0.29c-0.145-0.046-0.428-0.013-0.484,0.08
		c-0.269,0.453-0.482,0.939-0.729,1.441c1.355,0.791,2.79,1.032,4.294,0.969c0.872-0.037,1.713-0.207,2.488-0.63
		c0.983-0.537,1.545-1.31,1.504-2.487c-0.038-1.096-0.041-2.196,0.001-3.293C74.918,46.097,74.33,45.282,73.265,44.767z
		 M71.323,48.574c-0.252,0.07-0.518,0.086-0.839,0.136c-0.275-0.063-0.606-0.104-0.913-0.215c-0.576-0.208-0.759-0.523-0.732-1.146
		c0.021-0.495,0.286-0.882,0.834-0.964c0.543-0.082,1.12-0.09,1.66,0c0.604,0.1,0.866,0.496,0.871,1.042
		C72.21,48.05,71.954,48.398,71.323,48.574z"/>
	<path d="M81.503,44.172c-1.452,0-2.193,0.658-2.263,1.853c-0.103,1.748,0.741,2.279,2.241,2.296
		c1.534,0.017,2.227-0.633,2.229-2.057C83.712,44.853,82.994,44.172,81.503,44.172z M81.477,46.781
		c-0.185-0.025-0.344-0.253-0.514-0.389c0.069-0.475,0.201-0.699,0.593-0.696c0.33,0.003,0.471,0.168,0.473,0.498
		C82.032,46.582,81.86,46.832,81.477,46.781z"/>
	<path d="M88.258,49.7c-0.806-0.316-1.63-0.321-2.434-0.01c-0.574,0.222-0.911,0.651-0.903,1.301
		c0.004,0.382,0.017,0.766-0.004,1.147c-0.034,0.613,0.258,1.022,0.78,1.273c0.891,0.428,1.802,0.417,2.699,0.025
		c0.503-0.22,0.729-0.661,0.776-1.192c0.019-0.215,0.003-0.432,0.003-0.75C89.248,50.78,89.139,50.045,88.258,49.7z M87.037,52.213
		c-0.397,0.008-0.451-0.301-0.456-0.627c-0.005-0.33,0.107-0.555,0.465-0.568c0.406-0.014,0.496,0.249,0.481,0.609
		C87.565,51.972,87.388,52.205,87.037,52.213z"/>
</g>
<g id="Layer_1">
</g>
</svg>
