<?xml version="1.0" encoding="iso-8859-1"?>
<!-- Generator: Adobe Illustrator 19.2.0, SVG Export Plug-In . SVG Version: 6.00 Build 0)  -->
<!DOCTYPE svg PUBLIC "-//W3C//DTD SVG 1.1//EN" "http://www.w3.org/Graphics/SVG/1.1/DTD/svg11.dtd">
<svg version="1.1" xmlns="http://www.w3.org/2000/svg" xmlns:xlink="http://www.w3.org/1999/xlink" x="0px" y="0px"
	 viewBox="0 0 224 112" style="enable-background:new 0 0 224 112;" xml:space="preserve">
<g id="creativemarket">
	<g>
		<polygon points="141.337,71.672 143.862,71.672 143.862,78.339 145.273,78.339 145.273,71.672 147.798,71.672 147.798,70.376 
			141.337,70.376 		"/>
		<polygon points="82.942,74.142 80.519,70.376 79.028,70.376 79.028,78.339 80.406,78.339 80.406,72.652 82.896,76.382 
			82.942,76.382 85.456,72.628 85.456,78.339 86.855,78.339 86.855,70.376 85.365,70.376 		"/>
		<path d="M95.707,70.319l-3.504,8.02h1.433l0.82-1.922h3.765l0.808,1.922h1.479l-3.504-8.02H95.707z M94.967,75.177l1.365-3.186
			l1.377,3.186H94.967z"/>
		<path d="M112.362,72.913V72.89c0-0.694-0.239-1.285-0.66-1.718c-0.512-0.499-1.297-0.796-2.298-0.796h-3.548v7.963h1.399v-2.775
			h1.752l1.957,2.775h1.66l-2.149-3.014C111.576,75.006,112.362,74.22,112.362,72.913z M107.253,74.324V71.65h2.036
			c1.035,0,1.649,0.468,1.649,1.32v0.022c0,0.807-0.636,1.331-1.638,1.331H107.253z"/>
		<path d="M171.027,55.864c-1.213,3.179-3.314,4.289-4.783,4.289c-1.161,0-3.663-0.247-4.667-3.153
			c4.223-0.188,6.414-4.55,6.414-7.802c0.153-2.382-0.901-4.386-3.774-4.467c-4.222-0.118-6.041,3.951-6.615,7.071
			c-0.197,1.08-0.155,2.124-0.038,2.976c-2.266-0.909-3.633-4.245-2.105-7.307c0.003-0.006,0.004-0.011,0.007-0.017
			c0.004-0.008,0.008-0.017,0.012-0.025V47.43c0.305-0.652,0.319-1.004-0.244-1.143c-3.872-0.815-4.402,3.939-4.66,5.736
			c-0.289,2.002-0.652,4.014-1.019,5.135c-0.587,1.793-1.256,0.694-1.621-0.181c-1.01-2.42-1.116-6.845-1.264-12.41
			c-0.124-0.937-3.484,0.186-3.69,0.726c-0.294,0.799-0.976,1.778-1.878,4.282c-0.901,2.505-2.297,5.516-2.735,6.598
			c-0.998,2.462-1.552,0.752-1.68,0.244c-0.621-2.493-0.263-7.671-0.087-12.612c0.008-1.791-3.777,0.324-3.877,0.906
			c-0.045,0.257-1.881,8.581-3.803,11.823c-1.358,2.186-1.985,3.309-3.233,0.491c-0.971-2.195-0.675-8.445,0.58-16.326
			c2.479-0.686,4.615-1.184,6.103-1.472c-0.047,1.177,0.711,2.445,2.497,2.48c2.083,0,3.399-0.934,3.452-2.115
			c0.05-1.08-0.768-2.23-2.282-2.445c-0.129-0.022-0.268-0.038-0.424-0.046c-1.958-0.07-5.567,0.823-9.063,1.885
			c0.295-1.719,0.629-3.497,1.006-5.324l-4.195,1.862c-0.352,1.704-0.664,3.299-0.939,4.799c-2.42,0.83-3.52,1.238-4.077,1.493
			c-0.918,0.434-0.551,1.588,0.195,1.305c1.487-0.551,2.162-0.734,3.6-1.192c-0.815,4.748-1.191,8.447-1.044,11.361
			c-0.008,0.021-0.012,0.059-0.004,0.14c0.302,3.378-2.096,7.319-4.45,5.342c-1.249-1.03-1.505-6.074-1.287-7.998
			c0.084-0.734,0.46-3.434-0.323-3.434c-1.707,0-2.797,11.079-5.691,11.079c-0.828,0.005-1.649-0.8-1.849-1.395
			c-1.038-3.109,0.407-8.009,2.791-11.684c1.339-1.874,2.057-1.826,2.415-2.347c0.615-0.901-2.414-2.126-5.073,0.316
			c-1.713,1.731-3.658,4.623-4.663,9.158c-0.061,0.277-0.395,2.619-0.445,2.798c-1.333,4.248-3.895,4.425-5.466,4.425
			c-1.64,0-2.924-1.09-3.895-2.567C95.293,55.1,99.42,51.2,99.42,46.934c0-3.446-1.13-6.057-4.114-6.057
			c-4.44-0.123-6.725,3.886-7.384,8.049c-0.455,2.883,0.106,5.579,0.295,6.377c0.095,0.397,0.263,0.893,0.514,1.432
			c-2.422,2.362-4.946,3.625-5.684-0.413c-0.418-2.287,0.052-6.968,0.445-9.819c0.177-1.792-0.819-2.168-2.568-2.743
			c-1.75-0.572-1.738-0.521-4.62-1.53c0-2.287-1.13-4.98-3.686-4.292c-2.311,0.533-2.635,3.884,0.953,5.67
			c0,7.701-3.027,14.642-9.853,15.41v0.046c-7.584,0.178-6.902-9.233-6.901-9.776c0.025-7.89,8.968-16.042,8.968-9.059
			c-0.147,2.338,2.644,2.259,2.985-0.714c0.343-2.973-2.57-4.256-6.803-4.244c-4.233,0.012-9.941,6.681-9.967,14.751
			c-0.013,4.034,0.98,11.771,11.024,11.743c0.741-0.003,1.383-0.087,1.987-0.247c8.135-1.54,11.228-8.853,11.228-17.346
			c0.799,0.229,1.249,0.332,1.925,0.569c0.675,0.236,1.122,0.356,0.723,2.733c-0.204,1.774-0.429,4.689-0.429,6.022
			c0,3.666,0.562,8.17,5.477,8.17c2.632,0,4.731-1.013,6.529-2.442c1,1.127,3.093,2.553,6.376,2.553c3.831,0,5.676-2.31,6.598-3.828
			c0.546,2.022,2.562,3.685,4.903,3.685c2.954,0,5.22-2.931,5.481-3.387c0.19,0.491,1.018,3.382,3.91,3.382
			c2.015,0,3.621-2.904,4.053-4.297c0.366,1.099,0.869,2.042,1.535,2.85c0.008,0.01,0.016,0.02,0.023,0.029
			c0.994,1.213,2.224,1.492,3.094,1.509c3.966,0.079,6.412-12.101,6.424-12.036c-0.261,7.341,0.23,11.957,4.075,11.957
			c1.894,0,2.611-3.567,3.738-6.838c1.127-3.27,2.178-6.107,2.459-7.031c-0.128,2.209,0.006,5.297,0.126,6.162
			c0.609,4.44,2.03,5.618,3.308,6.715c2.854,2.1,4.765-0.537,6.121-5.912c0.262-1.041,0.576-1.95,0.901-2.748
			c0.245,1.652,1.247,4.071,4.46,4.837c0.576,1.565,2.472,4.662,7.906,4.813c3.527,0.099,5.342-1.858,5.855-2.68
			C172.325,58.138,171.698,53.842,171.027,55.864z M94.434,44.14c1.367,0,1.454,5.309-2.674,9.518
			C90.491,50.144,92.829,44.14,94.434,44.14z M163.121,47.729c1.826,0,1.21,7.217-2.227,7.264
			C160.505,52.04,161.947,47.729,163.121,47.729z"/>
		<polygon points="124.977,70.376 123.248,70.376 119.461,74.38 119.461,70.376 118.061,70.376 118.061,78.339 119.461,78.339 
			119.461,76.03 120.7,74.757 123.42,78.339 125.126,78.339 121.656,73.8 		"/>
		<polygon points="131.701,74.95 135.694,74.95 135.694,73.697 131.701,73.697 131.701,71.628 136.206,71.628 136.206,70.376 
			130.301,70.376 130.301,78.339 136.263,78.339 136.263,77.088 131.701,77.088 		"/>
	</g>
</g>
<g id="Layer_1">
</g>
</svg>
