<?xml version="1.0" encoding="iso-8859-1"?>
<!-- Generator: Adobe Illustrator 19.2.0, SVG Export Plug-In . SVG Version: 6.00 Build 0)  -->
<!DOCTYPE svg PUBLIC "-//W3C//DTD SVG 1.1//EN" "http://www.w3.org/Graphics/SVG/1.1/DTD/svg11.dtd">
<svg version="1.1" xmlns="http://www.w3.org/2000/svg" xmlns:xlink="http://www.w3.org/1999/xlink" x="0px" y="0px"
	 viewBox="0 0 224 112" style="enable-background:new 0 0 224 112;" xml:space="preserve">
<g id="delta">
	<g>
		<g>
			<path d="M47.426,58.812l14.295,6.881L47.426,43.677L33.133,65.692L47.426,58.812z M32,68.323h30.852l-15.425-6.518L32,68.323z"/>
			<path d="M47.426,58.812V43.677L33.133,65.692L47.426,58.812z M32,68.323h15.427l0-6.518L32,68.323z"/>
		</g>
		<g>
			<path d="M74.888,65.691h6.937c7.129,0,11.383-3.689,11.383-9.819c0-6.128-4.254-9.816-11.383-9.816h-6.937V65.691z
				 M79.273,49.466h2.549c4.628,0,6.941,2.281,6.941,6.406c0,4.123-2.313,6.408-6.941,6.408h-2.549V49.466z"/>
			<polygon points="108.107,57.179 116.445,57.179 116.445,53.77 108.107,53.77 108.107,49.466 117.533,49.466 117.533,46.055 
				103.72,46.055 103.72,65.691 117.841,65.691 117.841,62.279 108.107,62.279 			"/>
			<polygon points="142.827,62.279 134.371,62.279 134.371,46.055 129.969,46.055 129.969,65.691 142.827,65.691 			"/>
			<polygon points="166.513,46.055 148.888,46.055 148.888,49.466 155.495,49.466 155.495,65.691 159.904,65.691 159.904,49.466 
				166.513,49.466 			"/>
			<path d="M192,65.691h-4.594l-1.924-4.919h-7.989l-1.918,4.919h-4.29l8.21-19.718v-0.001h4.43L192,65.691z M184.236,57.488
				l-2.742-6.969l-2.752,6.969H184.236z"/>
		</g>
	</g>
</g>
<g id="Layer_1">
</g>
</svg>
