<?xml version="1.0" encoding="iso-8859-1"?>
<!-- Generator: Adobe Illustrator 19.2.0, SVG Export Plug-In . SVG Version: 6.00 Build 0)  -->
<!DOCTYPE svg PUBLIC "-//W3C//DTD SVG 1.1//EN" "http://www.w3.org/Graphics/SVG/1.1/DTD/svg11.dtd">
<svg version="1.1" xmlns="http://www.w3.org/2000/svg" xmlns:xlink="http://www.w3.org/1999/xlink" x="0px" y="0px"
	 viewBox="0 0 224 112" style="enable-background:new 0 0 224 112;" xml:space="preserve">
<g id="fin">
	<g>
		<path d="M68,34.02c7.907-0.052,15.814-0.095,23.721,0.035c-0.052,3.206-0.052,6.412,0,9.618c-4.2,0.156-8.4,0.173-12.599,0.112
			v7.19H91.22v9.756H79.122v16.419c-3.75,0.026-7.432,0.026-11.122,0.026V34.02 M120.056,48.243
			c4.485-4.77,12.582-5.366,17.559-1.089c2.817,2.523,3.638,6.464,3.664,10.093c0.086,6.654,0,13.299,0,19.953h-9.765
			c-0.112-5.496,0-10.992,0-16.497c-0.112-2.013,0-4.364-1.443-5.963c-2.095-1.591-4.957-1.715-7.181-0.311
			c-1.953,1.426-1.927,4.122-2.022,6.3c0,5.487,0.086,10.975,0,16.471h-9.756V45.228l8.927,0.06c0,0.994,0.052,1.988,0.069,2.981
			 M95.497,45.202h9.765c0.098,10.658,0.098,21.316,0,31.973h-9.765V45.202 M148.556,67.142c3.889-1.521,8.322,2.35,7.293,6.412
			c-0.596,4.027-5.971,5.876-9.013,3.266c-3.396-2.506-2.385-8.546,1.728-9.678"/>
	</g>
</g>
<g id="Layer_1">
</g>
</svg>
