<?xml version="1.0" encoding="iso-8859-1"?>
<!-- Generator: Adobe Illustrator 19.2.0, SVG Export Plug-In . SVG Version: 6.00 Build 0)  -->
<!DOCTYPE svg PUBLIC "-//W3C//DTD SVG 1.1//EN" "http://www.w3.org/Graphics/SVG/1.1/DTD/svg11.dtd">
<svg version="1.1" xmlns="http://www.w3.org/2000/svg" xmlns:xlink="http://www.w3.org/1999/xlink" x="0px" y="0px"
	 viewBox="0 0 224 112" style="enable-background:new 0 0 224 112;" xml:space="preserve">
<g id="redspread">
	<g id="XMLID_69_">
		<path id="XMLID_222_" d="M114.639,53.178c-2.137,0-2.437,1.79-2.437,3.869c0,2.079,0.3,3.881,2.437,3.881
			c2.125,0,2.426-1.802,2.426-3.881C117.065,54.968,116.764,53.178,114.639,53.178z"/>
		<path id="XMLID_221_" d="M91.597,53.19c-2.125,0-2.425,1.79-2.425,3.869c0,2.079,0.3,3.869,2.425,3.869
			c2.137,0,2.437-1.79,2.437-3.869C94.034,54.98,93.734,53.19,91.597,53.19z"/>
		<path id="XMLID_210_" d="M164.25,34H59.75c-4.556,0-8.25,3.694-8.25,8.25v22c0,3.844,2.629,7.074,6.187,7.99
			c0.118,0.03,0.402,0.092,0.424,0.097C75.489,76.046,93.516,78,112,78s36.511-1.954,53.889-5.663
			c0.022-0.005,0.306-0.066,0.424-0.097c3.558-0.916,6.187-4.146,6.187-7.99v-22C172.5,37.694,168.806,34,164.25,34z M73.487,62.834
			c-0.208,0.127-0.451,0.173-0.67,0.173c-0.624,0-0.912-0.439-1.236-1.016l-3.43-6.006h-3.118v5.325
			c0,0.612-0.012,0.809-0.185,1.132c-0.185,0.335-0.566,0.566-1.063,0.566c-0.497,0-0.878-0.231-1.063-0.566
			c-0.173-0.323-0.185-0.52-0.185-1.132V47.992c0-0.37,0-0.809,0.358-1.167c0.358-0.358,0.797-0.358,1.166-0.358h4.851
			c3.118,0,5.105,2.01,5.105,4.805c0,2.345-1.421,3.846-3.257,4.366l2.945,5.14c0.289,0.508,0.381,0.716,0.393,1.028
			C74.111,62.21,73.915,62.58,73.487,62.834z M84.841,57.44c-0.3,0.3-0.693,0.3-1.039,0.3h-6.226c0,1.998,1.051,3.303,3.003,3.303
			c0.82,0,1.617-0.231,2.252-0.739c0.358-0.289,0.658-0.427,0.959-0.427c0.473,0,0.97,0.462,0.97,1.005
			c0,0.543-0.601,1.051-1.178,1.421c-0.739,0.485-1.802,0.751-3.061,0.751c-2.922,0-5.278-1.536-5.278-5.994
			c0-3.858,1.975-5.994,4.967-5.994c3.061,0,4.886,2.229,4.955,5.325C85.176,56.735,85.129,57.151,84.841,57.44z M96.379,61.39
			c0,0.647-0.046,0.855-0.208,1.12c-0.196,0.312-0.578,0.497-0.97,0.497c-0.381,0-0.739-0.15-0.959-0.462
			c-0.127-0.173-0.185-0.346-0.208-0.832c-0.866,1.028-1.836,1.34-3.061,1.34c-1.178,0-2.218-0.393-2.864-1.039
			c-1.132-1.155-1.293-3.026-1.293-4.967c0-1.917,0.162-3.788,1.293-4.943c0.647-0.647,1.663-1.04,2.841-1.04
			c1.247,0,2.218,0.3,3.072,1.317V47.98c0-0.566,0.035-0.774,0.173-1.051c0.162-0.312,0.497-0.554,1.005-0.554
			s0.843,0.243,1.005,0.554c0.139,0.277,0.173,0.485,0.173,1.051V61.39z M102.997,63.053c-1.825,0-3.026-0.346-4.077-1.062
			c-0.37-0.254-0.647-0.578-0.647-0.982c0-0.3,0.139-0.612,0.381-0.808c0.185-0.162,0.393-0.243,0.647-0.243
			c0.243,0,0.52,0.104,0.878,0.335c0.82,0.531,1.64,0.785,2.83,0.785c1.501,0,2.576-0.531,2.576-1.652
			c0-0.786-0.45-1.282-1.582-1.386l-1.883-0.173c-2.183-0.196-3.465-1.178-3.465-3.211c0-2.298,1.975-3.592,4.424-3.592
			c1.259,0,2.241,0.219,3.153,0.647c0.393,0.185,0.612,0.335,0.762,0.497c0.173,0.208,0.22,0.381,0.22,0.647
			c0,0.231-0.127,0.52-0.289,0.693c-0.196,0.196-0.416,0.3-0.693,0.3c-0.219,0-0.45-0.092-0.762-0.243
			c-0.739-0.358-1.536-0.612-2.437-0.612c-1.398,0-2.102,0.647-2.102,1.536c0,0.866,0.543,1.247,1.617,1.34l1.848,0.173
			c2.183,0.208,3.476,1.213,3.476,3.303C107.871,61.783,105.792,63.053,102.997,63.053z M118.127,62.002
			c-0.647,0.647-1.663,1.051-2.841,1.051c-1.247,0-2.218-0.312-3.072-1.328v4.401c0,0.566-0.035,0.774-0.173,1.051
			c-0.162,0.312-0.497,0.554-1.005,0.554c-0.508,0-0.843-0.243-1.005-0.554c-0.139-0.277-0.173-0.485-0.173-1.051v-13.41
			c0-0.647,0.046-0.855,0.208-1.12c0.196-0.312,0.578-0.497,0.97-0.497c0.381,0,0.739,0.15,0.959,0.462
			c0.127,0.185,0.185,0.358,0.208,0.832c0.866-1.028,1.825-1.34,3.061-1.34c1.178,0,2.218,0.393,2.864,1.04
			c1.132,1.155,1.294,3.026,1.294,4.966C119.421,58.976,119.259,60.847,118.127,62.002z M128.649,53.848
			c-0.243,0-0.508-0.081-0.912-0.312c-0.393-0.219-0.808-0.347-1.271-0.347c-1.34,0-2.391,0.993-2.391,2.622v5.59
			c0,0.566-0.035,0.774-0.173,1.051c-0.162,0.312-0.497,0.554-1.005,0.554c-0.508,0-0.843-0.243-1.005-0.554
			c-0.139-0.277-0.173-0.485-0.173-1.051v-8.674c0-0.647,0.046-0.855,0.208-1.12c0.196-0.312,0.578-0.497,0.97-0.497
			c0.381,0,0.739,0.15,0.959,0.462c0.127,0.185,0.185,0.358,0.208,0.855c0.658-0.82,1.756-1.363,2.98-1.363
			c0.866,0,1.49,0.162,2.056,0.543c0.404,0.266,0.705,0.612,0.705,1.063c0,0.335-0.139,0.647-0.347,0.855
			C129.261,53.721,128.949,53.848,128.649,53.848z M139.379,57.44c-0.3,0.3-0.693,0.3-1.039,0.3h-6.225
			c0,1.998,1.051,3.303,3.003,3.303c0.82,0,1.617-0.231,2.252-0.739c0.358-0.289,0.658-0.427,0.959-0.427
			c0.473,0,0.97,0.462,0.97,1.005c0,0.543-0.601,1.051-1.178,1.421c-0.739,0.485-1.802,0.751-3.061,0.751
			c-2.922,0-5.278-1.536-5.278-5.994c0-3.858,1.975-5.994,4.967-5.994c3.061,0,4.886,2.229,4.955,5.325
			C139.714,56.735,139.668,57.151,139.379,57.44z M150.513,61.401c0,0.578-0.023,0.797-0.173,1.063
			c-0.173,0.323-0.554,0.543-1.005,0.543c-0.381,0-0.67-0.139-0.855-0.335c-0.139-0.162-0.242-0.346-0.266-0.843
			c-0.924,0.901-1.709,1.213-3.142,1.213c-1.467,0-2.449-0.335-3.153-1.063c-0.601-0.612-0.936-1.513-0.936-2.506
			c0-1.964,1.398-3.396,4.054-3.396h3.107v-0.728c0-1.536-0.728-2.287-2.449-2.287c-0.936,0-1.559,0.266-2.241,0.785
			c-0.3,0.231-0.635,0.312-0.855,0.312c-0.243,0-0.508-0.104-0.681-0.312c-0.196-0.219-0.277-0.416-0.277-0.728
			c0-0.531,0.497-1.005,1.097-1.351c0.82-0.474,1.767-0.705,2.98-0.705c3.142,0,4.793,1.374,4.793,4.031V61.401z M162.259,61.39
			c0,0.647-0.046,0.855-0.208,1.12c-0.196,0.312-0.578,0.497-0.97,0.497c-0.381,0-0.739-0.15-0.959-0.462
			c-0.127-0.173-0.185-0.346-0.208-0.832c-0.866,1.028-1.837,1.34-3.061,1.34c-1.178,0-2.218-0.393-2.864-1.039
			c-1.132-1.155-1.294-3.026-1.294-4.967c0-1.917,0.162-3.788,1.294-4.943c0.647-0.647,1.663-1.04,2.841-1.04
			c1.247,0,2.218,0.3,3.072,1.317V47.98c0-0.566,0.035-0.774,0.173-1.051c0.162-0.312,0.497-0.554,1.005-0.554
			c0.508,0,0.843,0.243,1.005,0.554c0.139,0.277,0.173,0.485,0.173,1.051V61.39z"/>
		<path id="XMLID_209_" d="M71.524,51.295c0-1.629-1.132-2.61-2.795-2.61h-3.696v5.174h3.696
			C70.392,53.859,71.524,52.912,71.524,51.295z"/>
		<path id="XMLID_73_" d="M134.748,53.028c-1.132,0-1.94,0.601-2.333,1.478c-0.231,0.508-0.277,0.878-0.3,1.594h5.267
			c-0.046-0.716-0.092-1.086-0.323-1.594C136.665,53.628,135.856,53.028,134.748,53.028z"/>
		<path id="XMLID_72_" d="M80.209,53.028c-1.132,0-1.94,0.601-2.333,1.478c-0.231,0.508-0.277,0.878-0.3,1.594h5.267
			c-0.046-0.716-0.092-1.086-0.323-1.594C82.126,53.628,81.318,53.028,80.209,53.028z"/>
		<path id="XMLID_71_" d="M143.283,59.438c0,1.063,0.716,1.652,2.206,1.652c0.843,0,1.536-0.092,2.137-0.67
			c0.37-0.347,0.52-0.878,0.52-1.744v-0.924h-2.772C143.987,57.752,143.283,58.352,143.283,59.438z"/>
		<path id="XMLID_70_" d="M157.478,53.19c-2.125,0-2.426,1.79-2.426,3.869c0,2.079,0.3,3.869,2.426,3.869
			c2.137,0,2.437-1.79,2.437-3.869C159.915,54.98,159.614,53.19,157.478,53.19z"/>
	</g>
</g>
<g id="Layer_1">
</g>
</svg>
