<?xml version="1.0" encoding="iso-8859-1"?>
<!-- Generator: Adobe Illustrator 19.2.0, SVG Export Plug-In . SVG Version: 6.00 Build 0)  -->
<!DOCTYPE svg PUBLIC "-//W3C//DTD SVG 1.1//EN" "http://www.w3.org/Graphics/SVG/1.1/DTD/svg11.dtd">
<svg version="1.1" xmlns="http://www.w3.org/2000/svg" xmlns:xlink="http://www.w3.org/1999/xlink" x="0px" y="0px"
	 viewBox="0 0 224 112" style="enable-background:new 0 0 224 112;" xml:space="preserve">
<g id="unscan">
	<g>
		<path d="M46.325,45.842c-0.334-0.334-0.836-0.433-1.271-0.253c-0.436,0.181-0.72,0.606-0.72,1.078v4.667
			c0,0.644,0.522,1.167,1.167,1.167H49V63c0,0.643-0.523,1.167-1.167,1.167H38.5c-0.643,0-1.167-0.523-1.167-1.167V46.666
			c0-0.644-0.522-1.167-1.167-1.167S35,46.022,35,46.666V63c0,1.93,1.57,3.5,3.5,3.5h9.333c1.93,0,3.5-1.57,3.5-3.5V51.333
			c0-0.304-0.119-0.602-0.342-0.825L46.325,45.842z"/>
		<path d="M78.167,45.5C77.522,45.5,77,46.022,77,46.666v15.167L65.1,45.966c-0.301-0.402-0.826-0.565-1.302-0.407
			C63.321,45.718,63,46.164,63,46.666v18.667c0,0.644,0.522,1.167,1.167,1.167c0.644,0,1.167-0.522,1.167-1.167V50.166l11.9,15.867
			c0.225,0.299,0.573,0.467,0.934,0.467c0.123,0,0.247-0.02,0.369-0.06c0.476-0.159,0.798-0.605,0.798-1.107V46.666
			C79.333,46.022,78.811,45.5,78.167,45.5z"/>
		<path d="M187.833,45.5c-0.644,0-1.167,0.522-1.167,1.167v15.167l-11.9-15.867c-0.301-0.402-0.826-0.565-1.302-0.407
			c-0.476,0.159-0.798,0.605-0.798,1.107v18.667c0,0.644,0.522,1.167,1.167,1.167S175,65.977,175,65.333V50.166l11.9,15.867
			c0.225,0.299,0.573,0.467,0.934,0.467c0.123,0,0.247-0.02,0.369-0.06c0.476-0.159,0.798-0.605,0.798-1.107V46.666
			C189,46.022,188.478,45.5,187.833,45.5z"/>
		<path d="M155.092,46.257c-0.171-0.455-0.606-0.757-1.092-0.757s-0.922,0.302-1.092,0.757l-7,18.667
			c-0.226,0.603,0.079,1.276,0.683,1.502c0.603,0.226,1.276-0.08,1.502-0.683l2.779-7.41h6.258l2.779,7.41
			c0.176,0.468,0.62,0.757,1.093,0.757c0.136,0,0.274-0.024,0.409-0.075c0.603-0.226,0.909-0.899,0.683-1.502L155.092,46.257z
			 M151.746,56L154,49.989L156.254,56H151.746z"/>
		<path d="M103.833,45.5H94.5c-1.93,0-3.5,1.57-3.5,3.5v4.667c0,1.93,1.57,3.5,3.5,3.5h9.333c0.643,0,1.167,0.523,1.167,1.167V63
			c0,0.643-0.523,1.167-1.167,1.167H94.5c-0.643,0-1.167-0.523-1.167-1.167v-1.167c0-0.644-0.522-1.167-1.167-1.167
			S91,61.189,91,61.833V63c0,1.93,1.57,3.5,3.5,3.5h9.333c1.93,0,3.5-1.57,3.5-3.5v-4.667c0-1.93-1.57-3.5-3.5-3.5H94.5
			c-0.643,0-1.167-0.523-1.167-1.167V49c0-0.643,0.523-1.167,1.167-1.167h9.333c0.643,0,1.167,0.523,1.167,1.167v1.167
			c0,0.644,0.522,1.167,1.167,1.167s1.167-0.522,1.167-1.167V49C107.333,47.07,105.763,45.5,103.833,45.5z"/>
		<path d="M131.833,45.5H122.5c-1.93,0-3.5,1.57-3.5,3.5v14c0,1.93,1.57,3.5,3.5,3.5h9.333c1.93,0,3.5-1.57,3.5-3.5v-1.167
			c0-0.644-0.522-1.167-1.167-1.167S133,61.189,133,61.833V63c0,0.643-0.523,1.167-1.167,1.167H122.5
			c-0.643,0-1.167-0.523-1.167-1.167V49c0-0.643,0.523-1.167,1.167-1.167h9.333c0.643,0,1.167,0.523,1.167,1.167v1.167
			c0,0.644,0.522,1.167,1.167,1.167s1.167-0.522,1.167-1.167V49C135.333,47.07,133.763,45.5,131.833,45.5z"/>
	</g>
</g>
<g id="Layer_1">
</g>
</svg>
