<?xml version="1.0" encoding="iso-8859-1"?>
<!-- Generator: Adobe Illustrator 19.2.0, SVG Export Plug-In . SVG Version: 6.00 Build 0)  -->
<!DOCTYPE svg PUBLIC "-//W3C//DTD SVG 1.1//EN" "http://www.w3.org/Graphics/SVG/1.1/DTD/svg11.dtd">
<svg version="1.1" xmlns="http://www.w3.org/2000/svg" xmlns:xlink="http://www.w3.org/1999/xlink" x="0px" y="0px"
	 viewBox="0 0 224 112" style="enable-background:new 0 0 224 112;" xml:space="preserve">
<g id="upchannel">
	<path d="M58.323,55.442V44.289h4.015v11.042c0,2.593,1.506,4.378,4.378,4.378c2.872,0,4.35-1.785,4.35-4.378V44.289h4.043v11.154
		c0,4.601-2.733,7.78-8.393,7.78C61.056,63.222,58.323,60.043,58.323,55.442z M81.168,61.159v6.86h-3.541V49.419h3.541v1.701
		c1.032-1.311,2.51-2.035,4.155-2.035c3.458,0,5.967,2.565,5.967,7.055s-2.51,7.083-5.967,7.083
		C83.734,63.222,82.284,62.553,81.168,61.159z M87.638,56.139c0-2.314-1.394-3.904-3.43-3.904c-1.143,0-2.426,0.641-3.039,1.534
		v4.74c0.586,0.864,1.896,1.562,3.039,1.562C86.243,60.071,87.638,58.482,87.638,56.139z M92.849,53.602
		c0-5.744,4.322-9.62,9.927-9.62c4.071,0,6.441,2.203,7.752,4.545l-3.402,1.673c-0.781-1.506-2.454-2.705-4.35-2.705
		c-3.402,0-5.856,2.593-5.856,6.107s2.454,6.107,5.856,6.107c1.896,0,3.569-1.199,4.35-2.705l3.402,1.645
		c-1.311,2.314-3.681,4.573-7.752,4.573C97.171,63.222,92.849,59.318,92.849,53.602z M121.252,62.887v-8.198
		c0-1.868-0.976-2.454-2.482-2.454c-1.394,0-2.482,0.781-3.067,1.562v9.09h-3.569V44.289h3.569v6.86
		c0.864-1.004,2.51-2.063,4.713-2.063c2.956,0,4.378,1.617,4.378,4.238v9.564H121.252z M135.835,62.887v-1.422
		c-0.92,1.115-2.51,1.757-4.266,1.757c-2.147,0-4.657-1.45-4.657-4.461c0-3.179,2.51-4.35,4.657-4.35
		c1.813,0,3.374,0.586,4.266,1.645v-1.701c0-1.366-1.171-2.259-2.956-2.259c-1.422,0-2.761,0.558-3.876,1.589l-1.394-2.482
		c1.645-1.478,3.764-2.119,5.884-2.119c3.095,0,5.911,1.227,5.911,5.103v8.7H135.835z M135.835,59.653V57.98
		c-0.586-0.781-1.701-1.199-2.844-1.199c-1.394,0-2.537,0.753-2.537,2.036c0,1.283,1.143,2.008,2.537,2.008
		C134.134,60.824,135.25,60.434,135.835,59.653z M151.398,62.887v-8.142c0-1.868-0.976-2.51-2.482-2.51
		c-1.394,0-2.454,0.781-3.067,1.562v9.09h-3.541V49.419h3.541v1.729c0.864-1.004,2.537-2.063,4.712-2.063
		c2.984,0,4.406,1.673,4.406,4.294v9.509H151.398z M166.971,62.887v-8.142c0-1.868-0.976-2.51-2.482-2.51
		c-1.394,0-2.454,0.781-3.067,1.562v9.09h-3.541V49.419h3.541v1.729c0.864-1.004,2.537-2.063,4.712-2.063
		c2.984,0,4.406,1.673,4.406,4.294v9.509H166.971z M172.634,56.139c0-3.904,2.9-7.055,6.971-7.055c4.043,0,6.748,3.011,6.748,7.389
		v0.837h-10.01c0.251,1.645,1.589,3.012,3.876,3.012c1.143,0,2.705-0.474,3.569-1.311l1.589,2.342
		c-1.338,1.227-3.458,1.868-5.549,1.868C175.73,63.222,172.634,60.461,172.634,56.139z M179.605,51.985
		c-2.203,0-3.151,1.534-3.29,2.872h6.636C182.84,53.574,181.948,51.985,179.605,51.985z M188.459,62.887V44.289H192v18.599H188.459z
		 M41.62,43.982c-5.305,0-9.62,4.316-9.62,9.62s4.316,9.62,9.62,9.62s9.62-4.316,9.62-9.62S46.925,43.982,41.62,43.982z
		 M41.62,45.753c0.654,0,1.289,0.081,1.897,0.232c-0.221,0.957-0.725,1.831-1.459,2.509c-0.914,0.846-2.104,1.311-3.35,1.311
		c-0.489,0-0.885,0.396-0.885,0.885c0,1.246-0.466,2.436-1.311,3.35c-0.678,0.733-1.552,1.237-2.509,1.459
		c-0.151-0.608-0.232-1.243-0.232-1.897C33.771,49.274,37.292,45.753,41.62,45.753z M34.628,57.167
		c1.213-0.325,2.316-0.986,3.184-1.925c0.959-1.037,1.558-2.334,1.731-3.719c1.385-0.172,2.682-0.772,3.719-1.731
		c0.938-0.868,1.599-1.971,1.925-3.183c1.125,0.576,2.094,1.416,2.824,2.437c0.003,0.065,0.004,0.127,0.004,0.187
		c0,2.723-2.215,4.938-4.938,4.938c-0.489,0-0.885,0.396-0.885,0.885c0,2.723-2.215,4.938-4.938,4.938
		c-0.06,0-0.123-0.002-0.187-0.004C36.044,59.261,35.204,58.293,34.628,57.167z M41.62,61.451c-0.613,0-1.21-0.071-1.783-0.204
		c2.174-0.911,3.772-2.934,4.073-5.355c2.421-0.301,4.444-1.899,5.355-4.073c0.134,0.573,0.204,1.17,0.204,1.783
		C49.469,57.93,45.948,61.451,41.62,61.451z"/>
</g>
<g id="Layer_1">
</g>
</svg>
