<?xml version="1.0" encoding="UTF-8" standalone="no"?>
<svg width="16px" height="16px" viewBox="0 0 16 16" version="1.1" xmlns="http://www.w3.org/2000/svg" xmlns:xlink="http://www.w3.org/1999/xlink">
    <!-- Generator: Sketch 3.6.1 (26313) - http://www.bohemiancoding.com/sketch -->
    <title>icon-globe</title>
    <desc>Created with Sketch.</desc>
    <defs></defs>
    <g id="Page-1" stroke="none" stroke-width="1" fill="none" fill-rule="evenodd">
        <g id="Team" transform="translate(-713.000000, -732.000000)">
            <g id="team-section" transform="translate(0.000000, 172.000000)">
                <g id="jeff-info" transform="translate(632.000000, 460.000000)">
                    <g id="Group-3" transform="translate(37.000000, 96.000000)">
                        <g id="icon-globe" transform="translate(40.000000, 0.000000)">
                            <rect id="Rectangle-72-Copy" x="0" y="0" width="24" height="24"></rect>
                            <g id="Page-1" transform="translate(4.000000, 4.000000)" fill="#CCCCCC">
                                <path d="M3.25,13.1699 C3.49,12.8889 3.921,12.5199 4.61,12.1989 C5.021,13.6699 5.5,14.4999 5.5,14.4999 L5.691,14.5999 C4.78,14.2789 3.941,13.8089 3.25,13.1699 L3.25,13.1699 Z M10.5,14.4999 C10.5,14.4999 10.981,13.6699 11.391,12.1989 C12.101,12.5289 12.53,12.9099 12.761,13.1799 C12.051,13.8399 11.191,14.3199 10.25,14.6289 L10.5,14.4999 Z M6.421,14.8199 C6.24,14.3999 5.82,13.3589 5.49,11.8789 C6.04,11.7089 6.7,11.5899 7.5,11.5489 L7.5,14.9999 C7.131,14.9689 6.771,14.8999 6.421,14.8199 L6.421,14.8199 Z M8.49,11.5489 C9.301,11.5899 9.961,11.7089 10.511,11.8689 C10.181,13.3689 9.761,14.4199 9.58,14.8299 C9.221,14.9199 8.86,14.9689 8.49,14.9999 L8.49,11.5489 Z M1.011,8.4809 L4.051,8.4809 C4.091,9.4199 4.191,10.2599 4.33,10.9899 C3.261,11.3299 2.62,11.7789 2.301,12.0999 C1.561,11.0699 1.101,9.8299 1.011,8.4809 L1.011,8.4809 Z M5.051,8.4809 L7.5,8.4809 L7.5,10.4999 C6.631,10.5199 5.9,10.6189 5.271,10.7499 C5.15,10.0489 5.08,9.2789 5.051,8.4809 L5.051,8.4809 Z M8.49,10.4999 L8.49,8.4809 L10.95,8.4809 C10.921,9.2789 10.851,10.0489 10.74,10.7399 C10.101,10.6089 9.37,10.5199 8.49,10.4999 L8.49,10.4999 Z M11.671,10.9809 C11.82,10.2499 11.921,9.4099 11.95,8.4809 L15.011,8.4809 C14.921,9.8299 14.471,11.0699 13.721,12.1089 C13.4,11.7889 12.771,11.3299 11.671,10.9809 L11.671,10.9809 Z M8.49,4.9999 C9.36,4.9689 10.091,4.8789 10.721,4.7599 C10.86,5.5489 10.95,6.4589 10.971,7.4589 L8.49,7.4589 L8.49,4.9999 Z M5.29,4.7499 C5.91,4.8689 6.641,4.9689 7.5,4.9899 L7.5,7.4589 L5.03,7.4589 C5.051,6.4589 5.15,5.5489 5.29,4.7499 L5.29,4.7499 Z M2.57,3.6289 C2.931,3.9199 3.511,4.2499 4.351,4.5199 C4.181,5.3299 4.051,6.2989 4.03,7.4589 L1.03,7.4589 C1.15,6.0099 1.7,4.6989 2.57,3.6289 L2.57,3.6289 Z M11.65,4.5199 C12.511,4.2499 13.091,3.9099 13.45,3.6189 C14.33,4.6899 14.881,6.0099 15,7.4589 L11.971,7.4589 C11.95,6.2989 11.83,5.3299 11.65,4.5199 L11.65,4.5199 Z M3.561,2.6289 C4.171,2.1289 4.87,1.7399 5.62,1.4689 L5.521,1.5289 C5.521,1.5289 5.08,2.1289 4.681,3.3199 C4.191,3.0999 3.82,2.8499 3.561,2.6289 L3.561,2.6289 Z M10.481,1.5289 L10.341,1.4489 C11.12,1.7189 11.83,2.1089 12.461,2.6189 C12.2,2.8499 11.82,3.0999 11.32,3.3299 C10.921,2.1289 10.481,1.5289 10.481,1.5289 L10.481,1.5289 Z M5.53,3.6389 C5.83,2.4399 6.181,1.6189 6.37,1.2309 C6.731,1.1389 7.11,1.0799 7.5,1.0489 L7.5,3.9399 C6.721,3.9099 6.07,3.7889 5.53,3.6389 L5.53,3.6389 Z M8.49,1.0489 C8.881,1.0699 9.261,1.1389 9.631,1.2189 C9.82,1.5999 10.171,2.4299 10.481,3.6389 C9.931,3.7889 9.271,3.9099 8.49,3.9489 L8.49,1.0489 Z M0,7.9899 C0,12.3999 3.57,15.9809 7.99,15.9809 C12.4,15.9809 15.981,12.3999 15.981,7.9899 C15.981,3.5799 12.4,-0.0001 7.99,-0.0001 C3.57,-0.0001 0,3.5799 0,7.9899 L0,7.9899 Z" id="Fill-1"></path>
                            </g>
                        </g>
                    </g>
                </g>
            </g>
        </g>
    </g>
</svg>