<?xml version="1.0" encoding="UTF-8" standalone="no"?>
<svg width="20px" height="20px" viewBox="0 0 20 20" version="1.1" xmlns="http://www.w3.org/2000/svg" xmlns:xlink="http://www.w3.org/1999/xlink" xmlns:sketch="http://www.bohemiancoding.com/sketch/ns">
    <!-- Generator: sketchtool 3.5.1 (25234) - http://www.bohemiancoding.com/sketch -->
    <title>icon-x</title>
    <desc>Created with sketchtool.</desc>
    <defs></defs>
    <g id="Page-1" stroke="none" stroke-width="1" fill="none" fill-rule="evenodd" sketch:type="MSPage">
        <g id="Contact" sketch:type="MSArtboardGroup" transform="translate(-710.000000, -302.000000)" fill="#FFFFFF">
            <g id="icon-x" sketch:type="MSLayerGroup" transform="translate(710.000000, 302.000000)">
                <g id="Page-1" sketch:type="MSShapeGroup">
                    <path d="M4,4 L0,4 L0,0 L4,0 L4,4 Z" id="Fill-1"></path>
                    <path d="M8,8 L4,8 L4,4 L8,4 L8,8 Z" id="Fill-2"></path>
                    <path d="M12,12 L8,12 L8,8 L12,8 L12,12 Z" id="Fill-3"></path>
                    <path d="M16,8 L12,8 L12,4 L16,4 L16,8 Z" id="Fill-4"></path>
                    <path d="M20,4 L16,4 L16,0 L20,0 L20,4 Z" id="Fill-5"></path>
                    <path d="M20,20 L16,20 L16,16 L20,16 L20,20 Z" id="Fill-6"></path>
                    <path d="M16,16 L12,16 L12,12 L16,12 L16,16 Z" id="Fill-7"></path>
                    <path d="M8,16 L4,16 L4,12 L8,12 L8,16 Z" id="Fill-8"></path>
                    <path d="M4,20 L0,20 L0,16 L4,16 L4,20 Z" id="Fill-9"></path>
                </g>
            </g>
        </g>
    </g>
</svg>