<?xml version="1.0" encoding="UTF-8" standalone="no"?>
<svg width="44px" height="20px" viewBox="0 0 44 20" version="1.1" xmlns="http://www.w3.org/2000/svg" xmlns:xlink="http://www.w3.org/1999/xlink" xmlns:sketch="http://www.bohemiancoding.com/sketch/ns">
    <!-- Generator: sketchtool 3.5.2 (25235) - http://www.bohemiancoding.com/sketch -->
    <title>icon-404</title>
    <desc>Created with sketchtool.</desc>
    <defs></defs>
    <g id="Page-1" stroke="none" stroke-width="1" fill="none" fill-rule="evenodd" sketch:type="MSPage">
        <g id="404" sketch:type="MSArtboardGroup" transform="translate(-698.000000, -302.000000)" fill="#FFFFFF">
            <g id="icon-404" sketch:type="MSLayerGroup" transform="translate(698.000000, 302.000000)">
                <path d="M0,12 L4,12 L4,8 L0,8 L0,12 Z" id="Fill-1" sketch:type="MSShapeGroup"></path>
                <path d="M4,12 L8,12 L8,8 L4,8 L4,12 Z" id="Fill-2" sketch:type="MSShapeGroup"></path>
                <path d="M8,16 L12,16 L12,12 L8,12 L8,16 Z" id="Fill-3" sketch:type="MSShapeGroup"></path>
                <path d="M8,20 L12,20 L12,16 L8,16 L8,20 Z" id="Fill-4" sketch:type="MSShapeGroup"></path>
                <path d="M8,4 L12,4 L12,0 L8,0 L8,4 Z" id="Fill-5" sketch:type="MSShapeGroup"></path>
                <path d="M8,8 L12,8 L12,4 L8,4 L8,8 Z" id="Fill-6" sketch:type="MSShapeGroup"></path>
                <path d="M16,12 L20,12 L20,8 L16,8 L16,12 Z" id="Fill-7" sketch:type="MSShapeGroup"></path>
                <path d="M16,16 L20,16 L20,12 L16,12 L16,16 Z" id="Fill-8" sketch:type="MSShapeGroup"></path>
                <path d="M20,4 L24,4 L24,0 L20,0 L20,4 Z" id="Fill-9" sketch:type="MSShapeGroup"></path>
                <path d="M20,20 L24,20 L24,16 L20,16 L20,20 Z" id="Fill-10" sketch:type="MSShapeGroup"></path>
                <path d="M16,8 L20,8 L20,4 L16,4 L16,8 Z" id="Fill-11" sketch:type="MSShapeGroup"></path>
                <path d="M16,4 L20,4 L20,0 L16,0 L16,4 Z" id="Fill-12" sketch:type="MSShapeGroup"></path>
                <path d="M24,4 L28,4 L28,0 L24,0 L24,4 Z" id="Fill-13" sketch:type="MSShapeGroup"></path>
                <path d="M24,20 L28,20 L28,16 L24,16 L24,20 Z" id="Fill-14" sketch:type="MSShapeGroup"></path>
                <path d="M16,20 L20,20 L20,16 L16,16 L16,20 Z" id="Fill-15" sketch:type="MSShapeGroup"></path>
                <path d="M24,12 L28,12 L28,8 L24,8 L24,12 Z" id="Fill-16" sketch:type="MSShapeGroup"></path>
                <path d="M24,16 L28,16 L28,12 L24,12 L24,16 Z" id="Fill-17" sketch:type="MSShapeGroup"></path>
                <path d="M24,8 L28,8 L28,4 L24,4 L24,8 Z" id="Fill-18" sketch:type="MSShapeGroup"></path>
                <path d="M0,8 L4,8 L4,4 L0,4 L0,8 Z" id="Fill-19" sketch:type="MSShapeGroup"></path>
                <path d="M0,4 L4,4 L4,0 L0,0 L0,4 Z" id="Fill-20" sketch:type="MSShapeGroup"></path>
                <path d="M32,12 L36,12 L36,8 L32,8 L32,12 Z" id="Fill-21" sketch:type="MSShapeGroup"></path>
                <path d="M36,12 L40,12 L40,8 L36,8 L36,12 Z" id="Fill-22" sketch:type="MSShapeGroup"></path>
                <path d="M40,16 L44,16 L44,12 L40,12 L40,16 Z" id="Fill-23" sketch:type="MSShapeGroup"></path>
                <path d="M40,20 L44,20 L44,16 L40,16 L40,20 Z" id="Fill-24" sketch:type="MSShapeGroup"></path>
                <path d="M40,4 L44,4 L44,0 L40,0 L40,4 Z" id="Fill-25" sketch:type="MSShapeGroup"></path>
                <path d="M40,8 L44,8 L44,4 L40,4 L40,8 Z" id="Fill-26" sketch:type="MSShapeGroup"></path>
                <path d="M32,8 L36,8 L36,4 L32,4 L32,8 Z" id="Fill-27" sketch:type="MSShapeGroup"></path>
                <path d="M32,4 L36,4 L36,0 L32,0 L32,4 Z" id="Fill-28" sketch:type="MSShapeGroup"></path>
            </g>
        </g>
    </g>
</svg>