<?xml version="1.0" encoding="utf-8"?>
<!-- Generator: Adobe Illustrator 19.1.0, SVG Export Plug-In . SVG Version: 6.00 Build 0)  -->
<!DOCTYPE svg PUBLIC "-//W3C//DTD SVG 1.1//EN" "http://www.w3.org/Graphics/SVG/1.1/DTD/svg11.dtd">
<svg version="1.1" xmlns="http://www.w3.org/2000/svg" xmlns:xlink="http://www.w3.org/1999/xlink" x="0px" y="0px"
	 viewBox="0 0 360 210" style="enable-background:new 0 0 360 210;" xml:space="preserve">
<style type="text/css">
	.st0{fill:none;}
	.st1{fill:none;stroke:#3F7CB2;stroke-width:2;stroke-linecap:round;stroke-linejoin:round;stroke-miterlimit:10;}
	.st2{fill:none;stroke:#F2BE55;stroke-width:2;stroke-linecap:round;stroke-linejoin:round;stroke-miterlimit:10;}
	.st3{fill:#FFFFFF;stroke:#F2BE55;stroke-width:2;stroke-linecap:round;stroke-linejoin:round;stroke-miterlimit:10;}
	.st4{fill:#3F7CB2;}
	.st5{fill:#FFFFFF;stroke:#3F7CB2;stroke-width:2;stroke-linecap:round;stroke-linejoin:round;stroke-miterlimit:10;}
	.st6{opacity:0.1;fill:none;stroke:#F2BE55;stroke-width:2;stroke-linecap:round;stroke-linejoin:round;stroke-miterlimit:10;}
	.st7{opacity:0.1;fill:#7F622E;}
	.st8{fill:none;stroke:#3F7CB2;stroke-width:2;stroke-linecap:round;stroke-linejoin:round;}
	.st9{opacity:0.2;}
	.st10{fill:none;stroke:#FF00FF;stroke-width:2;stroke-linecap:round;stroke-linejoin:round;stroke-miterlimit:10;}
	.st11{fill:none;stroke:#00FFFF;stroke-width:0.25;stroke-linecap:round;stroke-linejoin:round;stroke-miterlimit:10;}
	.st12{fill:none;stroke:#3F7CB2;stroke-linecap:round;stroke-linejoin:round;stroke-miterlimit:10;}
	.st13{clip-path:url(#SVGID_2_);}
</style>
<g id="border">
</g>
<g id="Layer_1">
	<g>
		<rect class="st0" width="360" height="210"/>
		<g>
			<rect x="52" y="24" class="st1" width="126" height="162"/>
			<rect x="146" y="54" class="st2" width="20" height="12"/>
			<line class="st1" x1="70" y1="60" x2="78" y2="60"/>
			<line class="st1" x1="90" y1="60" x2="126" y2="60"/>
			<line class="st1" x1="156" y1="60" x2="156" y2="60"/>
			<line class="st1" x1="152" y1="60" x2="152" y2="60"/>
			<line class="st1" x1="160" y1="60" x2="160" y2="60"/>
			<line class="st1" x1="70" y1="78" x2="78" y2="78"/>
			<line class="st1" x1="90" y1="78" x2="132" y2="78"/>
			<line class="st1" x1="152" y1="78" x2="160" y2="78"/>
			<line class="st1" x1="70" y1="96" x2="78" y2="96"/>
			<line class="st1" x1="90" y1="96" x2="126" y2="96"/>
			<line class="st1" x1="152" y1="96" x2="160" y2="96"/>
			<line class="st1" x1="70" y1="114" x2="78" y2="114"/>
			<line class="st1" x1="90" y1="114" x2="132" y2="114"/>
			<line class="st1" x1="152" y1="114" x2="160" y2="114"/>
			<line class="st1" x1="70" y1="132" x2="78" y2="132"/>
			<line class="st1" x1="90" y1="132" x2="126" y2="132"/>
			<line class="st1" x1="152" y1="132" x2="160" y2="132"/>
			<line class="st1" x1="70" y1="150" x2="78" y2="150"/>
			<line class="st1" x1="90" y1="150" x2="132" y2="150"/>
			<line class="st1" x1="152" y1="150" x2="160" y2="150"/>
			<line class="st1" x1="70" y1="168" x2="78" y2="168"/>
			<line class="st1" x1="90" y1="168" x2="126" y2="168"/>
			<line class="st1" x1="152" y1="168" x2="160" y2="168"/>
			<line class="st1" x1="70" y1="42" x2="136" y2="42"/>
			<rect x="146" y="84" class="st3" width="162" height="102"/>
			<g>
				<path class="st4" d="M185.8,112.3v41.8H196c0.7,0,1.2,0.1,1.5,0.4c0.3,0.3,0.5,0.6,0.5,1.1c0,0.4-0.2,0.8-0.5,1.1
					c-0.3,0.3-0.8,0.4-1.5,0.4h-23.2c-0.7,0-1.2-0.1-1.5-0.4c-0.3-0.3-0.5-0.6-0.5-1.1c0-0.4,0.2-0.8,0.5-1.1
					c0.3-0.3,0.8-0.4,1.5-0.4h10.1v-37.7l-9.6,3c-0.5,0.1-0.8,0.2-1,0.2c-0.4,0-0.7-0.1-1-0.4c-0.3-0.3-0.4-0.6-0.4-1
					c0-0.4,0.1-0.7,0.4-1c0.2-0.2,0.6-0.4,1.2-0.6L185.8,112.3z"/>
				<path class="st4" d="M214.9,154.1h22.7v-1.2c0-0.7,0.1-1.2,0.4-1.5s0.6-0.5,1.1-0.5c0.4,0,0.8,0.2,1.1,0.5s0.4,0.8,0.4,1.5v4.1
					H212v-4.4c6-5.4,11.8-10.9,17.5-16.5c2.6-2.6,4.5-4.5,5.4-5.7c1-1.2,1.7-2.3,2-3.2c0.4-0.9,0.5-1.9,0.5-2.8c0-2.5-1-4.8-3.1-6.7
					c-2-1.9-4.5-2.9-7.4-2.9c-2.6,0-4.9,0.7-6.9,2.2s-3.3,3.3-3.9,5.5c-0.1,0.6-0.3,0.9-0.5,1.1c-0.3,0.2-0.6,0.4-1,0.4
					c-0.4,0-0.7-0.1-1-0.4c-0.3-0.3-0.4-0.6-0.4-1c0-1.1,0.6-2.6,1.8-4.6c1.2-1.9,2.9-3.4,5.1-4.5c2.2-1.1,4.4-1.7,6.7-1.7
					c3.7,0,6.8,1.3,9.5,3.8c2.6,2.6,4,5.4,4,8.7c0,1.4-0.2,2.6-0.7,3.7c-0.4,1.1-1.2,2.4-2.3,3.7c-1.1,1.3-3,3.4-5.7,6.1
					c-6.9,6.8-12.6,12.2-16.9,15.9V154.1z"/>
				<path class="st4" d="M276.8,133c2.7,1.2,4.8,2.9,6.2,5c1.4,2.1,2.1,4.3,2.1,6.6c0,3.5-1.4,6.7-4.3,9.4s-6.5,4.1-10.8,4.1
					c-2.5,0-5.2-0.5-7.9-1.6s-4.6-2.2-5.7-3.3c-0.4-0.4-0.5-0.8-0.5-1.2c0-0.4,0.1-0.7,0.4-1s0.6-0.4,1-0.4s0.8,0.2,1.3,0.5
					c3.6,2.7,7.5,4,11.5,4c3.4,0,6.3-1.1,8.6-3.2s3.5-4.5,3.5-7.2c0-1.8-0.6-3.5-1.7-5.2s-2.8-3-4.9-4c-2.1-1-4.3-1.5-6.5-1.5
					c-0.7,0-1.2-0.1-1.5-0.4c-0.3-0.3-0.5-0.6-0.5-1.1c0-0.4,0.1-0.8,0.4-1.1s0.7-0.4,1.3-0.4l2.5,0c2.6,0,4.8-0.8,6.6-2.4
					s2.6-3.5,2.6-5.6c0-2.2-0.9-4.1-2.7-5.8s-4.2-2.5-7.1-2.5c-2,0-3.9,0.4-5.6,1.1s-3.1,1.7-4.1,2.9c-0.4,0.5-0.7,0.8-0.9,0.9
					s-0.4,0.2-0.7,0.2c-0.4,0-0.7-0.1-1-0.4c-0.3-0.3-0.4-0.6-0.4-1c0-0.9,1-2.1,3.1-3.6c2.8-2,6.1-3,9.7-3c3.7,0,6.8,1.1,9.2,3.4
					c2.4,2.2,3.6,4.9,3.6,8c0,2-0.6,3.8-1.7,5.6S279.1,132,276.8,133z"/>
			</g>
		</g>
	</g>
</g>
</svg>
