<?xml version="1.0" encoding="utf-8"?>
<!-- Generator: Adobe Illustrator 19.1.0, SVG Export Plug-In . SVG Version: 6.00 Build 0)  -->
<!DOCTYPE svg PUBLIC "-//W3C//DTD SVG 1.1//EN" "http://www.w3.org/Graphics/SVG/1.1/DTD/svg11.dtd">
<svg version="1.1" xmlns="http://www.w3.org/2000/svg" xmlns:xlink="http://www.w3.org/1999/xlink" x="0px" y="0px"
	 viewBox="0 0 360 210" style="enable-background:new 0 0 360 210;" xml:space="preserve">
<style type="text/css">
	.st0{fill:none;}
	.st1{fill:none;stroke:#3F7CB2;stroke-width:2;stroke-linecap:round;stroke-linejoin:round;stroke-miterlimit:10;}
	.st2{fill:none;stroke:#F2BE55;stroke-width:2;stroke-linecap:round;stroke-linejoin:round;stroke-miterlimit:10;}
	.st3{fill:#FFFFFF;stroke:#F2BE55;stroke-width:2;stroke-linecap:round;stroke-linejoin:round;stroke-miterlimit:10;}
	.st4{fill:#3F7CB2;}
	.st5{fill:#FFFFFF;stroke:#3F7CB2;stroke-width:2;stroke-linecap:round;stroke-linejoin:round;stroke-miterlimit:10;}
	.st6{opacity:0.1;fill:none;stroke:#F2BE55;stroke-width:2;stroke-linecap:round;stroke-linejoin:round;stroke-miterlimit:10;}
	.st7{opacity:0.1;fill:#7F622E;}
	.st8{fill:none;stroke:#3F7CB2;stroke-width:2;stroke-linecap:round;stroke-linejoin:round;}
	.st9{opacity:0.2;}
	.st10{fill:none;stroke:#FF00FF;stroke-width:2;stroke-linecap:round;stroke-linejoin:round;stroke-miterlimit:10;}
	.st11{fill:none;stroke:#00FFFF;stroke-width:0.25;stroke-linecap:round;stroke-linejoin:round;stroke-miterlimit:10;}
	.st12{fill:none;stroke:#3F7CB2;stroke-linecap:round;stroke-linejoin:round;stroke-miterlimit:10;}
	.st13{clip-path:url(#SVGID_2_);}
</style>
<g id="border">
</g>
<g id="Layer_1">
	<g>
		<path class="st7" d="M141.3,55.9c-1.2-0.2-2.3-0.4-3.4,0c-2.2,0.7-3.5,3-5.3,4.4c-1.9,1.4-3.9,2.2-5.3,4.1
			c-1.4,1.9-2.1,3.9-2.8,6.1c-0.7,2.2-3.6,4.2-3.6,6.6c0,2.4,3.7,4.2,4.4,6.3c0.7,2.2-0.7,5.5,0.6,7.4c1.4,1.9,3.1,4,5,5.4
			c1.9,1.4,4.9,0.7,7.2,1.5c2.2,0.7,4.3,0,6.7,0c1.2,0,2.4,0.6,3.7,1.2L141.3,55.9z"/>
		<g>
			<polygon class="st1" points="161.4,175 48,180 49.4,33.8 137.1,30 			"/>
			<g>
				<g>
					<g>
						<polyline class="st8" points="61.5,60.2 62.4,58.7 64.8,60.6 65.9,58.6 						"/>
					</g>
				</g>
			</g>
			<g>
				<g>
					<g>
						<polyline class="st8" points="76.2,59.5 77,58.1 79.4,59.9 80.6,57.9 83,59.8 84.1,57.8 86.5,59.6 87.7,57.6 90.1,59.5 
							91.2,57.5 93.6,59.3 94.8,57.3 97.2,59.1 98.4,57.1 100.8,59 101.9,57 						"/>
					</g>
				</g>
			</g>
			<g>
				<g>
					<g>
						<polyline class="st8" points="61.8,74.5 62.6,73 65,74.8 66.1,72.8 68.6,74.7 69.4,73.2 						"/>
					</g>
				</g>
			</g>
			<g>
				<g>
					<g>
						<polyline class="st8" points="76.8,73.8 77.6,72.3 80.1,74.2 81.2,72.2 83.6,74 84.8,72 87.2,73.9 88.3,71.9 90.7,73.7 
							91.9,71.7 94.3,73.6 95.4,71.6 97.8,73.4 99,71.4 101.4,73.3 102.5,71.3 						"/>
					</g>
				</g>
			</g>
			<g>
				<g>
					<g>
						<polyline class="st8" points="123.5,71.8 124.3,70.3 126.7,72.1 127.9,70.2 130.3,72 131.1,70.5 						"/>
					</g>
				</g>
			</g>
			<g>
				<g>
					<g>
						<polyline class="st8" points="62,89.6 62.8,88.1 65.2,89.9 66.4,87.9 68.8,89.8 69.7,88.2 						"/>
					</g>
				</g>
			</g>
			<g>
				<g>
					<g>
						<polyline class="st8" points="77.5,88.9 78.3,87.4 80.7,89.3 81.9,87.3 84.3,89.1 85.4,87.1 87.8,88.9 89,87 91.4,88.8 
							92.5,86.8 94.9,88.6 96.1,86.6 98.5,88.5 99.6,86.5 102,88.3 103.2,86.3 105.6,88.2 106.6,86.4 						"/>
					</g>
				</g>
			</g>
			<g>
				<g>
					<g>
						<polyline class="st8" points="125.4,86.8 126.3,85.3 128.7,87.2 129.8,85.2 132.2,87 133.2,85.4 						"/>
					</g>
				</g>
			</g>
			<g>
				<g>
					<g>
						<polyline class="st8" points="62.2,105.5 63.1,104.1 65.5,105.9 66.6,103.9 69,105.7 70,104 						"/>
					</g>
				</g>
			</g>
			<g>
				<g>
					<g>
						<polyline class="st8" points="78.2,104.8 79,103.4 81.4,105.2 82.6,103.2 85,105 86.1,103 88.5,104.9 89.7,102.9 92.1,104.7 
							93.2,102.7 95.6,104.6 96.8,102.6 99.2,104.4 100.3,102.4 102.7,104.3 103.9,102.3 106.3,104.1 107.4,102.1 						"/>
					</g>
				</g>
			</g>
			<g>
				<g>
					<g>
						<polyline class="st8" points="127.5,102.7 128.4,101.2 130.8,103 131.9,101 134.3,102.9 135.3,101.2 						"/>
					</g>
				</g>
			</g>
			<g>
				<g>
					<g>
						<polyline class="st8" points="62.5,122.4 63.3,121 65.7,122.8 66.9,120.8 69.3,122.6 70.4,120.8 						"/>
					</g>
				</g>
			</g>
			<g>
				<g>
					<g>
						<polyline class="st8" points="78.9,121.7 79.7,120.2 82.1,122.1 83.3,120.1 85.7,121.9 86.8,119.9 89.2,121.8 90.4,119.8 
							92.8,121.6 93.9,119.6 96.4,121.5 97.5,119.5 99.9,121.3 101.1,119.3 103.5,121.2 104.6,119.2 107,121 108.2,119 						"/>
					</g>
				</g>
			</g>
			<g>
				<g>
					<g>
						<polyline class="st8" points="129.7,119.5 130.6,118 133,119.9 134.1,117.9 136.5,119.7 137.6,117.9 						"/>
					</g>
				</g>
			</g>
			<g>
				<g>
					<g>
						<polyline class="st8" points="62.8,140.4 63.6,138.9 66,140.7 67.2,138.8 69.6,140.6 70.7,138.7 						"/>
					</g>
				</g>
			</g>
			<g>
				<g>
					<g>
						<polyline class="st8" points="79.7,139.6 80.5,138.2 82.9,140 84.1,138 86.5,139.9 87.6,137.9 90,139.7 91.2,137.7 
							93.6,139.5 94.7,137.6 97.1,139.4 98.3,137.4 100.7,139.2 101.8,137.2 104.2,139.1 105.4,137.1 107.8,138.9 108.9,136.9 
													"/>
					</g>
				</g>
			</g>
			<g>
				<g>
					<g>
						<polyline class="st8" points="132.1,137.3 132.9,135.9 135.3,137.7 136.5,135.7 138.9,137.6 140,135.7 						"/>
					</g>
				</g>
			</g>
			<g>
				<g>
					<g>
						<polyline class="st8" points="63.1,159.5 63.9,158 66.3,159.8 67.5,157.8 69.9,159.7 71,157.7 						"/>
					</g>
				</g>
			</g>
			<g>
				<g>
					<g>
						<polyline class="st8" points="80.5,158.7 81.3,157.2 83.7,159.1 84.9,157.1 87.3,158.9 88.5,156.9 90.9,158.8 92,156.8 
							94.4,158.6 95.6,156.6 98,158.4 99.1,156.5 101.5,158.3 102.7,156.3 105.1,158.1 106.2,156.1 108.6,158 109.8,156 
							112.2,157.8 113.2,156 						"/>
					</g>
				</g>
			</g>
			<g>
				<g>
					<g>
						<polyline class="st8" points="134.5,156.3 135.4,154.9 137.8,156.7 138.9,154.7 141.3,156.6 142.5,154.6 						"/>
					</g>
				</g>
			</g>
			<g>
				<g>
					<g>
						<polyline class="st8" points="61.3,46.6 62.2,45.2 64.6,47 65.7,45 68.1,46.9 69.3,44.9 71.7,46.7 72.8,44.7 75.2,46.5 
							76.4,44.6 78.8,46.4 79.9,44.4 82.3,46.2 83.5,44.2 85.9,46.1 87,44.1 89.4,45.9 90.6,43.9 93,45.8 94.1,43.8 96.6,45.6 
							97.7,43.6 100.1,45.5 101.3,43.5 103.7,45.3 104.8,43.3 107.2,45.1 108.4,43.2 						"/>
					</g>
				</g>
			</g>
			<g>
				<g>
					<g>
						<polyline class="st8" points="121.6,57.6 122.5,56.1 124.9,57.9 126,55.9 						"/>
					</g>
				</g>
			</g>
		</g>
	</g>
	<rect class="st0" width="360" height="210"/>
	<g>
		<rect x="198" y="24" class="st1" width="126" height="162"/>
		<line class="st1" x1="216" y1="60" x2="224" y2="60"/>
		<line class="st1" x1="236" y1="60" x2="272" y2="60"/>
		<line class="st1" x1="216" y1="78" x2="224" y2="78"/>
		<line class="st1" x1="236" y1="78" x2="278" y2="78"/>
		<line class="st1" x1="298" y1="78" x2="306" y2="78"/>
		<line class="st1" x1="216" y1="96" x2="224" y2="96"/>
		<line class="st1" x1="236" y1="96" x2="272" y2="96"/>
		<line class="st1" x1="298" y1="96" x2="306" y2="96"/>
		<line class="st1" x1="216" y1="114" x2="224" y2="114"/>
		<line class="st1" x1="236" y1="114" x2="274.3" y2="114"/>
		<line class="st1" x1="298" y1="114" x2="306" y2="114"/>
		<line class="st1" x1="216" y1="132" x2="224" y2="132"/>
		<line class="st1" x1="236" y1="132" x2="272" y2="132"/>
		<line class="st1" x1="298" y1="132" x2="306" y2="132"/>
		<line class="st1" x1="216" y1="150" x2="224" y2="150"/>
		<line class="st1" x1="236" y1="150" x2="278" y2="150"/>
		<line class="st1" x1="298" y1="150" x2="306" y2="150"/>
		<line class="st1" x1="216" y1="168" x2="224" y2="168"/>
		<line class="st1" x1="236" y1="168" x2="272" y2="168"/>
		<line class="st1" x1="298" y1="168" x2="306" y2="168"/>
		<line class="st1" x1="216" y1="42" x2="282" y2="42"/>
		<line class="st1" x1="298" y1="60" x2="306" y2="60"/>
	</g>
	<g>
		<polyline class="st2" points="181.7,94.8 185,102.6 177.2,106 		"/>
		<path class="st2" d="M165,102.7c3-1.7,6.4-2.7,10.1-2.7c3.6,0,7,1,9.9,2.6"/>
	</g>
</g>
</svg>
