<?xml version="1.0" encoding="utf-8"?>
<!-- Generator: Adobe Illustrator 19.1.0, SVG Export Plug-In . SVG Version: 6.00 Build 0)  -->
<!DOCTYPE svg PUBLIC "-//W3C//DTD SVG 1.1//EN" "http://www.w3.org/Graphics/SVG/1.1/DTD/svg11.dtd">
<svg version="1.1" xmlns="http://www.w3.org/2000/svg" xmlns:xlink="http://www.w3.org/1999/xlink" x="0px" y="0px"
	 viewBox="0 0 360 210" style="enable-background:new 0 0 360 210;" xml:space="preserve">
<style type="text/css">
	.st0{fill:none;}
	.st1{fill:none;stroke:#3F7CB2;stroke-width:2;stroke-linecap:round;stroke-linejoin:round;stroke-miterlimit:10;}
	.st2{fill:none;stroke:#F2BE55;stroke-width:2;stroke-linecap:round;stroke-linejoin:round;stroke-miterlimit:10;}
	.st3{fill:#FFFFFF;stroke:#F2BE55;stroke-width:2;stroke-linecap:round;stroke-linejoin:round;stroke-miterlimit:10;}
	.st4{fill:#3F7CB2;}
	.st5{fill:#FFFFFF;stroke:#3F7CB2;stroke-width:2;stroke-linecap:round;stroke-linejoin:round;stroke-miterlimit:10;}
	.st6{opacity:0.1;fill:none;stroke:#F2BE55;stroke-width:2;stroke-linecap:round;stroke-linejoin:round;stroke-miterlimit:10;}
	.st7{opacity:0.1;fill:#7F622E;}
	.st8{fill:none;stroke:#3F7CB2;stroke-width:2;stroke-linecap:round;stroke-linejoin:round;}
	.st9{opacity:0.2;}
	.st10{fill:none;stroke:#FF00FF;stroke-width:2;stroke-linecap:round;stroke-linejoin:round;stroke-miterlimit:10;}
	.st11{fill:none;stroke:#00FFFF;stroke-width:0.25;stroke-linecap:round;stroke-linejoin:round;stroke-miterlimit:10;}
	.st12{fill:none;stroke:#3F7CB2;stroke-linecap:round;stroke-linejoin:round;stroke-miterlimit:10;}
	.st13{clip-path:url(#SVGID_2_);}
</style>
<g id="border">
</g>
<g id="Layer_1">
	<g>
		<defs>
			<path id="SVGID_1_" d="M295.1,36.8c4.7,0,8.5,3.8,8.5,8.5v102.3c0,4.7-3.8,8.5-8.5,8.5H158.7c-4.7,0-8.5-3.8-8.5-8.5V45.3
				c0-4.7,3.8-8.5,8.5-8.5H295.1z"/>
		</defs>
		<clipPath id="SVGID_2_">
			<use xlink:href="#SVGID_1_"  style="overflow:visible;"/>
		</clipPath>
		<g class="st13">
			<line class="st2" x1="171.2" y1="66.8" x2="175.2" y2="66.8"/>
			<line class="st2" x1="181.2" y1="66.8" x2="199.2" y2="66.8"/>
			<line class="st2" x1="171.2" y1="75.8" x2="175.2" y2="75.8"/>
			<line class="st2" x1="181.2" y1="75.8" x2="202.2" y2="75.8"/>
			<line class="st2" x1="212.2" y1="75.8" x2="216.2" y2="75.8"/>
			<line class="st2" x1="171.2" y1="84.8" x2="175.2" y2="84.8"/>
			<line class="st2" x1="181.2" y1="84.8" x2="199.2" y2="84.8"/>
			<line class="st2" x1="212.2" y1="84.8" x2="216.2" y2="84.8"/>
			<line class="st2" x1="171.2" y1="93.8" x2="175.2" y2="93.8"/>
			<line class="st2" x1="181.2" y1="93.8" x2="200.3" y2="93.8"/>
			<line class="st2" x1="212.2" y1="93.8" x2="216.2" y2="93.8"/>
			<line class="st2" x1="171.2" y1="102.8" x2="175.2" y2="102.8"/>
			<line class="st2" x1="181.2" y1="102.8" x2="199.2" y2="102.8"/>
			<line class="st2" x1="212.2" y1="102.8" x2="216.2" y2="102.8"/>
			<line class="st2" x1="171.2" y1="111.8" x2="175.2" y2="111.8"/>
			<line class="st2" x1="181.2" y1="111.8" x2="202.2" y2="111.8"/>
			<line class="st2" x1="212.2" y1="111.8" x2="216.2" y2="111.8"/>
			<line class="st2" x1="171.2" y1="120.8" x2="175.2" y2="120.8"/>
			<line class="st2" x1="181.2" y1="120.8" x2="199.2" y2="120.8"/>
			<line class="st2" x1="212.2" y1="120.8" x2="216.2" y2="120.8"/>
			<line class="st2" x1="171.2" y1="57.8" x2="204.2" y2="57.8"/>
			<line class="st2" x1="212.2" y1="66.8" x2="216.2" y2="66.8"/>
			<line class="st2" x1="171.2" y1="129.8" x2="175.2" y2="129.8"/>
			<line class="st2" x1="181.2" y1="129.8" x2="199.2" y2="129.8"/>
			<line class="st2" x1="171.2" y1="138.8" x2="175.2" y2="138.8"/>
			<line class="st2" x1="181.2" y1="138.8" x2="202.2" y2="138.8"/>
			<line class="st2" x1="212.2" y1="138.8" x2="216.2" y2="138.8"/>
			<line class="st2" x1="212.2" y1="129.8" x2="216.2" y2="129.8"/>
			<line class="st2" x1="237.6" y1="68.3" x2="241.6" y2="68.3"/>
			<line class="st2" x1="247.6" y1="68.3" x2="265.6" y2="68.3"/>
			<line class="st2" x1="237.6" y1="77.3" x2="241.6" y2="77.3"/>
			<line class="st2" x1="247.6" y1="77.3" x2="268.6" y2="77.3"/>
			<line class="st2" x1="278.6" y1="77.3" x2="282.6" y2="77.3"/>
			<line class="st2" x1="237.6" y1="86.3" x2="241.6" y2="86.3"/>
			<line class="st2" x1="247.6" y1="86.3" x2="265.6" y2="86.3"/>
			<line class="st2" x1="278.6" y1="86.3" x2="282.6" y2="86.3"/>
			<line class="st2" x1="237.6" y1="95.3" x2="241.6" y2="95.3"/>
			<line class="st2" x1="247.6" y1="95.3" x2="266.8" y2="95.3"/>
			<line class="st2" x1="278.6" y1="95.3" x2="282.6" y2="95.3"/>
			<line class="st2" x1="237.6" y1="104.3" x2="241.6" y2="104.3"/>
			<line class="st2" x1="247.6" y1="104.3" x2="265.6" y2="104.3"/>
			<line class="st2" x1="278.6" y1="104.3" x2="282.6" y2="104.3"/>
			<line class="st2" x1="237.6" y1="113.3" x2="241.6" y2="113.3"/>
			<line class="st2" x1="247.6" y1="113.3" x2="268.6" y2="113.3"/>
			<line class="st2" x1="278.6" y1="113.3" x2="282.6" y2="113.3"/>
			<line class="st2" x1="237.6" y1="122.3" x2="241.6" y2="122.3"/>
			<line class="st2" x1="247.6" y1="122.3" x2="265.6" y2="122.3"/>
			<line class="st2" x1="278.6" y1="122.3" x2="282.6" y2="122.3"/>
			<line class="st2" x1="237.6" y1="59.3" x2="270.6" y2="59.3"/>
			<line class="st2" x1="278.6" y1="68.3" x2="282.6" y2="68.3"/>
			<line class="st2" x1="237.6" y1="131.3" x2="241.6" y2="131.3"/>
			<line class="st2" x1="247.6" y1="131.3" x2="265.6" y2="131.3"/>
			<line class="st2" x1="237.6" y1="140.3" x2="241.6" y2="140.3"/>
			<line class="st2" x1="247.6" y1="140.3" x2="268.6" y2="140.3"/>
			<line class="st2" x1="278.6" y1="140.3" x2="282.6" y2="140.3"/>
			<line class="st2" x1="278.6" y1="131.3" x2="282.6" y2="131.3"/>
		</g>
	</g>
	<line class="st1" x1="269.5" y1="186" x2="184.3" y2="186"/>
	<path class="st1" d="M116.1,24c4.7,0,8.5,3.6,8.5,8.1v145.8c0,4.5-3.8,8.1-8.5,8.1H64.9c-4.7,0-8.5-3.6-8.5-8.1V32.1
		c0-4.5,3.8-8.1,8.5-8.1H116.1z"/>
	<line class="st1" x1="77.7" y1="58.1" x2="103.3" y2="58.1"/>
	<line class="st1" x1="77.7" y1="83.7" x2="103.3" y2="83.7"/>
	<path class="st1" d="M99,151.9c0,4.7-3.8,8.5-8.5,8.5c-4.7,0-8.5-3.8-8.5-8.5c0-4.7,3.8-8.5,8.5-8.5C95.2,143.4,99,147.2,99,151.9z
		"/>
	<line class="st1" x1="209.8" y1="156.2" x2="209.8" y2="186"/>
	<line class="st1" x1="243.9" y1="156.2" x2="243.9" y2="186"/>
	<path class="st1" d="M295.1,36.8c4.7,0,8.5,3.8,8.5,8.5v102.3c0,4.7-3.8,8.5-8.5,8.5H158.7c-4.7,0-8.5-3.8-8.5-8.5V45.3
		c0-4.7,3.8-8.5,8.5-8.5H295.1z"/>
</g>
</svg>
