<?xml version="1.0" encoding="utf-8"?>
<!-- Generator: Adobe Illustrator 19.1.0, SVG Export Plug-In . SVG Version: 6.00 Build 0)  -->
<!DOCTYPE svg PUBLIC "-//W3C//DTD SVG 1.1//EN" "http://www.w3.org/Graphics/SVG/1.1/DTD/svg11.dtd">
<svg version="1.1" xmlns="http://www.w3.org/2000/svg" xmlns:xlink="http://www.w3.org/1999/xlink" x="0px" y="0px"
	 viewBox="0 0 360 210" style="enable-background:new 0 0 360 210;" xml:space="preserve">
<style type="text/css">
	.st0{fill:none;}
	.st1{fill:none;stroke:#3F7CB2;stroke-width:2;stroke-linecap:round;stroke-linejoin:round;stroke-miterlimit:10;}
	.st2{fill:none;stroke:#F2BE55;stroke-width:2;stroke-linecap:round;stroke-linejoin:round;stroke-miterlimit:10;}
	.st3{fill:#FFFFFF;stroke:#F2BE55;stroke-width:2;stroke-linecap:round;stroke-linejoin:round;stroke-miterlimit:10;}
	.st4{fill:#3F7CB2;}
	.st5{fill:#FFFFFF;stroke:#3F7CB2;stroke-width:2;stroke-linecap:round;stroke-linejoin:round;stroke-miterlimit:10;}
	.st6{opacity:0.1;fill:none;stroke:#F2BE55;stroke-width:2;stroke-linecap:round;stroke-linejoin:round;stroke-miterlimit:10;}
	.st7{opacity:0.1;fill:#7F622E;}
	.st8{fill:none;stroke:#3F7CB2;stroke-width:2;stroke-linecap:round;stroke-linejoin:round;}
	.st9{opacity:0.2;}
	.st10{fill:none;stroke:#FF00FF;stroke-width:2;stroke-linecap:round;stroke-linejoin:round;stroke-miterlimit:10;}
	.st11{fill:none;stroke:#00FFFF;stroke-width:0.25;stroke-linecap:round;stroke-linejoin:round;stroke-miterlimit:10;}
	.st12{fill:none;stroke:#3F7CB2;stroke-linecap:round;stroke-linejoin:round;stroke-miterlimit:10;}
	.st13{clip-path:url(#SVGID_2_);}
</style>
<g id="border">
</g>
<g id="Layer_1">
	<g>
		<g>
			<g>
				<rect x="96" y="24" class="st1" width="126" height="162"/>
				<line class="st2" x1="114" y1="60" x2="122" y2="60"/>
				<line class="st2" x1="134" y1="60" x2="170" y2="60"/>
				<line class="st2" x1="114" y1="78" x2="122" y2="78"/>
				<line class="st2" x1="134" y1="78" x2="176" y2="78"/>
				<line class="st2" x1="196" y1="78" x2="204" y2="78"/>
				<line class="st2" x1="114" y1="96" x2="122" y2="96"/>
				<line class="st2" x1="134" y1="96" x2="170" y2="96"/>
				<line class="st2" x1="196" y1="96" x2="204" y2="96"/>
				<line class="st2" x1="114" y1="114" x2="122" y2="114"/>
				<line class="st2" x1="134" y1="114" x2="176" y2="114"/>
				<line class="st2" x1="196" y1="114" x2="204" y2="114"/>
				<line class="st2" x1="114" y1="132" x2="122" y2="132"/>
				<line class="st2" x1="134" y1="132" x2="170" y2="132"/>
				<line class="st2" x1="196" y1="132" x2="204" y2="132"/>
				<line class="st2" x1="114" y1="150" x2="122" y2="150"/>
				<line class="st2" x1="134" y1="150" x2="176" y2="150"/>
				<line class="st2" x1="196" y1="150" x2="204" y2="150"/>
				<line class="st2" x1="114" y1="168" x2="122" y2="168"/>
				<line class="st2" x1="134" y1="168" x2="170" y2="168"/>
				<line class="st2" x1="196" y1="168" x2="204" y2="168"/>
				<line class="st1" x1="114" y1="42" x2="180" y2="42"/>
				<line class="st2" x1="196" y1="60" x2="204" y2="60"/>
			</g>
			<g>
				<g>
					<path class="st5" d="M264,105c0-23.2-18.8-42-42-42s-42,18.8-42,42s18.8,42,42,42S264,128.2,264,105z"/>
					<line class="st5" x1="251.7" y1="134.7" x2="296" y2="179"/>
				</g>
				<g>
					<polyline class="st2" points="238,95 220.3,119 206,107 					"/>
				</g>
			</g>
		</g>
		<rect x="0" class="st0" width="360" height="210"/>
	</g>
</g>
</svg>
