<?xml version="1.0" encoding="utf-8"?>
<!-- Generator: Adobe Illustrator 19.1.0, SVG Export Plug-In . SVG Version: 6.00 Build 0)  -->
<!DOCTYPE svg PUBLIC "-//W3C//DTD SVG 1.1//EN" "http://www.w3.org/Graphics/SVG/1.1/DTD/svg11.dtd">
<svg version="1.1" xmlns="http://www.w3.org/2000/svg" xmlns:xlink="http://www.w3.org/1999/xlink" x="0px" y="0px"
	 viewBox="0 0 360 210" style="enable-background:new 0 0 360 210;" xml:space="preserve">
<style type="text/css">
	.st0{fill:none;}
	.st1{fill:none;stroke:#3F7CB2;stroke-width:2;stroke-linecap:round;stroke-linejoin:round;stroke-miterlimit:10;}
	.st2{fill:none;stroke:#F2BE55;stroke-width:2;stroke-linecap:round;stroke-linejoin:round;stroke-miterlimit:10;}
	.st3{fill:#FFFFFF;stroke:#F2BE55;stroke-width:2;stroke-linecap:round;stroke-linejoin:round;stroke-miterlimit:10;}
	.st4{fill:#3F7CB2;}
	.st5{fill:#FFFFFF;stroke:#3F7CB2;stroke-width:2;stroke-linecap:round;stroke-linejoin:round;stroke-miterlimit:10;}
	.st6{opacity:0.1;fill:none;stroke:#F2BE55;stroke-width:2;stroke-linecap:round;stroke-linejoin:round;stroke-miterlimit:10;}
	.st7{opacity:0.1;fill:#7F622E;}
	.st8{fill:none;stroke:#3F7CB2;stroke-width:2;stroke-linecap:round;stroke-linejoin:round;}
	.st9{opacity:0.2;}
	.st10{fill:none;stroke:#FF00FF;stroke-width:2;stroke-linecap:round;stroke-linejoin:round;stroke-miterlimit:10;}
	.st11{fill:none;stroke:#00FFFF;stroke-width:0.25;stroke-linecap:round;stroke-linejoin:round;stroke-miterlimit:10;}
	.st12{fill:none;stroke:#3F7CB2;stroke-linecap:round;stroke-linejoin:round;stroke-miterlimit:10;}
	.st13{clip-path:url(#SVGID_2_);}
</style>
<g id="border">
</g>
<g id="Layer_1">
	<g class="st9">
		<line class="st1" x1="174" y1="105" x2="186" y2="105"/>
		<polyline class="st1" points="180,99 186,105 180,111 		"/>
	</g>
	<rect x="36" y="24" class="st1" width="126" height="162"/>
	<line class="st1" x1="54" y1="60" x2="62" y2="60"/>
	<line class="st1" x1="74" y1="60" x2="110" y2="60"/>
	<line class="st1" x1="54" y1="78" x2="62" y2="78"/>
	<line class="st1" x1="74" y1="78" x2="116" y2="78"/>
	<line class="st1" x1="136" y1="78" x2="144" y2="78"/>
	<line class="st1" x1="54" y1="96" x2="62" y2="96"/>
	<line class="st1" x1="74" y1="96" x2="110" y2="96"/>
	<line class="st1" x1="136" y1="96" x2="144" y2="96"/>
	<line class="st1" x1="54" y1="114" x2="62" y2="114"/>
	<line class="st1" x1="74" y1="114" x2="112.3" y2="114"/>
	<line class="st1" x1="136" y1="114" x2="144" y2="114"/>
	<line class="st1" x1="54" y1="132" x2="62" y2="132"/>
	<line class="st1" x1="74" y1="132" x2="110" y2="132"/>
	<line class="st1" x1="136" y1="132" x2="144" y2="132"/>
	<line class="st1" x1="54" y1="150" x2="62" y2="150"/>
	<line class="st1" x1="74" y1="150" x2="116" y2="150"/>
	<line class="st1" x1="136" y1="150" x2="144" y2="150"/>
	<line class="st1" x1="54" y1="168" x2="62" y2="168"/>
	<line class="st1" x1="74" y1="168" x2="110" y2="168"/>
	<line class="st1" x1="136" y1="168" x2="144" y2="168"/>
	<line class="st1" x1="54" y1="42" x2="120" y2="42"/>
	<line class="st1" x1="136" y1="60" x2="144" y2="60"/>
	<g class="st9">
		<rect x="48" y="51" class="st1" width="102" height="18"/>
		<rect x="48" y="69" class="st1" width="102" height="18"/>
		<rect x="48" y="33" class="st1" width="102" height="18"/>
		<rect x="48" y="87" class="st1" width="102" height="18"/>
		<rect x="48" y="105" class="st1" width="102" height="18"/>
		<rect x="48" y="123" class="st1" width="102" height="18"/>
		<rect x="48" y="141" class="st1" width="102" height="18"/>
		<rect x="48" y="159" class="st1" width="102" height="18"/>
		<rect x="48" y="51" class="st1" width="20" height="126"/>
		<rect x="130" y="51" class="st1" width="20" height="126"/>
		<rect x="68" y="51" class="st1" width="62" height="126"/>
	</g>
	<g>
		<rect x="198" y="51" class="st2" width="102" height="18"/>
		<rect x="198" y="69" class="st2" width="102" height="18"/>
		<rect x="198" y="33" class="st2" width="102" height="18"/>
		<rect x="198" y="87" class="st2" width="102" height="18"/>
		<rect x="198" y="105" class="st2" width="102" height="18"/>
		<rect x="198" y="123" class="st2" width="102" height="18"/>
		<rect x="198" y="141" class="st2" width="102" height="18"/>
		<rect x="198" y="159" class="st2" width="102" height="18"/>
		<rect x="198" y="51" class="st2" width="20" height="126"/>
		<rect x="280" y="51" class="st2" width="20" height="126"/>
		<rect x="218" y="51" class="st2" width="62" height="126"/>
	</g>
</g>
</svg>
