<?xml version="1.0" encoding="UTF-8" standalone="no"?>
<svg width="664px" height="91px" viewBox="0 0 664 91" version="1.1" xmlns="http://www.w3.org/2000/svg" xmlns:xlink="http://www.w3.org/1999/xlink" xmlns:sketch="http://www.bohemiancoding.com/sketch/ns">
    <!-- Generator: Sketch 3.5.2 (25235) - http://www.bohemiancoding.com/sketch -->
    <title>unscan-logotype</title>
    <desc>Created with Sketch.</desc>
    <defs></defs>
    <g id="Page-1" stroke="none" stroke-width="1" fill="none" fill-rule="evenodd" sketch:type="MSPage">
        <g id="Project---Unscan" sketch:type="MSArtboardGroup" transform="translate(-388.000000, -1838.000000)" fill="#F2BE55">
            <g id="unscan-logotype" sketch:type="MSLayerGroup" transform="translate(388.000000, 1836.000000)">
                <g id="Group" sketch:type="MSShapeGroup">
                    <path d="M48.8945455,3.42060606 C47.4860606,2.01212121 45.2727273,1.60969697 43.4618182,2.41454545 C41.449697,3.21939394 40.2424242,5.03030303 40.2424242,7.04242424 L40.2424242,27.1636364 C40.2424242,29.9806061 42.4557576,32.1939394 45.2727273,32.1939394 L60.3636364,32.1939394 L60.3636364,77.4666667 C60.3636364,80.2836364 58.150303,82.4969697 55.3333333,82.4969697 L15.0909091,82.4969697 C12.2739394,82.4969697 10.0606061,80.2836364 10.0606061,77.4666667 L10.0606061,7.04242424 C10.0606061,4.22545455 7.84727273,2.01212121 5.03030303,2.01212121 C2.21333333,2.01212121 0,4.22545455 0,7.04242424 L0,77.4666667 C0,85.7163636 6.84121212,92.5575758 15.0909091,92.5575758 L55.3333333,92.5575758 C63.5830303,92.5575758 70.4242424,85.7163636 70.4242424,77.4666667 L70.4242424,27.1636364 C70.4242424,25.7551515 69.8206061,24.5478788 69.0157576,23.5418182 L48.8945455,3.42060606 L48.8945455,3.42060606 Z" id="Shape"></path>
                    <path d="M186.121212,2.01212121 C183.304242,2.01212121 181.090909,4.22545455 181.090909,7.04242424 L181.090909,72.4363636 L129.781818,4.02424242 C128.574545,2.21333333 126.16,1.60969697 124.147879,2.21333333 C122.135758,2.8169697 120.727273,4.82909091 120.727273,7.04242424 L120.727273,87.5272727 C120.727273,90.3442424 122.940606,92.5575758 125.757576,92.5575758 C128.574545,92.5575758 130.787879,90.3442424 130.787879,87.5272727 L130.787879,22.1333333 L182.09697,90.5454545 C183.10303,91.7527273 184.511515,92.5575758 186.121212,92.5575758 C186.724848,92.5575758 187.127273,92.5575758 187.730909,92.3563636 C189.74303,91.7527273 191.151515,89.7406061 191.151515,87.5272727 L191.151515,7.04242424 C191.151515,4.22545455 188.938182,2.01212121 186.121212,2.01212121 L186.121212,2.01212121 Z" id="Shape"></path>
                    <path d="M658.969697,2.01212121 C656.152727,2.01212121 653.939394,4.22545455 653.939394,7.04242424 L653.939394,72.4363636 L602.630303,4.02424242 C601.42303,2.21333333 599.008485,1.60969697 596.996364,2.21333333 C594.984242,2.8169697 593.575758,4.82909091 593.575758,7.04242424 L593.575758,87.5272727 C593.575758,90.3442424 595.789091,92.5575758 598.606061,92.5575758 C601.42303,92.5575758 603.636364,90.3442424 603.636364,87.5272727 L603.636364,22.1333333 L654.945455,90.5454545 C655.951515,91.7527273 657.36,92.5575758 658.969697,92.5575758 C659.573333,92.5575758 659.975758,92.5575758 660.579394,92.3563636 C662.591515,91.7527273 664,89.7406061 664,87.5272727 L664,7.04242424 C664,4.22545455 661.786667,2.01212121 658.969697,2.01212121 L658.969697,2.01212121 Z" id="Shape"></path>
                    <path d="M517.718788,5.23151515 C517.115152,3.21939394 515.10303,2.01212121 513.090909,2.01212121 C511.078788,2.01212121 509.066667,3.21939394 508.46303,5.23151515 L478.281212,85.7163636 C477.275152,88.3321212 478.683636,91.1490909 481.299394,92.1551515 C483.915152,93.1612121 486.732121,91.7527273 487.738182,89.1369697 L499.810909,57.1442424 L526.773333,57.1442424 L538.846061,89.1369697 C539.650909,91.1490909 541.461818,92.3563636 543.473939,92.3563636 C544.077576,92.3563636 544.681212,92.1551515 545.284848,91.9539394 C547.900606,90.9478788 549.107879,88.1309091 548.30303,85.5151515 L517.718788,5.23151515 L517.718788,5.23151515 Z M503.432727,47.2848485 L513.090909,21.3284848 L522.749091,47.2848485 L503.432727,47.2848485 L503.432727,47.2848485 Z" id="Shape"></path>
                    <path d="M296.787879,2.01212121 L256.545455,2.01212121 C248.295758,2.01212121 241.454545,8.85333333 241.454545,17.1030303 L241.454545,37.2242424 C241.454545,45.4739394 248.295758,52.3151515 256.545455,52.3151515 L296.787879,52.3151515 C299.604848,52.3151515 301.818182,54.5284848 301.818182,57.3454545 L301.818182,77.4666667 C301.818182,80.2836364 299.604848,82.4969697 296.787879,82.4969697 L256.545455,82.4969697 C253.728485,82.4969697 251.515152,80.2836364 251.515152,77.4666667 L251.515152,72.4363636 C251.515152,69.6193939 249.301818,67.4060606 246.484848,67.4060606 C243.667879,67.4060606 241.454545,69.6193939 241.454545,72.4363636 L241.454545,77.4666667 C241.454545,85.7163636 248.295758,92.5575758 256.545455,92.5575758 L296.787879,92.5575758 C305.037576,92.5575758 311.878788,85.7163636 311.878788,77.4666667 L311.878788,57.3454545 C311.878788,49.0957576 305.037576,42.2545455 296.787879,42.2545455 L256.545455,42.2545455 C253.728485,42.2545455 251.515152,40.0412121 251.515152,37.2242424 L251.515152,17.1030303 C251.515152,14.2860606 253.728485,12.0727273 256.545455,12.0727273 L296.787879,12.0727273 C299.604848,12.0727273 301.818182,14.2860606 301.818182,17.1030303 L301.818182,22.1333333 C301.818182,24.950303 304.031515,27.1636364 306.848485,27.1636364 C309.665455,27.1636364 311.878788,24.950303 311.878788,22.1333333 L311.878788,17.1030303 C311.878788,8.85333333 305.037576,2.01212121 296.787879,2.01212121 L296.787879,2.01212121 Z" id="Shape"></path>
                    <path d="M417.515152,2.01212121 L377.272727,2.01212121 C369.02303,2.01212121 362.181818,8.85333333 362.181818,17.1030303 L362.181818,77.4666667 C362.181818,85.7163636 369.02303,92.5575758 377.272727,92.5575758 L417.515152,92.5575758 C425.764848,92.5575758 432.606061,85.7163636 432.606061,77.4666667 L432.606061,72.4363636 C432.606061,69.6193939 430.392727,67.4060606 427.575758,67.4060606 C424.758788,67.4060606 422.545455,69.6193939 422.545455,72.4363636 L422.545455,77.4666667 C422.545455,80.2836364 420.332121,82.4969697 417.515152,82.4969697 L377.272727,82.4969697 C374.455758,82.4969697 372.242424,80.2836364 372.242424,77.4666667 L372.242424,17.1030303 C372.242424,14.2860606 374.455758,12.0727273 377.272727,12.0727273 L417.515152,12.0727273 C420.332121,12.0727273 422.545455,14.2860606 422.545455,17.1030303 L422.545455,22.1333333 C422.545455,24.950303 424.758788,27.1636364 427.575758,27.1636364 C430.392727,27.1636364 432.606061,24.950303 432.606061,22.1333333 L432.606061,17.1030303 C432.606061,8.85333333 425.764848,2.01212121 417.515152,2.01212121 L417.515152,2.01212121 Z" id="Shape"></path>
                </g>
            </g>
        </g>
    </g>
</svg>