<?xml version="1.0" encoding="UTF-8" standalone="no"?>
<svg width="664px" height="243px" viewBox="0 0 664 243" version="1.1" xmlns="http://www.w3.org/2000/svg" xmlns:xlink="http://www.w3.org/1999/xlink">
    <!-- Generator: Sketch 40.3 (33839) - http://www.bohemiancoding.com/sketch -->
    <title>Page 1</title>
    <desc>Created with Sketch.</desc>
    <defs>
        <polygon id="path-1" points="663.62045 121.33683 663.62045 241.994885 0 241.994885 0 121.33683 0 0.678774425 663.62045 0.678774425 663.62045 121.33683"></polygon>
    </defs>
    <g id="Page-1" stroke="none" stroke-width="1" fill="none" fill-rule="evenodd">
        <g id="Project---Redspread" transform="translate(-388.000000, -1772.000000)">
            <g id="Page-1" transform="translate(388.000000, 1772.000000)">
                <path d="M346.284066,106.029931 C334.564721,106.029931 332.918307,115.848131 332.918307,127.249911 C332.918307,138.653389 334.564721,148.534423 346.284066,148.534423 C357.939729,148.534423 359.586992,138.653389 359.586992,127.249911 C359.586992,115.848131 357.939729,106.029931 346.284066,106.029931" id="Fill-1" fill="#FF351A"></path>
                <path d="M219.91179,106.093275 C208.256128,106.093275 206.609714,115.911474 206.609714,127.313254 C206.609714,138.716732 208.256128,148.534932 219.91179,148.534932 C231.631136,148.534932 233.27755,138.716732 233.27755,127.313254 C233.27755,115.911474 231.631136,106.093275 219.91179,106.093275" id="Fill-3" fill="#FF351A"></path>
                <g id="Group-7" transform="translate(0.000000, 0.170670)">
                    <mask id="mask-2" fill="white">
                        <use xlink:href="#path-1"></use>
                    </mask>
                    <g id="Clip-6"></g>
                    <path d="M607.45556,150.897312 C607.45556,154.445721 607.202527,155.585219 606.315212,157.042283 C605.237698,158.752381 603.148051,159.765363 600.993872,159.765363 C598.904225,159.765363 596.940246,158.94258 595.736215,157.232483 C595.039949,156.282335 594.723233,155.332186 594.596716,152.671092 C589.845974,158.309148 584.524634,160.019245 577.809913,160.019245 C571.349074,160.019245 565.648184,157.865915 562.100624,154.319204 C555.891969,147.984033 555.005504,137.721751 555.005504,127.079071 C555.005504,116.564606 555.891969,106.302324 562.100624,99.968002 C565.648184,96.4204419 571.221708,94.267112 577.683396,94.267112 C584.524634,94.267112 589.845974,95.9143754 594.533033,101.488749 L594.533033,77.3537923 C594.533033,74.249465 594.723233,73.1099662 595.483182,71.5892194 C596.369647,69.8791223 598.20711,68.5485749 600.993872,68.5485749 C603.781483,68.5485749 605.618946,69.8791223 606.505412,71.5892194 C607.265361,73.1099662 607.45556,74.249465 607.45556,77.3537923 L607.45556,150.897312 Z M543.033125,150.960994 C543.033125,154.128155 542.906609,155.332186 542.082977,156.78925 C541.132829,158.562181 539.042332,159.765363 536.571437,159.765363 C534.48179,159.765363 532.897361,159.005414 531.884379,157.928749 C531.12443,157.042283 530.55468,156.028452 530.427315,153.304524 C525.359857,158.245465 521.053197,159.955562 513.198128,159.955562 C505.152859,159.955562 499.767836,158.118948 495.904409,154.128155 C492.609882,150.770795 490.773269,145.829854 490.773269,140.382846 C490.773269,129.613649 498.438138,121.759429 513.007928,121.759429 L530.047765,121.759429 L530.047765,117.767787 C530.047765,109.342969 526.056972,105.225659 516.618322,105.225659 C511.487182,105.225659 508.066138,106.682723 504.329228,109.533168 C502.681964,110.800033 500.84535,111.243265 499.64132,111.243265 C498.311621,111.243265 496.854558,110.673516 495.904409,109.533168 C494.827744,108.329987 494.384512,107.252473 494.384512,105.542375 C494.384512,102.628248 497.10844,100.031685 500.401269,98.1313882 C504.899826,95.5339765 510.093801,94.267112 516.744839,94.267112 C533.974875,94.267112 543.033125,101.805465 543.033125,116.374406 L543.033125,150.960994 Z M481.9689,129.23325 C480.322486,130.880514 478.168307,130.880514 476.268859,130.880514 L442.124655,130.880514 C442.124655,141.839061 447.890077,148.997015 458.594742,148.997015 C463.09245,148.997015 467.462793,147.730999 470.94667,144.943388 C472.91065,143.358959 474.557913,142.59901 476.205176,142.59901 C478.801739,142.59901 481.525668,145.133588 481.525668,148.110549 C481.525668,151.087511 478.23199,153.875122 475.06398,155.901936 C471.010353,158.562181 465.182946,160.019245 458.278026,160.019245 C442.25202,160.019245 429.329494,151.593577 429.329494,127.142754 C429.329494,105.985608 440.161524,94.267112 456.567928,94.267112 C473.354731,94.267112 483.362281,106.492524 483.74268,123.469526 C483.805514,125.368974 483.552481,127.64967 481.9689,129.23325 L481.9689,129.23325 Z M423.120839,109.533168 C421.791141,109.533168 420.334077,109.089936 418.117064,107.823071 C415.962885,106.61904 413.683038,105.922774 411.14846,105.922774 C403.800307,105.922774 398.036583,111.369782 398.036583,120.302365 L398.036583,150.960994 C398.036583,154.064473 397.846384,155.20567 397.086435,156.725567 C396.199969,158.435664 394.362506,159.765363 391.574895,159.765363 C388.788133,159.765363 386.95067,158.435664 386.064205,156.725567 C385.304256,155.20567 385.114056,154.064473 385.114056,150.960994 L385.114056,103.388196 C385.114056,99.8414854 385.367939,98.7011376 386.254404,97.2440737 C387.331069,95.5339765 389.421565,94.5201453 391.574895,94.5201453 C393.665391,94.5201453 395.629371,95.343777 396.833402,97.0538742 C397.529668,98.0677054 397.846384,99.0178537 397.9729,101.741782 C401.584143,97.2440737 407.601749,94.267112 414.316471,94.267112 C419.067212,94.267112 422.487407,95.1535775 425.591734,97.2440737 C427.808747,98.7011376 429.45601,100.601434 429.45601,103.07148 C429.45601,104.908943 428.696061,106.61904 427.554864,107.759388 C426.478199,108.836053 424.768951,109.533168 423.120839,109.533168 L423.120839,109.533168 Z M365.414824,154.255521 C361.867263,157.802232 356.29289,160.019245 349.831202,160.019245 C342.989964,160.019245 337.669473,158.309148 332.981565,152.734774 L332.981565,176.869731 C332.981565,179.973209 332.791366,181.113557 332.031417,182.633455 C331.144951,184.343552 329.307488,185.674099 326.519877,185.674099 C323.733115,185.674099 321.896501,184.343552 321.009187,182.633455 C320.249238,181.113557 320.059038,179.973209 320.059038,176.869731 L320.059038,103.325363 C320.059038,99.7778026 320.312921,98.6374547 321.199386,97.1803908 C322.276051,95.4702936 324.366547,94.4573115 326.519877,94.4573115 C328.611223,94.4573115 330.574353,95.2800941 331.778384,96.9910404 C332.47465,98.0040225 332.791366,98.9541708 332.918731,101.551583 C337.669473,95.9143754 342.926281,94.2034292 349.704685,94.2034292 C356.166373,94.2034292 361.867263,96.3576082 365.414824,99.9051683 C371.62178,106.239491 372.509095,116.500923 372.509095,127.142754 C372.509095,137.658069 371.62178,147.92035 365.414824,154.255521 L365.414824,154.255521 Z M282.432655,160.019245 C272.423407,160.019245 265.836051,158.118948 260.071478,154.191838 C258.044665,152.798457 256.523918,151.023828 256.523918,148.807664 C256.523918,147.160401 257.284716,145.449455 258.614414,144.37279 C259.628246,143.485475 260.768593,143.042242 262.161974,143.042242 C263.491673,143.042242 265.012419,143.612841 266.976399,144.879705 C271.473258,147.793833 275.970967,149.187214 282.495488,149.187214 C290.730957,149.187214 296.621197,146.273936 296.621197,140.128964 C296.621197,135.820606 294.151151,133.097526 287.943345,132.527777 L277.61823,131.577629 C265.645852,130.500964 258.614414,125.115941 258.614414,113.967194 C258.614414,101.361383 269.447294,94.267112 282.875887,94.267112 C289.780808,94.267112 295.164982,95.4702936 300.168757,97.8146721 C302.322936,98.8276542 303.526118,99.6512859 304.349749,100.537751 C305.300747,101.678099 305.55378,102.628248 305.55378,104.085312 C305.55378,105.352176 304.856665,106.935757 303.96935,107.885905 C302.892685,108.96257 301.689504,109.533168 300.168757,109.533168 C298.965575,109.533168 297.698711,109.026253 295.987765,108.202621 C291.934138,106.239491 287.562946,104.84526 282.622854,104.84526 C274.957985,104.84526 271.093708,108.39282 271.093708,113.270079 C271.093708,118.02082 274.07067,120.112166 279.96176,120.618232 L290.097524,121.568381 C302.069903,122.709577 309.164174,128.220268 309.164174,139.685731 C309.164174,153.051491 297.762394,160.019245 282.432655,160.019245 L282.432655,160.019245 Z M246.135969,150.897312 C246.135969,154.445721 245.882936,155.585219 244.996471,157.042283 C243.919806,158.752381 241.829309,159.765363 239.67598,159.765363 C237.584634,159.765363 235.621504,158.94258 234.418322,157.232483 C233.720358,156.282335 233.403642,155.332186 233.277125,152.671092 C228.526384,158.309148 223.205893,160.019245 216.491171,160.019245 C210.030332,160.019245 204.328593,157.865915 200.781033,154.319204 C194.574077,147.984033 193.686762,137.721751 193.686762,127.079071 C193.686762,116.564606 194.574077,106.302324 200.781033,99.968002 C204.328593,96.4204419 209.903816,94.267112 216.364655,94.267112 C223.205893,94.267112 228.526384,95.9143754 233.214292,101.488749 L233.214292,77.3537923 C233.214292,74.249465 233.403642,73.1099662 234.16444,71.5892194 C235.051754,69.8791223 236.888368,68.5485749 239.67598,68.5485749 C242.462742,68.5485749 244.299355,69.8791223 245.18667,71.5892194 C245.946619,73.1099662 246.135969,74.249465 246.135969,77.3537923 L246.135969,150.897312 Z M182.855581,129.23325 C181.209166,130.880514 179.054987,130.880514 177.154691,130.880514 L143.011335,130.880514 C143.011335,141.839061 148.775908,148.997015 159.481422,148.997015 C163.978281,148.997015 168.349473,147.730999 171.83335,144.943388 C173.79733,143.358959 175.443744,142.59901 177.091857,142.59901 C179.688419,142.59901 182.412348,145.133588 182.412348,148.110549 C182.412348,151.087511 179.117821,153.875122 175.95066,155.901936 C171.897033,158.562181 166.068777,160.019245 159.164706,160.019245 C143.137852,160.019245 130.215325,151.593577 130.215325,127.142754 C130.215325,105.985608 141.048205,94.267112 157.454609,94.267112 C174.240563,94.267112 184.248962,106.492524 184.629361,123.469526 C184.692194,125.368974 184.439161,127.64967 182.855581,129.23325 L182.855581,129.23325 Z M120.587325,158.815214 C119.447826,159.512329 118.11643,159.765363 116.913248,159.765363 C113.493054,159.765363 111.909473,157.358999 110.134844,154.191838 L91.3220767,121.251664 L74.2194066,121.251664 L74.2194066,150.454079 C74.2194066,153.811439 74.1548747,154.888953 73.2047263,156.661884 C72.1917442,158.498498 70.1012481,159.765363 67.3773197,159.765363 C64.6533913,159.765363 62.5637442,158.498498 61.5490639,156.661884 C60.5989156,154.888953 60.5360818,153.811439 60.5360818,150.454079 L60.5360818,77.4174752 C60.5360818,75.3898128 60.5360818,72.9826005 62.5000614,71.0194701 C64.4631918,69.0554905 66.8712532,69.0554905 68.8972174,69.0554905 L95.5030691,69.0554905 C112.605739,69.0554905 123.501453,80.0777207 123.501453,95.4066107 C123.501453,108.266304 115.710066,116.500923 105.637985,119.351368 L121.790506,147.5408 C123.374936,150.327562 123.881852,151.467061 123.944685,153.178007 C124.008368,155.395869 122.931703,157.421833 120.587325,158.815214 L120.587325,158.815214 Z M618.37335,0.678774425 L45.2470997,0.678774425 C20.2579437,0.678774425 0,20.9358691 0,45.9250251 L0,166.583675 C0,187.666099 14.4194987,205.380974 33.9336266,210.404278 C34.5823427,210.571552 36.1387519,210.908647 36.2593248,210.93412 C131.564552,231.277823 230.435171,241.995225 331.809801,241.995225 C433.185279,241.995225 532.055898,231.277823 627.361125,210.93412 C627.480849,210.908647 629.037258,210.571552 629.686824,210.404278 C649.200951,205.380974 663.62045,187.666099 663.62045,166.583675 L663.62045,45.9250251 C663.62045,20.9358691 643.362506,0.678774425 618.37335,0.678774425 L618.37335,0.678774425 Z" id="Fill-5" fill="#FF351A" mask="url(#mask-2)"></path>
                </g>
                <path d="M109.818552,95.7047315 C109.818552,86.7729974 103.610747,81.3888235 94.4896624,81.3888235 L74.2189821,81.3888235 L74.2189821,109.767606 L94.4896624,109.767606 C103.610747,109.767606 109.818552,104.572783 109.818552,95.7047315" id="Fill-8" fill="#FF351A"></path>
                <path d="M456.568013,105.2063 C450.360208,105.2063 445.925333,108.499977 443.772003,113.314402 C442.505139,116.102013 442.251256,118.128827 442.12474,122.056786 L471.010438,122.056786 C470.757405,118.128827 470.503522,116.102013 469.236658,113.314402 C467.082479,108.499977 462.648453,105.2063 456.568013,105.2063" id="Fill-10" fill="#FF351A"></path>
                <path d="M157.454354,105.2063 C151.246548,105.2063 146.811674,108.499977 144.658344,113.314402 C143.391479,116.102013 143.137597,118.128827 143.01108,122.056786 L171.896779,122.056786 C171.643745,118.128827 171.389863,116.102013 170.122998,113.314402 C167.968819,108.499977 163.534794,105.2063 157.454354,105.2063" id="Fill-12" fill="#FF351A"></path>
                <path d="M503.379079,140.363147 C503.379079,146.190553 507.306189,149.421397 515.477974,149.421397 C520.102199,149.421397 523.902793,148.914482 527.19732,145.747321 C529.224133,143.846175 530.047765,140.932896 530.047765,136.182154 L530.047765,131.114697 L514.844542,131.114697 C507.243355,131.114697 503.379079,134.408374 503.379079,140.363147" id="Fill-14" fill="#FF351A"></path>
                <path d="M581.230957,106.093275 C569.575294,106.093275 567.928031,115.911474 567.928031,127.313254 C567.928031,138.716732 569.575294,148.534932 581.230957,148.534932 C592.949453,148.534932 594.596716,138.716732 594.596716,127.313254 C594.596716,115.911474 592.949453,106.093275 581.230957,106.093275" id="Fill-16" fill="#FF351A"></path>
            </g>
        </g>
    </g>
</svg>